<ttFont>
    <TTGlyph name=".notdef" xMin="68" yMin="0" xMax="612" yMax="1365">
      <contour>
        <pt x="68" y="0" on="1"/>
        <pt x="68" y="1365" on="1"/>
        <pt x="612" y="1365" on="1"/>
        <pt x="612" y="0" on="1"/>
      </contour>
      <contour>
        <pt x="136" y="68" on="1"/>
        <pt x="544" y="68" on="1"/>
        <pt x="544" y="1297" on="1"/>
        <pt x="136" y="1297" on="1"/>
      </contour>
    </TTGlyph>
    <TTGlyph name="A" xMin="72" yMin="0" xMax="1247" yMax="1456">
      <contour>
        <pt x="659" y="1214" on="1"/>
        <pt x="455" y="621" on="1"/>
        <pt x="870" y="621" on="1"/>
      </contour>
      <contour>
        <pt x="907" y="485" on="1"/>
        <pt x="410" y="485" on="1"/>
        <pt x="248" y="0" on="1"/>
        <pt x="72" y="0" on="1"/>
        <pt x="596" y="1456" on="1"/>
        <pt x="596" y="1456" on="0"/>
        <pt x="723" y="1456" on="1"/>
        <pt x="1247" y="0" on="1"/>
        <pt x="1067" y="0" on="1"/>
      </contour>
    </TTGlyph>
    <TTGlyph name="AE" xMin="83" yMin="0" xMax="1383" yMax="1456">
      <contour>
        <pt x="785" y="645" on="1"/>
        <pt x="521" y="645" on="1"/>
        <pt x="262" y="0" on="1"/>
        <pt x="83" y="0" on="1"/>
        <pt x="674" y="1456" on="1"/>
        <pt x="1383" y="1456" on="1"/>
        <pt x="1383" y="1307" on="1"/>
        <pt x="941" y="1307" on="1"/>
        <pt x="941" y="788" on="1"/>
        <pt x="1383" y="788" on="1"/>
        <pt x="1383" y="641" on="1"/>
        <pt x="941" y="641" on="1"/>
        <pt x="941" y="147" on="1"/>
        <pt x="1383" y="147" on="1"/>
        <pt x="1383" y="0" on="1"/>
        <pt x="785" y="0" on="1"/>
      </contour>
      <contour>
        <pt x="783" y="1237" on="1"/>
        <pt x="783" y="1311" on="1"/>
        <pt x="581" y="788" on="1"/>
        <pt x="785" y="788" on="1"/>
      </contour>
    </TTGlyph>
    <TTGlyph name="Aacute" xMin="64" yMin="0" xMax="1239" yMax="1944">
      <component glyphName="A" x="-8" y="0" flags="0x1004"/>
      <component glyphName="acute" x="503" y="0" flags="0x1004"/>
    </TTGlyph>
    <TTGlyph name="Abreve" xMin="64" yMin="0" xMax="1239" yMax="1838">
      <component glyphName="breve" x="-2" y="0" flags="0x1004"/>
      <component glyphName="A" x="-8" y="0" flags="0x1004"/>
    </TTGlyph>
    <TTGlyph name="Abrevecyrillic" xMin="72" yMin="0" xMax="1247" yMax="1838">
      <component glyphName="breve" x="0" y="0" flags="0x1004"/>
      <component glyphName="afii10017" x="0" y="0" flags="0x1004"/>
    </TTGlyph>
    <TTGlyph name="Acircumflex" xMin="82" yMin="0" xMax="1257" yMax="1905">
      <component glyphName="asciicircum" x="188" y="412" flags="0x1004"/>
      <component glyphName="A" x="10" y="0" flags="0x1004"/>
    </TTGlyph>
    <TTGlyph name="Adieresis" xMin="82" yMin="0" xMax="1257" yMax="1778">
      <component glyphName="dieresis" x="258" y="-1" flags="0x1004"/>
      <component glyphName="A" x="10" y="0" flags="0x1004"/>
    </TTGlyph>
    <TTGlyph name="Adieresiscyrillic" xMin="72" yMin="0" xMax="1247" yMax="1456">
      <component glyphName="afii10017" x="0" y="0" flags="0x1004"/>
    </TTGlyph>
    <TTGlyph name="Agrave" xMin="64" yMin="0" xMax="1239" yMax="1944">
      <component glyphName="A" x="-8" y="0" flags="0x1004"/>
      <component glyphName="grave" x="248" y="0" flags="0x1004"/>
    </TTGlyph>
    <TTGlyph name="Aiecyrillic" xMin="83" yMin="0" xMax="1383" yMax="1456">
      <contour>
        <pt x="785" y="645" on="1"/>
        <pt x="521" y="645" on="1"/>
        <pt x="262" y="0" on="1"/>
        <pt x="83" y="0" on="1"/>
        <pt x="674" y="1456" on="1"/>
        <pt x="1383" y="1456" on="1"/>
        <pt x="1383" y="1307" on="1"/>
        <pt x="941" y="1307" on="1"/>
        <pt x="941" y="788" on="1"/>
        <pt x="1383" y="788" on="1"/>
        <pt x="1383" y="641" on="1"/>
        <pt x="941" y="641" on="1"/>
        <pt x="941" y="147" on="1"/>
        <pt x="1383" y="147" on="1"/>
        <pt x="1383" y="0" on="1"/>
        <pt x="785" y="0" on="1"/>
      </contour>
      <contour>
        <pt x="783" y="1237" on="1"/>
        <pt x="783" y="1311" on="1"/>
        <pt x="581" y="788" on="1"/>
        <pt x="785" y="788" on="1"/>
      </contour>
    </TTGlyph>
    <TTGlyph name="Alpha" xMin="72" yMin="0" xMax="1247" yMax="1456">
      <contour>
        <pt x="659" y="1214" on="1"/>
        <pt x="455" y="621" on="1"/>
        <pt x="870" y="621" on="1"/>
      </contour>
      <contour>
        <pt x="907" y="485" on="1"/>
        <pt x="410" y="485" on="1"/>
        <pt x="248" y="0" on="1"/>
        <pt x="72" y="0" on="1"/>
        <pt x="596" y="1456" on="1"/>
        <pt x="723" y="1456" on="1"/>
        <pt x="1247" y="0" on="1"/>
        <pt x="1067" y="0" on="1"/>
      </contour>
    </TTGlyph>
    <TTGlyph name="Alphaacute" xMin="72" yMin="0" xMax="1247" yMax="1780">
      <component glyphName="acute" x="17" y="-164" flags="0x1004"/>
      <component glyphName="Alpha" x="0" y="0" flags="0x1004"/>
    </TTGlyph>
    <TTGlyph name="Alphaasper" xMin="72" yMin="0" xMax="1247" yMax="1779">
      <component glyphName="asper" x="151" y="0" flags="0x1004"/>
      <component glyphName="Alpha" x="0" y="0" flags="0x1004"/>
    </TTGlyph>
    <TTGlyph name="Alphaasperacute" xMin="196" yMin="0" xMax="1371" yMax="1780">
      <component glyphName="acute" x="234" y="-164" flags="0x1004"/>
      <component glyphName="Alpha" x="124" y="0" flags="0x1004"/>
    </TTGlyph>
    <TTGlyph name="Alphaaspergrave" xMin="196" yMin="0" xMax="1371" yMax="1784">
      <component glyphName="grave" x="212" y="-160" flags="0x1004"/>
      <component glyphName="Alpha" x="124" y="0" flags="0x1004"/>
    </TTGlyph>
    <TTGlyph name="Alphaaspertilde" xMin="19" yMin="0" xMax="1371" yMax="1780">
      <component glyphName="tilde" x="224" y="920" flags="0x1004"/>
      <component glyphName="lenis" x="-81" y="0" flags="0x1004"/>
      <component glyphName="Alpha" x="124" y="0" flags="0x1004"/>
    </TTGlyph>
    <TTGlyph name="Alphabreve" xMin="72" yMin="0" xMax="1247" yMax="1838">
      <component glyphName="breve" x="0" y="0" flags="0x1004"/>
      <component glyphName="Alpha" x="0" y="0" flags="0x1004"/>
    </TTGlyph>
    <TTGlyph name="Alphagrave" xMin="59" yMin="0" xMax="1247" yMax="1778">
      <component glyphName="grave" x="-1" y="-166" flags="0x1004"/>
      <component glyphName="Alpha" x="0" y="0" flags="0x1004"/>
    </TTGlyph>
    <TTGlyph name="Alphaiotasub" xMin="72" yMin="-396" xMax="1247" yMax="1456">
      <component glyphName="iotasubscript" x="0" y="0" flags="0x1004"/>
      <component glyphName="Alpha" x="0" y="0" flags="0x1004"/>
    </TTGlyph>
    <TTGlyph name="Alphaiotasubasper" xMin="72" yMin="-396" xMax="1247" yMax="1779">
      <component glyphName="asper" x="153" y="0" flags="0x1004"/>
      <component glyphName="Alphaiotasub" x="0" y="0" flags="0x1004"/>
    </TTGlyph>
    <TTGlyph name="Alphaiotasubasperacute" xMin="32" yMin="-396" xMax="1247" yMax="1780">
      <component glyphName="acute" x="216" y="-164" flags="0x1004"/>
      <component glyphName="asper" x="-68" y="0" flags="0x1004"/>
      <component glyphName="Alphaiotasub" x="0" y="0" flags="0x1004"/>
    </TTGlyph>
    <TTGlyph name="Alphaiotasubaspergrave" xMin="19" yMin="-396" xMax="1423" yMax="1779">
      <component glyphName="asper" x="-81" y="0" flags="0x1004"/>
      <component glyphName="Alphaiotasub" x="176" y="0" flags="0x1004"/>
      <component glyphName="grave" x="214" y="-166" flags="0x1004"/>
    </TTGlyph>
    <TTGlyph name="Alphaiotasubaspertilde" xMin="28" yMin="-396" xMax="1247" yMax="1779">
      <component glyphName="asper" x="-72" y="0" flags="0x1004"/>
      <component glyphName="tilde" x="207" y="918" flags="0x1004"/>
      <component glyphName="Alphaiotasub" x="0" y="0" flags="0x1004"/>
    </TTGlyph>
    <TTGlyph name="Alphaiotasublenis" xMin="72" yMin="-396" xMax="1247" yMax="1779">
      <component glyphName="lenis" x="150" y="0" flags="0x1004"/>
      <component glyphName="Alphaiotasub" x="0" y="0" flags="0x1004"/>
    </TTGlyph>
    <TTGlyph name="Alphaiotasublenisacute" xMin="19" yMin="-396" xMax="1463" yMax="1779">
      <component glyphName="lenis" x="-81" y="0" flags="0x1004"/>
      <component glyphName="Alphaiotasub" x="216" y="0" flags="0x1004"/>
      <component glyphName="grave" x="210" y="-166" flags="0x1004"/>
    </TTGlyph>
    <TTGlyph name="Alphaiotasublenisgrave" xMin="19" yMin="-396" xMax="1463" yMax="1781">
      <component glyphName="lenis" x="-81" y="0" flags="0x1004"/>
      <component glyphName="Alphaiotasub" x="216" y="0" flags="0x1004"/>
      <component glyphName="grave" x="220" y="-163" flags="0x1004"/>
    </TTGlyph>
    <TTGlyph name="Alphaiotasublenistilde" xMin="19" yMin="-396" xMax="1247" yMax="1780">
      <component glyphName="tilde" x="232" y="920" flags="0x1004"/>
      <component glyphName="lenis" x="-81" y="0" flags="0x1004"/>
      <component glyphName="Alphaiotasub" x="0" y="0" flags="0x1004"/>
    </TTGlyph>
    <TTGlyph name="Alphalenis" xMin="72" yMin="0" xMax="1247" yMax="1779">
      <component glyphName="lenis" x="162" y="0" flags="0x1004"/>
      <component glyphName="Alpha" x="0" y="0" flags="0x1004"/>
    </TTGlyph>
    <TTGlyph name="Alphalenisacute" xMin="19" yMin="0" xMax="1371" yMax="1780">
      <component glyphName="lenis" x="-81" y="0" flags="0x1004"/>
      <component glyphName="acute" x="250" y="-164" flags="0x1004"/>
      <component glyphName="Alpha" x="124" y="0" flags="0x1004"/>
    </TTGlyph>
    <TTGlyph name="Alphalenisgrave" xMin="20" yMin="0" xMax="1371" yMax="1780">
      <component glyphName="lenis" x="-80" y="0" flags="0x1004"/>
      <component glyphName="grave" x="204" y="-164" flags="0x1004"/>
      <component glyphName="Alpha" x="124" y="0" flags="0x1004"/>
    </TTGlyph>
    <TTGlyph name="Alphalenistilde" xMin="19" yMin="0" xMax="1371" yMax="1780">
      <component glyphName="tilde" x="216" y="920" flags="0x1004"/>
      <component glyphName="lenis" x="-81" y="0" flags="0x1004"/>
      <component glyphName="Alpha" x="124" y="0" flags="0x1004"/>
    </TTGlyph>
    <TTGlyph name="Alphamacron" xMin="72" yMin="0" xMax="1247" yMax="1702">
      <component glyphName="macron" x="132" y="381" flags="0x1004"/>
      <component glyphName="Alpha" x="0" y="0" flags="0x1004"/>
    </TTGlyph>
    <TTGlyph name="Alphatonos" xMin="72" yMin="0" xMax="1247" yMax="1776">
      <contour>
        <pt x="659" y="1214" on="1"/>
        <pt x="455" y="621" on="1"/>
        <pt x="870" y="621" on="1"/>
      </contour>
      <contour>
        <pt x="907" y="485" on="1"/>
        <pt x="410" y="485" on="1"/>
        <pt x="248" y="0" on="1"/>
        <pt x="72" y="0" on="1"/>
        <pt x="596" y="1456" on="1"/>
        <pt x="723" y="1456" on="1"/>
        <pt x="1247" y="0" on="1"/>
        <pt x="1067" y="0" on="1"/>
      </contour>
      <contour>
        <pt x="374" y="1399" on="1"/>
        <pt x="326" y="1405" on="0"/>
        <pt x="326" y="1452" on="1"/>
        <pt x="334" y="1708" on="1"/>
        <pt x="339" y="1749" on="0"/>
        <pt x="386" y="1776" on="0"/>
        <pt x="413" y="1776" on="0"/>
        <pt x="431" y="1774" on="1"/>
        <pt x="452" y="1772" on="0"/>
        <pt x="483" y="1722" on="0"/>
        <pt x="483" y="1702" on="1"/>
        <pt x="434" y="1441" on="1"/>
        <pt x="425" y="1399" on="0"/>
        <pt x="380" y="1399" on="1"/>
      </contour>
    </TTGlyph>
    <TTGlyph name="Amacron" xMin="64" yMin="0" xMax="1239" yMax="1739">
      <component glyphName="A" x="-8" y="0" flags="0x1004"/>
      <component glyphName="macron" x="118" y="418" flags="0x1004"/>
    </TTGlyph>
    <TTGlyph name="Aogonek" xMin="64" yMin="-315" xMax="1263" yMax="1456">
      <component glyphName="ogonek" x="894" y="0" flags="0x1004"/>
      <component glyphName="A" x="-8" y="0" flags="0x1004"/>
    </TTGlyph>
    <TTGlyph name="Aring" xMin="82" yMin="0" xMax="1257" yMax="1993">
      <component glyphName="degree" x="358" y="561" flags="0x1004"/>
      <component glyphName="A" x="10" y="0" flags="0x1004"/>
    </TTGlyph>
    <TTGlyph name="Atilde" xMin="82" yMin="0" xMax="1257" yMax="1866">
      <component glyphName="asciitilde" x="283" y="1006" flags="0x1004"/>
      <component glyphName="A" x="10" y="0" flags="0x1004"/>
    </TTGlyph>
    <TTGlyph name="B" xMin="121" yMin="0" xMax="1085" yMax="1456">
      <contour>
        <pt x="279" y="705" on="1"/>
        <pt x="279" y="141" on="1"/>
        <pt x="598" y="141" on="1"/>
        <pt x="795" y="141" on="0"/>
        <pt x="882" y="266" on="1"/>
        <pt x="930" y="336" on="0"/>
        <pt x="930" y="430" on="1"/>
        <pt x="930" y="465" on="0"/>
        <pt x="923" y="494" on="1"/>
        <pt x="904" y="588" on="0"/>
        <pt x="742" y="705" on="0"/>
        <pt x="598" y="705" on="1"/>
      </contour>
      <contour>
        <pt x="516" y="1315" on="1"/>
        <pt x="279" y="1317" on="1"/>
        <pt x="279" y="844" on="1"/>
        <pt x="516" y="844" on="1"/>
        <pt x="742" y="844" on="0"/>
        <pt x="816" y="958" on="1"/>
        <pt x="850" y="1012" on="0"/>
        <pt x="850" y="1108" on="0"/>
        <pt x="837" y="1165" on="0"/>
        <pt x="800" y="1225" on="0"/>
        <pt x="764" y="1254" on="1"/>
        <pt x="686" y="1315" on="0"/>
      </contour>
      <contour>
        <pt x="121" y="1456" on="1"/>
        <pt x="516" y="1456" on="1"/>
        <pt x="839" y="1456" on="0"/>
        <pt x="958" y="1264" on="1"/>
        <pt x="1010" y="1182" on="0"/>
        <pt x="1010" y="962" on="0"/>
        <pt x="843" y="782" on="0"/>
        <pt x="756" y="782" on="1"/>
        <pt x="954" y="782" on="0"/>
        <pt x="1044" y="594" on="1"/>
        <pt x="1085" y="507" on="0"/>
        <pt x="1085" y="390" on="0"/>
        <pt x="1077" y="324" on="0"/>
        <pt x="1052" y="237" on="0"/>
        <pt x="1010" y="162" on="0"/>
        <pt x="935" y="86" on="0"/>
        <pt x="886" y="60" on="1"/>
        <pt x="774" y="0" on="0"/>
        <pt x="598" y="0" on="1"/>
        <pt x="121" y="0" on="1"/>
      </contour>
    </TTGlyph>
    <TTGlyph name="Bdotaccent" xMin="121" yMin="0" xMax="1085" yMax="1777">
      <component glyphName="dotaccent" x="357" y="0" flags="0x1004"/>
      <component glyphName="B" x="0" y="0" flags="0x1004"/>
    </TTGlyph>
    <TTGlyph name="Beta" xMin="121" yMin="0" xMax="1085" yMax="1456">
      <contour>
        <pt x="279" y="705" on="1"/>
        <pt x="279" y="141" on="1"/>
        <pt x="598" y="141" on="1"/>
        <pt x="796" y="141" on="0"/>
        <pt x="882" y="266" on="1"/>
        <pt x="930" y="335" on="0"/>
        <pt x="930" y="430" on="1"/>
        <pt x="930" y="467" on="0"/>
        <pt x="923" y="494" on="1"/>
        <pt x="904" y="588" on="0"/>
        <pt x="741" y="705" on="0"/>
        <pt x="598" y="705" on="1"/>
      </contour>
      <contour>
        <pt x="516" y="1315" on="1"/>
        <pt x="279" y="1317" on="1"/>
        <pt x="279" y="844" on="1"/>
        <pt x="516" y="844" on="1"/>
        <pt x="742" y="844" on="0"/>
        <pt x="816" y="958" on="1"/>
        <pt x="850" y="1012" on="0"/>
        <pt x="850" y="1059" on="1"/>
        <pt x="850" y="1141" on="0"/>
        <pt x="799" y="1226" on="0"/>
        <pt x="764" y="1254" on="1"/>
        <pt x="687" y="1315" on="0"/>
      </contour>
      <contour>
        <pt x="121" y="1456" on="1"/>
        <pt x="516" y="1456" on="1"/>
        <pt x="838" y="1456" on="0"/>
        <pt x="958" y="1264" on="1"/>
        <pt x="1010" y="1180" on="0"/>
        <pt x="1010" y="962" on="0"/>
        <pt x="842" y="782" on="0"/>
        <pt x="756" y="782" on="1"/>
        <pt x="952" y="782" on="0"/>
        <pt x="1044" y="594" on="1"/>
        <pt x="1085" y="508" on="0"/>
        <pt x="1085" y="447" on="1"/>
        <pt x="1085" y="168" on="0"/>
        <pt x="886" y="60" on="1"/>
        <pt x="775" y="0" on="0"/>
        <pt x="598" y="0" on="1"/>
        <pt x="121" y="0" on="1"/>
      </contour>
    </TTGlyph>
    <TTGlyph name="C" xMin="100" yMin="-29" xMax="1167" yMax="1495">
      <contour>
        <pt x="1167" y="293" on="1"/>
        <pt x="1119" y="164" on="0"/>
        <pt x="1011" y="72" on="1"/>
        <pt x="891" y="-29" on="0"/>
        <pt x="700" y="-29" on="1"/>
        <pt x="356" y="-29" on="0"/>
        <pt x="194" y="292" on="1"/>
        <pt x="100" y="477" on="0"/>
        <pt x="100" y="725" on="1"/>
        <pt x="100" y="971" on="0"/>
        <pt x="194" y="1164" on="1"/>
        <pt x="296" y="1372" on="0"/>
        <pt x="483" y="1452" on="1"/>
        <pt x="583" y="1495" on="0"/>
        <pt x="778" y="1495" on="0"/>
        <pt x="913" y="1458" on="0"/>
        <pt x="1011" y="1398" on="0"/>
        <pt x="1050" y="1358" on="1"/>
        <pt x="1121" y="1284" on="0"/>
        <pt x="1153" y="1194" on="1"/>
        <pt x="1004" y="1153" on="1"/>
        <pt x="975" y="1244" on="0"/>
        <pt x="806" y="1354" on="0"/>
        <pt x="702" y="1354" on="1"/>
        <pt x="700" y="1354" on="1"/>
        <pt x="596" y="1354" on="0"/>
        <pt x="427" y="1246" on="0"/>
        <pt x="374" y="1156" on="1"/>
        <pt x="266" y="970" on="0"/>
        <pt x="266" y="725" on="1"/>
        <pt x="266" y="477" on="0"/>
        <pt x="380" y="298" on="1"/>
        <pt x="435" y="212" on="0"/>
        <pt x="601" y="111" on="0"/>
        <pt x="806" y="111" on="0"/>
        <pt x="988" y="242" on="0"/>
        <pt x="1020" y="334" on="1"/>
      </contour>
    </TTGlyph>
    <TTGlyph name="Cacute" xMin="100" yMin="-29" xMax="1167" yMax="1944">
      <component glyphName="acute" x="500" y="0" flags="0x1004"/>
      <component glyphName="C" x="0" y="0" flags="0x1004"/>
    </TTGlyph>
    <TTGlyph name="Ccaron" xMin="100" yMin="-29" xMax="1167" yMax="1858">
      <component glyphName="caron" x="176" y="0" flags="0x1004"/>
      <component glyphName="C" x="0" y="0" flags="0x1004"/>
    </TTGlyph>
    <TTGlyph name="Ccedilla" xMin="120" yMin="-424" xMax="1187" yMax="1495">
      <component glyphName="cedilla" x="457" y="-109" flags="0x1004"/>
      <component glyphName="C" x="20" y="0" flags="0x1004"/>
    </TTGlyph>
    <TTGlyph name="Ccircumflex" xMin="100" yMin="-29" xMax="1167" yMax="1858">
      <component glyphName="circumflex" x="172" y="0" flags="0x1004"/>
      <component glyphName="C" x="0" y="0" flags="0x1004"/>
    </TTGlyph>
    <TTGlyph name="Cdotaccent" xMin="100" yMin="-29" xMax="1167" yMax="1777">
      <component glyphName="dotaccent" x="468" y="0" flags="0x1004"/>
      <component glyphName="C" x="0" y="0" flags="0x1004"/>
    </TTGlyph>
    <TTGlyph name="Cheabkhasiancyrillic" xMin="100" yMin="-29" xMax="1167" yMax="1495">
      <component glyphName="afii10035" x="0" y="0" flags="0x1004"/>
    </TTGlyph>
    <TTGlyph name="Chedescenderabkhasiancyrillic" xMin="100" yMin="-29" xMax="1167" yMax="1495">
      <component glyphName="afii10035" x="0" y="0" flags="0x1004"/>
    </TTGlyph>
    <TTGlyph name="Chedescendercyrillic" xMin="98" yMin="0" xMax="926" yMax="1456">
      <component glyphName="afii10041" x="0" y="0" flags="0x1004"/>
    </TTGlyph>
    <TTGlyph name="Chedieresiscyrillic" xMin="98" yMin="0" xMax="926" yMax="1779">
      <component glyphName="dieresis" x="104" y="0" flags="0x1004"/>
      <component glyphName="afii10041" x="0" y="0" flags="0x1004"/>
    </TTGlyph>
    <TTGlyph name="Chekhakassiancyrillic" xMin="98" yMin="0" xMax="926" yMax="1456">
      <component glyphName="afii10041" x="0" y="0" flags="0x1004"/>
    </TTGlyph>
    <TTGlyph name="Cheverticalstrokecyrillic" xMin="98" yMin="0" xMax="926" yMax="1456">
      <component glyphName="afii10041" x="0" y="0" flags="0x1004"/>
    </TTGlyph>
    <TTGlyph name="Chi" xMin="74" yMin="0" xMax="1161" yMax="1456">
      <contour>
        <pt x="74" y="1456" on="1"/>
        <pt x="256" y="1456" on="1"/>
        <pt x="618" y="850" on="1"/>
        <pt x="973" y="1456" on="1"/>
        <pt x="1155" y="1456" on="1"/>
        <pt x="702" y="729" on="1"/>
        <pt x="1161" y="0" on="1"/>
        <pt x="971" y="0" on="1"/>
        <pt x="618" y="586" on="1"/>
        <pt x="258" y="0" on="1"/>
        <pt x="80" y="0" on="1"/>
        <pt x="535" y="729" on="1"/>
      </contour>
    </TTGlyph>
    <TTGlyph name="D" xMin="121" yMin="0" xMax="1153" yMax="1456">
      <contour>
        <pt x="987" y="692" on="1"/>
        <pt x="987" y="792" on="0"/>
        <pt x="967" y="922" on="0"/>
        <pt x="925" y="1057" on="0"/>
        <pt x="851" y="1172" on="0"/>
        <pt x="802" y="1218" on="1"/>
        <pt x="695" y="1315" on="0"/>
        <pt x="524" y="1315" on="1"/>
        <pt x="279" y="1315" on="1"/>
        <pt x="279" y="141" on="1"/>
        <pt x="524" y="141" on="1"/>
        <pt x="779" y="141" on="0"/>
        <pt x="886" y="305" on="1"/>
        <pt x="987" y="458" on="0"/>
      </contour>
      <contour>
        <pt x="1074" y="1130" on="0"/>
        <pt x="1153" y="869" on="0"/>
        <pt x="1153" y="573" on="0"/>
        <pt x="1074" y="309" on="0"/>
        <pt x="928" y="112" on="0"/>
        <pt x="703" y="0" on="0"/>
        <pt x="565" y="0" on="1"/>
        <pt x="121" y="0" on="1"/>
        <pt x="121" y="1456" on="1"/>
        <pt x="565" y="1456" on="1"/>
        <pt x="702" y="1456" on="0"/>
        <pt x="928" y="1334" on="0"/>
      </contour>
    </TTGlyph>
    <TTGlyph name="Dcaron" xMin="121" yMin="0" xMax="1153" yMax="1858">
      <component glyphName="caron" x="0" y="0" flags="0x1004"/>
      <component glyphName="D" x="0" y="0" flags="0x1004"/>
    </TTGlyph>
    <TTGlyph name="Dcroat" xMin="106" yMin="0" xMax="1273" yMax="1456">
      <contour>
        <pt x="288" y="662" on="1"/>
        <pt x="106" y="662" on="1"/>
        <pt x="106" y="803" on="1"/>
        <pt x="288" y="803" on="1"/>
        <pt x="288" y="1456" on="1"/>
        <pt x="668" y="1456" on="1"/>
        <pt x="889" y="1456" on="0"/>
        <pt x="1202" y="1164" on="0"/>
        <pt x="1252" y="928" on="1"/>
        <pt x="1273" y="823" on="0"/>
        <pt x="1273" y="726" on="1"/>
        <pt x="1273" y="523" on="0"/>
        <pt x="1122" y="191" on="0"/>
        <pt x="844" y="0" on="0"/>
        <pt x="668" y="0" on="1"/>
        <pt x="288" y="0" on="1"/>
      </contour>
      <contour>
        <pt x="445" y="662" on="1"/>
        <pt x="445" y="143" on="1"/>
        <pt x="668" y="143" on="1"/>
        <pt x="862" y="143" on="0"/>
        <pt x="1116" y="469" on="0"/>
        <pt x="1116" y="726" on="1"/>
        <pt x="1116" y="1034" on="0"/>
        <pt x="942" y="1201" on="1"/>
        <pt x="827" y="1312" on="0"/>
        <pt x="668" y="1312" on="1"/>
        <pt x="445" y="1312" on="1"/>
        <pt x="445" y="803" on="1"/>
        <pt x="744" y="803" on="1"/>
        <pt x="744" y="662" on="1"/>
      </contour>
    </TTGlyph>
    <TTGlyph name="Ddotaccent" xMin="121" yMin="0" xMax="1153" yMax="1777">
      <component glyphName="dotaccent" x="375" y="0" flags="0x1004"/>
      <component glyphName="D" x="0" y="0" flags="0x1004"/>
    </TTGlyph>
    <TTGlyph name="Delta" xMin="120" yMin="0" xMax="1462" yMax="1440">
      <contour>
        <pt x="120" y="0" on="1"/>
        <pt x="702" y="1440" on="1"/>
        <pt x="881" y="1440" on="1"/>
        <pt x="1462" y="0" on="1"/>
      </contour>
      <contour>
        <pt x="394" y="157" on="1"/>
        <pt x="1197" y="157" on="1"/>
        <pt x="795" y="1247" on="1"/>
      </contour>
    </TTGlyph>
    <TTGlyph name="Dzeabkhasiancyrillic" xMin="113" yMin="-29" xMax="1036" yMax="1497">
      <component glyphName="afii10025" x="0" y="0" flags="0x1004"/>
    </TTGlyph>
    <TTGlyph name="E" xMin="121" yMin="0" xMax="1042" yMax="1456">
      <contour>
        <pt x="121" y="1456" on="1"/>
        <pt x="1042" y="1456" on="1"/>
        <pt x="1042" y="1315" on="1"/>
        <pt x="279" y="1315" on="1"/>
        <pt x="279" y="817" on="1"/>
        <pt x="999" y="817" on="1"/>
        <pt x="999" y="676" on="1"/>
        <pt x="279" y="676" on="1"/>
        <pt x="279" y="141" on="1"/>
        <pt x="1042" y="141" on="1"/>
        <pt x="1042" y="0" on="1"/>
        <pt x="121" y="0" on="1"/>
      </contour>
    </TTGlyph>
    <TTGlyph name="Eacute" xMin="121" yMin="0" xMax="1042" yMax="1944">
      <component glyphName="E" x="0" y="0" flags="0x1004"/>
      <component glyphName="acute" x="384" y="0" flags="0x1004"/>
    </TTGlyph>
    <TTGlyph name="Ebreve" xMin="121" yMin="0" xMax="1042" yMax="1838">
      <component glyphName="breve" x="-40" y="0" flags="0x1004"/>
      <component glyphName="E" x="0" y="0" flags="0x1004"/>
    </TTGlyph>
    <TTGlyph name="Ecaron" xMin="121" yMin="0" xMax="1042" yMax="1858">
      <component glyphName="caron" x="98" y="0" flags="0x1004"/>
      <component glyphName="E" x="0" y="0" flags="0x1004"/>
    </TTGlyph>
    <TTGlyph name="Ecircumflex" xMin="131" yMin="0" xMax="1052" yMax="1882">
      <component glyphName="asciicircum" x="129" y="389" flags="0x1004"/>
      <component glyphName="E" x="10" y="0" flags="0x1004"/>
    </TTGlyph>
    <TTGlyph name="Edieresis" xMin="131" yMin="0" xMax="1052" yMax="1796">
      <component glyphName="dieresis" x="190" y="17" flags="0x1004"/>
      <component glyphName="E" x="10" y="0" flags="0x1004"/>
    </TTGlyph>
    <TTGlyph name="Edotaccent" xMin="121" yMin="0" xMax="1042" yMax="1777">
      <component glyphName="dotaccent" x="428" y="0" flags="0x1004"/>
      <component glyphName="E" x="0" y="0" flags="0x1004"/>
    </TTGlyph>
    <TTGlyph name="Egrave" xMin="121" yMin="0" xMax="1042" yMax="1944">
      <component glyphName="E" x="0" y="0" flags="0x1004"/>
      <component glyphName="grave" x="280" y="0" flags="0x1004"/>
    </TTGlyph>
    <TTGlyph name="Emacron" xMin="121" yMin="0" xMax="1042" yMax="1771">
      <component glyphName="macron" x="91" y="450" flags="0x1004"/>
      <component glyphName="E" x="0" y="0" flags="0x1004"/>
    </TTGlyph>
    <TTGlyph name="Endescendercyrillic" xMin="121" yMin="0" xMax="1098" yMax="1456">
      <component glyphName="afii10031" x="0" y="0" flags="0x1004"/>
    </TTGlyph>
    <TTGlyph name="Eng" xMin="110" yMin="-87" xMax="1161" yMax="1464">
      <contour>
        <pt x="1160" y="362" on="1"/>
        <pt x="1161" y="353" on="1"/>
        <pt x="1161" y="295" on="0"/>
        <pt x="1125" y="162" on="1"/>
        <pt x="1105" y="94" on="0"/>
        <pt x="1036" y="30" on="1"/>
        <pt x="911" y="-87" on="0"/>
        <pt x="758" y="-87" on="1"/>
        <pt x="754" y="-87" on="1"/>
        <pt x="755" y="-77" on="0"/>
        <pt x="758" y="47" on="1"/>
        <pt x="861" y="47" on="0"/>
        <pt x="1008" y="194" on="0"/>
        <pt x="1008" y="329" on="1"/>
        <pt x="1008" y="903" on="1"/>
        <pt x="1008" y="1203" on="0"/>
        <pt x="868" y="1294" on="1"/>
        <pt x="817" y="1327" on="0"/>
        <pt x="707" y="1327" on="0"/>
        <pt x="609" y="1293" on="1"/>
        <pt x="549" y="1269" on="0"/>
        <pt x="334" y="1140" on="0"/>
        <pt x="285" y="1065" on="1"/>
        <pt x="269" y="1039" on="0"/>
        <pt x="269" y="902" on="1"/>
        <pt x="269" y="0" on="1"/>
        <pt x="117" y="0" on="1"/>
        <pt x="110" y="1456" on="1"/>
        <pt x="262" y="1456" on="1"/>
        <pt x="269" y="1254" on="1"/>
        <pt x="390" y="1346" on="0"/>
        <pt x="668" y="1464" on="0"/>
        <pt x="872" y="1464" on="0"/>
        <pt x="938" y="1430" on="1"/>
        <pt x="1159" y="1319" on="0"/>
        <pt x="1159" y="903" on="1"/>
        <pt x="1159" y="363" on="1"/>
      </contour>
    </TTGlyph>
    <TTGlyph name="Enghecyrillic" xMin="121" yMin="0" xMax="1429" yMax="1456">
      <contour>
        <pt x="121" y="1456" on="1"/>
        <pt x="279" y="1456" on="1"/>
        <pt x="279" y="815" on="1"/>
        <pt x="772" y="815" on="1"/>
        <pt x="772" y="1456" on="1"/>
        <pt x="1429" y="1456" on="1"/>
        <pt x="1429" y="1315" on="1"/>
        <pt x="930" y="1315" on="1"/>
        <pt x="930" y="0" on="1"/>
        <pt x="772" y="0" on="1"/>
        <pt x="772" y="674" on="1"/>
        <pt x="279" y="674" on="1"/>
        <pt x="279" y="0" on="1"/>
        <pt x="121" y="0" on="1"/>
      </contour>
    </TTGlyph>
    <TTGlyph name="Enhookcyrillic" xMin="121" yMin="0" xMax="1098" yMax="1456">
      <component glyphName="afii10031" x="0" y="0" flags="0x1004"/>
    </TTGlyph>
    <TTGlyph name="Eogonek" xMin="121" yMin="-315" xMax="1042" yMax="1456">
      <component glyphName="ogonek" x="654" y="0" flags="0x1004"/>
      <component glyphName="E" x="0" y="0" flags="0x1004"/>
    </TTGlyph>
    <TTGlyph name="Epsilon" xMin="121" yMin="0" xMax="1042" yMax="1456">
      <contour>
        <pt x="121" y="1456" on="1"/>
        <pt x="1042" y="1456" on="1"/>
        <pt x="1042" y="1315" on="1"/>
        <pt x="279" y="1315" on="1"/>
        <pt x="279" y="817" on="1"/>
        <pt x="999" y="817" on="1"/>
        <pt x="999" y="676" on="1"/>
        <pt x="279" y="676" on="1"/>
        <pt x="279" y="141" on="1"/>
        <pt x="1042" y="141" on="1"/>
        <pt x="1042" y="0" on="1"/>
        <pt x="121" y="0" on="1"/>
      </contour>
    </TTGlyph>
    <TTGlyph name="Epsilonacute" xMin="121" yMin="0" xMax="1042" yMax="1456">
      <component glyphName="Epsilon" x="0" y="0" flags="0x1004"/>
    </TTGlyph>
    <TTGlyph name="Epsilonasper" xMin="19" yMin="0" xMax="1171" yMax="1779">
      <component glyphName="asper" x="-81" y="0" flags="0x1004"/>
      <component glyphName="Epsilon" x="129" y="0" flags="0x1004"/>
    </TTGlyph>
    <TTGlyph name="Epsilonasperacute" xMin="19" yMin="0" xMax="1486" yMax="1780">
      <component glyphName="asper" x="-81" y="0" flags="0x1004"/>
      <component glyphName="acute" x="218" y="-164" flags="0x1004"/>
      <component glyphName="Epsilon" x="444" y="0" flags="0x1004"/>
    </TTGlyph>
    <TTGlyph name="Epsilonaspergrave" xMin="19" yMin="0" xMax="1650" yMax="1780">
      <component glyphName="asper" x="-81" y="0" flags="0x1004"/>
      <component glyphName="grave" x="204" y="-164" flags="0x1004"/>
      <component glyphName="Epsilon" x="608" y="0" flags="0x1004"/>
    </TTGlyph>
    <TTGlyph name="Epsilongrave" xMin="19" yMin="0" xMax="1402" yMax="1780">
      <component glyphName="grave" x="-41" y="-164" flags="0x1004"/>
      <component glyphName="Epsilon" x="360" y="0" flags="0x1004"/>
    </TTGlyph>
    <TTGlyph name="Epsilonlenis" xMin="19" yMin="0" xMax="1174" yMax="1779">
      <component glyphName="lenis" x="-81" y="0" flags="0x1004"/>
      <component glyphName="Epsilon" x="132" y="0" flags="0x1004"/>
    </TTGlyph>
    <TTGlyph name="Epsilonlenisacute" xMin="19" yMin="0" xMax="1418" yMax="1780">
      <component glyphName="lenis" x="-81" y="0" flags="0x1004"/>
      <component glyphName="acute" x="222" y="-164" flags="0x1004"/>
      <component glyphName="Epsilon" x="376" y="0" flags="0x1004"/>
    </TTGlyph>
    <TTGlyph name="Epsilonlenisgrave" xMin="19" yMin="0" xMax="1662" yMax="1780">
      <component glyphName="lenis" x="-81" y="0" flags="0x1004"/>
      <component glyphName="grave" x="224" y="-164" flags="0x1004"/>
      <component glyphName="Epsilon" x="620" y="0" flags="0x1004"/>
    </TTGlyph>
    <TTGlyph name="Epsilontonos" xMin="28" yMin="0" xMax="1142" yMax="1776">
      <contour>
        <pt x="221" y="1456" on="1"/>
        <pt x="1142" y="1456" on="1"/>
        <pt x="1142" y="1315" on="1"/>
        <pt x="379" y="1315" on="1"/>
        <pt x="379" y="817" on="1"/>
        <pt x="1099" y="817" on="1"/>
        <pt x="1099" y="676" on="1"/>
        <pt x="379" y="676" on="1"/>
        <pt x="379" y="141" on="1"/>
        <pt x="1142" y="141" on="1"/>
        <pt x="1142" y="0" on="1"/>
        <pt x="221" y="0" on="1"/>
      </contour>
      <contour>
        <pt x="76" y="1399" on="1"/>
        <pt x="28" y="1405" on="0"/>
        <pt x="28" y="1452" on="1"/>
        <pt x="36" y="1708" on="1"/>
        <pt x="41" y="1749" on="0"/>
        <pt x="88" y="1776" on="0"/>
        <pt x="115" y="1776" on="0"/>
        <pt x="133" y="1774" on="1"/>
        <pt x="154" y="1772" on="0"/>
        <pt x="185" y="1722" on="0"/>
        <pt x="185" y="1702" on="1"/>
        <pt x="136" y="1441" on="1"/>
        <pt x="127" y="1399" on="0"/>
        <pt x="82" y="1399" on="1"/>
      </contour>
    </TTGlyph>
    <TTGlyph name="Esdescendercyrillic" xMin="100" yMin="-29" xMax="1167" yMax="1495">
      <component glyphName="afii10035" x="0" y="0" flags="0x1004"/>
    </TTGlyph>
    <TTGlyph name="Eta" xMin="121" yMin="0" xMax="1098" yMax="1456">
      <contour>
        <pt x="121" y="1456" on="1"/>
        <pt x="279" y="1456" on="1"/>
        <pt x="279" y="815" on="1"/>
        <pt x="940" y="815" on="1"/>
        <pt x="940" y="1456" on="1"/>
        <pt x="1098" y="1456" on="1"/>
        <pt x="1098" y="0" on="1"/>
        <pt x="940" y="0" on="1"/>
        <pt x="940" y="674" on="1"/>
        <pt x="279" y="674" on="1"/>
        <pt x="279" y="0" on="1"/>
        <pt x="121" y="0" on="1"/>
      </contour>
    </TTGlyph>
    <TTGlyph name="Etaacute" xMin="22" yMin="-4" xMax="1462" yMax="1780">
      <component glyphName="acute" x="-38" y="-164" flags="0x1004"/>
      <component glyphName="Eta" x="364" y="-4" flags="0x1004"/>
    </TTGlyph>
    <TTGlyph name="Etaasper" xMin="19" yMin="0" xMax="1230" yMax="1779">
      <component glyphName="asper" x="-81" y="0" flags="0x1004"/>
      <component glyphName="Eta" x="132" y="0" flags="0x1004"/>
    </TTGlyph>
    <TTGlyph name="Etaasperacute" xMin="19" yMin="0" xMax="1562" yMax="1780">
      <component glyphName="asper" x="-81" y="0" flags="0x1004"/>
      <component glyphName="acute" x="214" y="-164" flags="0x1004"/>
      <component glyphName="Eta" x="464" y="0" flags="0x1004"/>
    </TTGlyph>
    <TTGlyph name="Etaaspergrave" xMin="19" yMin="4" xMax="1698" yMax="1780">
      <component glyphName="asper" x="-81" y="0" flags="0x1004"/>
      <component glyphName="grave" x="207" y="-164" flags="0x1004"/>
      <component glyphName="Eta" x="600" y="4" flags="0x1004"/>
    </TTGlyph>
    <TTGlyph name="Etaaspertilde" xMin="19" yMin="0" xMax="1494" yMax="1780">
      <component glyphName="tilde" x="204" y="920" flags="0x1004"/>
      <component glyphName="asper" x="-81" y="0" flags="0x1004"/>
      <component glyphName="Eta" x="396" y="0" flags="0x1004"/>
    </TTGlyph>
    <TTGlyph name="Etagrave" xMin="19" yMin="0" xMax="1462" yMax="1780">
      <component glyphName="grave" x="-41" y="-164" flags="0x1004"/>
      <component glyphName="Eta" x="364" y="0" flags="0x1004"/>
    </TTGlyph>
    <TTGlyph name="Etaiotasub" xMin="121" yMin="-396" xMax="1098" yMax="1456">
      <component glyphName="iotasubscript" x="-54" y="0" flags="0x1004"/>
      <component glyphName="Eta" x="0" y="0" flags="0x1004"/>
    </TTGlyph>
    <TTGlyph name="Etaiotasubasper" xMin="19" yMin="-396" xMax="1221" yMax="1779">
      <component glyphName="asper" x="-81" y="0" flags="0x1004"/>
      <component glyphName="Etaiotasub" x="123" y="0" flags="0x1004"/>
    </TTGlyph>
    <TTGlyph name="Etaiotasubasperacute" xMin="20" yMin="-396" xMax="1493" yMax="1780">
      <component glyphName="acute" x="196" y="-164" flags="0x1004"/>
      <component glyphName="asper" x="-80" y="0" flags="0x1004"/>
      <component glyphName="Etaiotasub" x="395" y="0" flags="0x1004"/>
    </TTGlyph>
    <TTGlyph name="Etaiotasubaspergrave" xMin="19" yMin="-396" xMax="1702" yMax="1780">
      <component glyphName="asper" x="-81" y="0" flags="0x1004"/>
      <component glyphName="Etaiotasub" x="604" y="0" flags="0x1004"/>
      <component glyphName="grave" x="211" y="-164" flags="0x1004"/>
    </TTGlyph>
    <TTGlyph name="Etaiotasubaspertilde" xMin="19" yMin="-396" xMax="1350" yMax="1779">
      <component glyphName="asper" x="-81" y="0" flags="0x1004"/>
      <component glyphName="tilde" x="192" y="918" flags="0x1004"/>
      <component glyphName="Etaiotasub" x="252" y="0" flags="0x1004"/>
    </TTGlyph>
    <TTGlyph name="Etaiotasublenis" xMin="19" yMin="-396" xMax="1230" yMax="1779">
      <component glyphName="lenis" x="-81" y="0" flags="0x1004"/>
      <component glyphName="Etaiotasub" x="132" y="0" flags="0x1004"/>
    </TTGlyph>
    <TTGlyph name="Etaiotasublenisacute" xMin="19" yMin="-396" xMax="1714" yMax="1780">
      <component glyphName="lenis" x="-81" y="0" flags="0x1004"/>
      <component glyphName="Etaiotasub" x="616" y="0" flags="0x1004"/>
      <component glyphName="grave" x="216" y="-164" flags="0x1004"/>
    </TTGlyph>
    <TTGlyph name="Etaiotasublenisgrave" xMin="19" yMin="-396" xMax="1718" yMax="1779">
      <component glyphName="grave" x="216" y="-166" flags="0x1004"/>
      <component glyphName="Etaiotasub" x="620" y="0" flags="0x1004"/>
      <component glyphName="lenis" x="-81" y="0" flags="0x1004"/>
    </TTGlyph>
    <TTGlyph name="Etaiotasublenistilde" xMin="19" yMin="-396" xMax="1350" yMax="1780">
      <component glyphName="tilde" x="228" y="920" flags="0x1004"/>
      <component glyphName="lenis" x="-81" y="0" flags="0x1004"/>
      <component glyphName="Etaiotasub" x="252" y="0" flags="0x1004"/>
    </TTGlyph>
    <TTGlyph name="Etalenis" xMin="19" yMin="0" xMax="1230" yMax="1779">
      <component glyphName="lenis" x="-81" y="0" flags="0x1004"/>
      <component glyphName="Eta" x="132" y="0" flags="0x1004"/>
    </TTGlyph>
    <TTGlyph name="Etalenisacute" xMin="19" yMin="0" xMax="1503" yMax="1779">
      <component glyphName="lenis" x="-81" y="0" flags="0x1004"/>
      <component glyphName="acute" x="209" y="-165" flags="0x1004"/>
      <component glyphName="Eta" x="405" y="0" flags="0x1004"/>
    </TTGlyph>
    <TTGlyph name="Etalenisgrave" xMin="19" yMin="0" xMax="1718" yMax="1780">
      <component glyphName="lenis" x="-81" y="0" flags="0x1004"/>
      <component glyphName="grave" x="213" y="-164" flags="0x1004"/>
      <component glyphName="Eta" x="620" y="0" flags="0x1004"/>
    </TTGlyph>
    <TTGlyph name="Etalenistilde" xMin="19" yMin="0" xMax="1503" yMax="1780">
      <component glyphName="tilde" x="200" y="920" flags="0x1004"/>
      <component glyphName="lenis" x="-81" y="0" flags="0x1004"/>
      <component glyphName="Eta" x="405" y="0" flags="0x1004"/>
    </TTGlyph>
    <TTGlyph name="Etatonos" xMin="27" yMin="0" xMax="1196" yMax="1776">
      <contour>
        <pt x="219" y="1456" on="1"/>
        <pt x="377" y="1456" on="1"/>
        <pt x="377" y="815" on="1"/>
        <pt x="1038" y="815" on="1"/>
        <pt x="1038" y="1456" on="1"/>
        <pt x="1196" y="1456" on="1"/>
        <pt x="1196" y="0" on="1"/>
        <pt x="1038" y="0" on="1"/>
        <pt x="1038" y="674" on="1"/>
        <pt x="377" y="674" on="1"/>
        <pt x="377" y="0" on="1"/>
        <pt x="219" y="0" on="1"/>
      </contour>
      <contour>
        <pt x="75" y="1399" on="1"/>
        <pt x="27" y="1405" on="0"/>
        <pt x="27" y="1452" on="1"/>
        <pt x="35" y="1708" on="1"/>
        <pt x="40" y="1749" on="0"/>
        <pt x="87" y="1776" on="0"/>
        <pt x="114" y="1776" on="0"/>
        <pt x="132" y="1774" on="1"/>
        <pt x="153" y="1772" on="0"/>
        <pt x="184" y="1722" on="0"/>
        <pt x="184" y="1702" on="1"/>
        <pt x="135" y="1441" on="1"/>
        <pt x="126" y="1399" on="0"/>
        <pt x="81" y="1399" on="1"/>
      </contour>
    </TTGlyph>
    <TTGlyph name="Eth" xMin="144" yMin="0" xMax="1311" yMax="1456">
      <contour>
        <pt x="326" y="662" on="1"/>
        <pt x="144" y="662" on="1"/>
        <pt x="144" y="803" on="1"/>
        <pt x="326" y="803" on="1"/>
        <pt x="326" y="1456" on="1"/>
        <pt x="707" y="1456" on="1"/>
        <pt x="929" y="1456" on="0"/>
        <pt x="1085" y="1310" on="1"/>
        <pt x="1311" y="1098" on="0"/>
        <pt x="1311" y="726" on="1"/>
        <pt x="1311" y="523" on="0"/>
        <pt x="1161" y="193" on="0"/>
        <pt x="883" y="0" on="0"/>
        <pt x="707" y="0" on="1"/>
        <pt x="326" y="0" on="1"/>
      </contour>
      <contour>
        <pt x="483" y="662" on="1"/>
        <pt x="483" y="143" on="1"/>
        <pt x="707" y="143" on="1"/>
        <pt x="901" y="143" on="0"/>
        <pt x="1154" y="468" on="0"/>
        <pt x="1154" y="726" on="1"/>
        <pt x="1154" y="1034" on="0"/>
        <pt x="980" y="1201" on="1"/>
        <pt x="865" y="1312" on="0"/>
        <pt x="707" y="1312" on="1"/>
        <pt x="483" y="1312" on="1"/>
        <pt x="483" y="803" on="1"/>
        <pt x="783" y="803" on="1"/>
        <pt x="783" y="662" on="1"/>
      </contour>
    </TTGlyph>
    <TTGlyph name="Euro" xMin="135" yMin="211" xMax="956" yMax="1196">
      <contour>
        <pt x="270" y="762" on="1"/>
        <pt x="141" y="762" on="1"/>
        <pt x="141" y="897" on="1"/>
        <pt x="294" y="897" on="1"/>
        <pt x="333" y="1031" on="0"/>
        <pt x="512" y="1196" on="0"/>
        <pt x="750" y="1196" on="0"/>
        <pt x="875" y="1138" on="0"/>
        <pt x="952" y="1063" on="1"/>
        <pt x="856" y="967" on="1"/>
        <pt x="806" y="1018" on="0"/>
        <pt x="718" y="1061" on="0"/>
        <pt x="648" y="1061" on="1"/>
        <pt x="520" y="1061" on="0"/>
        <pt x="451" y="897" on="1"/>
        <pt x="721" y="897" on="1"/>
        <pt x="721" y="762" on="1"/>
        <pt x="415" y="762" on="1"/>
        <pt x="412" y="734" on="0"/>
        <pt x="412" y="675" on="0"/>
        <pt x="415" y="645" on="1"/>
        <pt x="715" y="645" on="1"/>
        <pt x="715" y="510" on="1"/>
        <pt x="450" y="510" on="1"/>
        <pt x="484" y="433" on="0"/>
        <pt x="589" y="346" on="0"/>
        <pt x="706" y="346" on="0"/>
        <pt x="798" y="389" on="0"/>
        <pt x="860" y="457" on="1"/>
        <pt x="956" y="360" on="1"/>
        <pt x="874" y="266" on="0"/>
        <pt x="812" y="240" on="1"/>
        <pt x="738" y="211" on="0"/>
        <pt x="505" y="211" on="0"/>
        <pt x="332" y="375" on="0"/>
        <pt x="294" y="510" on="1"/>
        <pt x="135" y="510" on="1"/>
        <pt x="135" y="645" on="1"/>
        <pt x="271" y="645" on="1"/>
        <pt x="268" y="678" on="0"/>
        <pt x="268" y="728" on="0"/>
      </contour>
    </TTGlyph>
    <TTGlyph name="F" xMin="121" yMin="0" xMax="1042" yMax="1456">
      <contour>
        <pt x="121" y="1456" on="1"/>
        <pt x="1042" y="1456" on="1"/>
        <pt x="1042" y="1315" on="1"/>
        <pt x="279" y="1315" on="1"/>
        <pt x="279" y="817" on="1"/>
        <pt x="999" y="817" on="1"/>
        <pt x="999" y="676" on="1"/>
        <pt x="279" y="676" on="1"/>
        <pt x="279" y="0" on="1"/>
        <pt x="121" y="0" on="1"/>
      </contour>
    </TTGlyph>
    <TTGlyph name="Fdotaccent" xMin="121" yMin="0" xMax="1042" yMax="1777">
      <component glyphName="dotaccent" x="426" y="0" flags="0x1004"/>
      <component glyphName="F" x="0" y="0" flags="0x1004"/>
    </TTGlyph>
    <TTGlyph name="G" xMin="100" yMin="-29" xMax="1233" yMax="1495">
      <contour>
        <pt x="700" y="-29" on="1"/>
        <pt x="559" y="-29" on="0"/>
        <pt x="328" y="98" on="0"/>
        <pt x="254" y="204" on="1"/>
        <pt x="100" y="426" on="0"/>
        <pt x="100" y="731" on="1"/>
        <pt x="100" y="955" on="0"/>
        <pt x="194" y="1147" on="1"/>
        <pt x="300" y="1363" on="0"/>
        <pt x="482" y="1448" on="1"/>
        <pt x="583" y="1495" on="0"/>
        <pt x="722" y="1495" on="1"/>
        <pt x="988" y="1495" on="0"/>
        <pt x="1137" y="1260" on="1"/>
        <pt x="999" y="1192" on="1"/>
        <pt x="941" y="1273" on="0"/>
        <pt x="808" y="1354" on="0"/>
        <pt x="599" y="1354" on="0"/>
        <pt x="428" y="1237" on="0"/>
        <pt x="376" y="1144" on="1"/>
        <pt x="266" y="952" on="0"/>
        <pt x="266" y="731" on="1"/>
        <pt x="266" y="500" on="0"/>
        <pt x="376" y="312" on="1"/>
        <pt x="428" y="222" on="0"/>
        <pt x="597" y="111" on="0"/>
        <pt x="770" y="111" on="0"/>
        <pt x="888" y="153" on="0"/>
        <pt x="968" y="226" on="0"/>
        <pt x="1028" y="315" on="0"/>
        <pt x="1044" y="366" on="1"/>
        <pt x="1077" y="468" on="0"/>
        <pt x="1077" y="555" on="1"/>
        <pt x="684" y="555" on="1"/>
        <pt x="684" y="696" on="1"/>
        <pt x="1233" y="696" on="1"/>
        <pt x="1233" y="610" on="1"/>
        <pt x="1233" y="417" on="0"/>
        <pt x="1154" y="260" on="1"/>
        <pt x="1065" y="79" on="0"/>
        <pt x="904" y="10" on="1"/>
        <pt x="814" y="-29" on="0"/>
        <pt x="706" y="-29" on="1"/>
      </contour>
    </TTGlyph>
    <TTGlyph name="Gamma" xMin="121" yMin="0" xMax="1035" yMax="1456">
      <contour>
        <pt x="121" y="1456" on="1"/>
        <pt x="1035" y="1456" on="1"/>
        <pt x="1035" y="1315" on="1"/>
        <pt x="279" y="1315" on="1"/>
        <pt x="279" y="0" on="1"/>
        <pt x="121" y="0" on="1"/>
      </contour>
    </TTGlyph>
    <TTGlyph name="Gbreve" xMin="100" yMin="-29" xMax="1233" yMax="1838">
      <component glyphName="breve" x="0" y="0" flags="0x1004"/>
      <component glyphName="G" x="0" y="0" flags="0x1004"/>
    </TTGlyph>
    <TTGlyph name="Gcircumflex" xMin="100" yMin="-29" xMax="1233" yMax="1858">
      <component glyphName="circumflex" x="172" y="0" flags="0x1004"/>
      <component glyphName="G" x="0" y="0" flags="0x1004"/>
    </TTGlyph>
    <TTGlyph name="Gcommaaccent" xMin="100" yMin="-449" xMax="1233" yMax="1495">
      <component glyphName="comma" x="468" y="-228" flags="0x1004"/>
      <component glyphName="G" x="0" y="0" flags="0x1004"/>
    </TTGlyph>
    <TTGlyph name="Gdotaccent" xMin="100" yMin="-29" xMax="1233" yMax="1777">
      <component glyphName="dotaccent" x="531" y="0" flags="0x1004"/>
      <component glyphName="G" x="0" y="0" flags="0x1004"/>
    </TTGlyph>
    <TTGlyph name="Ghemiddlehookcyrillic" xMin="92" yMin="-449" xMax="1006" yMax="1456">
      <contour>
        <pt x="526" y="-315" on="1"/>
        <pt x="629" y="-315" on="0"/>
        <pt x="776" y="-168" on="0"/>
        <pt x="776" y="-33" on="1"/>
        <pt x="776" y="541" on="1"/>
        <pt x="776" y="841" on="0"/>
        <pt x="636" y="932" on="1"/>
        <pt x="585" y="965" on="0"/>
        <pt x="448" y="965" on="0"/>
        <pt x="396" y="930" on="1"/>
        <pt x="299" y="865" on="0"/>
        <pt x="268" y="703" on="1"/>
        <pt x="252" y="623" on="0"/>
        <pt x="252" y="540" on="1"/>
        <pt x="252" y="0" on="1"/>
        <pt x="92" y="0" on="1"/>
        <pt x="92" y="1456" on="1"/>
        <pt x="1006" y="1456" on="1"/>
        <pt x="1006" y="1315" on="1"/>
        <pt x="250" y="1315" on="1"/>
        <pt x="252" y="892" on="1"/>
        <pt x="281" y="982" on="0"/>
        <pt x="443" y="1102" on="0"/>
        <pt x="542" y="1102" on="1"/>
        <pt x="823" y="1102" on="0"/>
        <pt x="900" y="794" on="1"/>
        <pt x="927" y="686" on="0"/>
        <pt x="927" y="541" on="1"/>
        <pt x="927" y="1" on="1"/>
        <pt x="928" y="0" on="1"/>
        <pt x="928" y="-9" on="1"/>
        <pt x="928" y="-71" on="0"/>
        <pt x="893" y="-200" on="1"/>
        <pt x="874" y="-267" on="0"/>
        <pt x="804" y="-332" on="1"/>
        <pt x="679" y="-449" on="0"/>
        <pt x="526" y="-449" on="1"/>
        <pt x="522" y="-449" on="1"/>
        <pt x="523" y="-439" on="0"/>
      </contour>
    </TTGlyph>
    <TTGlyph name="Ghestrokecyrillic" xMin="92" yMin="0" xMax="1006" yMax="1456">
      <component glyphName="afii10020" x="0" y="0" flags="0x1004"/>
    </TTGlyph>
    <TTGlyph name="Gheupturncyrillic" xMin="92" yMin="0" xMax="1172" yMax="1780">
      <contour>
        <pt x="1063" y="1403" on="1"/>
        <pt x="1015" y="1409" on="0"/>
        <pt x="1015" y="1456" on="1"/>
        <pt x="1023" y="1712" on="1"/>
        <pt x="1028" y="1753" on="0"/>
        <pt x="1075" y="1780" on="0"/>
        <pt x="1102" y="1780" on="0"/>
        <pt x="1120" y="1778" on="1"/>
        <pt x="1141" y="1776" on="0"/>
        <pt x="1172" y="1726" on="0"/>
        <pt x="1172" y="1706" on="1"/>
        <pt x="1123" y="1445" on="1"/>
        <pt x="1114" y="1403" on="0"/>
        <pt x="1069" y="1403" on="1"/>
      </contour>
      <contour>
        <pt x="92" y="1456" on="1"/>
        <pt x="1006" y="1456" on="1"/>
        <pt x="1006" y="1315" on="1"/>
        <pt x="250" y="1315" on="1"/>
        <pt x="250" y="0" on="1"/>
        <pt x="92" y="0" on="1"/>
      </contour>
    </TTGlyph>
    <TTGlyph name="H" xMin="121" yMin="0" xMax="1098" yMax="1456">
      <contour>
        <pt x="121" y="1456" on="1"/>
        <pt x="279" y="1456" on="1"/>
        <pt x="279" y="815" on="1"/>
        <pt x="940" y="815" on="1"/>
        <pt x="940" y="1456" on="1"/>
        <pt x="1098" y="1456" on="1"/>
        <pt x="1098" y="0" on="1"/>
        <pt x="940" y="0" on="1"/>
        <pt x="940" y="674" on="1"/>
        <pt x="279" y="674" on="1"/>
        <pt x="279" y="0" on="1"/>
        <pt x="121" y="0" on="1"/>
      </contour>
    </TTGlyph>
    <TTGlyph name="Haabkhasiancyrillic" xMin="100" yMin="-29" xMax="1167" yMax="1495">
      <component glyphName="afii10035" x="0" y="0" flags="0x1004"/>
    </TTGlyph>
    <TTGlyph name="Hadescendercyrillic" xMin="74" yMin="0" xMax="1161" yMax="1456">
      <component glyphName="afii10039" x="0" y="0" flags="0x1004"/>
    </TTGlyph>
    <TTGlyph name="Hbar" xMin="42" yMin="0" xMax="1154" yMax="1456">
      <contour>
        <pt x="121" y="1456" on="1"/>
        <pt x="279" y="1456" on="1"/>
        <pt x="279" y="1071" on="1"/>
        <pt x="940" y="1071" on="1"/>
        <pt x="940" y="1456" on="1"/>
        <pt x="1098" y="1456" on="1"/>
        <pt x="1098" y="1071" on="1"/>
        <pt x="1154" y="1071" on="1"/>
        <pt x="1154" y="969" on="1"/>
        <pt x="1098" y="969" on="1"/>
        <pt x="1098" y="0" on="1"/>
        <pt x="940" y="0" on="1"/>
        <pt x="940" y="674" on="1"/>
        <pt x="279" y="674" on="1"/>
        <pt x="279" y="0" on="1"/>
        <pt x="121" y="0" on="1"/>
        <pt x="121" y="969" on="1"/>
        <pt x="42" y="969" on="1"/>
        <pt x="42" y="1071" on="1"/>
        <pt x="121" y="1071" on="1"/>
      </contour>
      <contour>
        <pt x="940" y="969" on="1"/>
        <pt x="279" y="969" on="1"/>
        <pt x="279" y="815" on="1"/>
        <pt x="940" y="815" on="1"/>
      </contour>
    </TTGlyph>
    <TTGlyph name="Hcircumflex" xMin="121" yMin="0" xMax="1098" yMax="1858">
      <component glyphName="circumflex" x="79" y="0" flags="0x1004"/>
      <component glyphName="H" x="0" y="0" flags="0x1004"/>
    </TTGlyph>
    <TTGlyph name="I" xMin="154" yMin="0" xMax="311" yMax="1456">
      <contour>
        <pt x="154" y="0" on="1"/>
        <pt x="154" y="1456" on="1"/>
        <pt x="311" y="1456" on="1"/>
        <pt x="311" y="0" on="1"/>
      </contour>
    </TTGlyph>
    <TTGlyph name="IJ" xMin="154" yMin="-29" xMax="1241" yMax="1464">
      <contour>
        <pt x="1241" y="1464" on="1"/>
        <pt x="1241" y="543" on="1"/>
        <pt x="1241" y="296" on="0"/>
        <pt x="1089" y="117" on="1"/>
        <pt x="1038" y="57" on="0"/>
        <pt x="898" y="-29" on="0"/>
        <pt x="800" y="-29" on="1"/>
        <pt x="616" y="-29" on="0"/>
        <pt x="519" y="104" on="1"/>
        <pt x="414" y="247" on="0"/>
        <pt x="414" y="532" on="1"/>
        <pt x="414" y="543" on="1"/>
        <pt x="565" y="543" on="1"/>
        <pt x="565" y="532" on="1"/>
        <pt x="565" y="232" on="0"/>
        <pt x="705" y="141" on="1"/>
        <pt x="756" y="108" on="0"/>
        <pt x="825" y="108" on="1"/>
        <pt x="960" y="108" on="0"/>
        <pt x="1026" y="236" on="1"/>
        <pt x="1089" y="356" on="0"/>
        <pt x="1089" y="533" on="1"/>
        <pt x="1089" y="1464" on="1"/>
      </contour>
      <contour>
        <pt x="154" y="0" on="1"/>
        <pt x="154" y="1456" on="1"/>
        <pt x="311" y="1456" on="1"/>
        <pt x="311" y="0" on="1"/>
      </contour>
    </TTGlyph>
    <TTGlyph name="Iacute" xMin="164" yMin="0" xMax="584" yMax="1944">
      <component glyphName="I" x="10" y="0" flags="0x1004"/>
      <component glyphName="acute" x="104" y="0" flags="0x1004"/>
    </TTGlyph>
    <TTGlyph name="Ibreve" xMin="-75" yMin="0" xMax="531" yMax="1838">
      <component glyphName="breve" x="-429" y="0" flags="0x1004"/>
      <component glyphName="I" x="0" y="0" flags="0x1004"/>
    </TTGlyph>
    <TTGlyph name="Icircumflex" xMin="-103" yMin="0" xMax="585" yMax="1894">
      <component glyphName="asciicircum" x="-236" y="401" flags="0x1004"/>
      <component glyphName="I" x="10" y="0" flags="0x1004"/>
    </TTGlyph>
    <TTGlyph name="Idieresis" xMin="-90" yMin="0" xMax="569" yMax="1780">
      <component glyphName="dieresis" x="-166" y="1" flags="0x1004"/>
      <component glyphName="I" x="10" y="0" flags="0x1004"/>
    </TTGlyph>
    <TTGlyph name="Idieresiscyrillic" xMin="121" yMin="0" xMax="1171" yMax="1779">
      <component glyphName="dieresis" x="242" y="0" flags="0x1004"/>
      <component glyphName="afii10026" x="0" y="0" flags="0x1004"/>
    </TTGlyph>
    <TTGlyph name="Idotaccent" xMin="135" yMin="0" xMax="323" yMax="1777">
      <component glyphName="dotaccent" x="59" y="0" flags="0x1004"/>
      <component glyphName="I" x="0" y="0" flags="0x1004"/>
    </TTGlyph>
    <TTGlyph name="Iebrevecyrillic" xMin="88" yMin="0" xMax="1010" yMax="1838">
      <component glyphName="breve" x="-104" y="0" flags="0x1004"/>
      <component glyphName="afii10022" x="0" y="0" flags="0x1004"/>
    </TTGlyph>
    <TTGlyph name="Ifraktur" xMin="34" yMin="-29" xMax="861" yMax="1456">
      <contour>
        <pt x="861" y="1456" on="1"/>
        <pt x="703" y="1088" on="0"/>
        <pt x="702" y="849" on="1"/>
        <pt x="702" y="806" on="0"/>
        <pt x="801" y="655" on="1"/>
        <pt x="860" y="566" on="0"/>
        <pt x="860" y="372" on="0"/>
        <pt x="748" y="124" on="0"/>
        <pt x="538" y="-29" on="0"/>
        <pt x="405" y="-29" on="1"/>
        <pt x="242" y="-29" on="0"/>
        <pt x="120" y="110" on="1"/>
        <pt x="88" y="147" on="0"/>
        <pt x="64" y="187" on="1"/>
        <pt x="186" y="264" on="1"/>
        <pt x="236" y="164" on="0"/>
        <pt x="322" y="124" on="1"/>
        <pt x="361" y="106" on="0"/>
        <pt x="405" y="106" on="1"/>
        <pt x="535" y="106" on="0"/>
        <pt x="623" y="224" on="1"/>
        <pt x="681" y="302" on="0"/>
        <pt x="701" y="414" on="1"/>
        <pt x="703" y="430" on="0"/>
        <pt x="703" y="440" on="1"/>
        <pt x="703" y="510" on="0"/>
        <pt x="657" y="600" on="1"/>
        <pt x="555" y="732" on="0"/>
        <pt x="552" y="852" on="1"/>
        <pt x="552" y="996" on="0"/>
        <pt x="658" y="1314" on="1"/>
        <pt x="34" y="1314" on="1"/>
        <pt x="34" y="1456" on="1"/>
      </contour>
    </TTGlyph>
    <TTGlyph name="Igrave" xMin="-112" yMin="0" xMax="311" yMax="1944">
      <component glyphName="I" x="0" y="0" flags="0x1004"/>
      <component glyphName="grave" x="-172" y="0" flags="0x1004"/>
    </TTGlyph>
    <TTGlyph name="Imacron" xMin="-118" yMin="0" xMax="559" yMax="1738">
      <component glyphName="macron" x="-306" y="417" flags="0x1004"/>
      <component glyphName="I" x="0" y="0" flags="0x1004"/>
    </TTGlyph>
    <TTGlyph name="Imacroncyrillic" xMin="121" yMin="0" xMax="1171" yMax="1456">
      <component glyphName="afii10026" x="0" y="0" flags="0x1004"/>
    </TTGlyph>
    <TTGlyph name="Iogonek" xMin="117" yMin="-315" xMax="369" yMax="1456">
      <component glyphName="ogonek" x="0" y="0" flags="0x1004"/>
      <component glyphName="I" x="0" y="0" flags="0x1004"/>
    </TTGlyph>
    <TTGlyph name="Iota" xMin="154" yMin="0" xMax="311" yMax="1456">
      <contour>
        <pt x="154" y="0" on="1"/>
        <pt x="154" y="1456" on="1"/>
        <pt x="311" y="1456" on="1"/>
        <pt x="311" y="0" on="1"/>
      </contour>
    </TTGlyph>
    <TTGlyph name="Iotaacute" xMin="19" yMin="4" xMax="597" yMax="1780">
      <component glyphName="acute" x="-41" y="-164" flags="0x1004"/>
      <component glyphName="Iota" x="286" y="4" flags="0x1004"/>
    </TTGlyph>
    <TTGlyph name="Iotaasper" xMin="19" yMin="0" xMax="419" yMax="1779">
      <component glyphName="asper" x="-81" y="0" flags="0x1004"/>
      <component glyphName="Iota" x="108" y="0" flags="0x1004"/>
    </TTGlyph>
    <TTGlyph name="Iotaasperacute" xMin="19" yMin="0" xMax="719" yMax="1780">
      <component glyphName="asper" x="-81" y="0" flags="0x1004"/>
      <component glyphName="acute" x="185" y="-164" flags="0x1004"/>
      <component glyphName="Iota" x="408" y="0" flags="0x1004"/>
    </TTGlyph>
    <TTGlyph name="Iotaaspergrave" xMin="19" yMin="-4" xMax="895" yMax="1780">
      <component glyphName="asper" x="-81" y="0" flags="0x1004"/>
      <component glyphName="grave" x="198" y="-164" flags="0x1004"/>
      <component glyphName="Iota" x="584" y="-4" flags="0x1004"/>
    </TTGlyph>
    <TTGlyph name="Iotaaspertilde" xMin="19" yMin="0" xMax="922" yMax="1779">
      <component glyphName="asper" x="-81" y="0" flags="0x1004"/>
      <component glyphName="tilde" x="222" y="918" flags="0x1004"/>
      <component glyphName="Iota" x="540" y="0" flags="0x1004"/>
    </TTGlyph>
    <TTGlyph name="Iotabreve" xMin="-66" yMin="0" xMax="540" yMax="1835">
      <component glyphName="breve" x="-420" y="-3" flags="0x1004"/>
      <component glyphName="Iota" x="0" y="0" flags="0x1004"/>
    </TTGlyph>
    <TTGlyph name="Iotadieresis" xMin="-99" yMin="0" xMax="560" yMax="1779">
      <contour>
        <pt x="154" y="0" on="1"/>
        <pt x="154" y="1456" on="1"/>
        <pt x="311" y="1456" on="1"/>
        <pt x="311" y="0" on="1"/>
      </contour>
      <contour>
        <pt x="372" y="1685" on="1"/>
        <pt x="372" y="1723" on="0"/>
        <pt x="428" y="1779" on="0"/>
        <pt x="500" y="1779" on="0"/>
        <pt x="525" y="1758" on="1"/>
        <pt x="560" y="1729" on="0"/>
        <pt x="560" y="1646" on="0"/>
        <pt x="504" y="1590" on="0"/>
        <pt x="434" y="1590" on="0"/>
        <pt x="382" y="1633" on="0"/>
        <pt x="372" y="1682" on="0"/>
      </contour>
      <contour>
        <pt x="89" y="1644" on="0"/>
        <pt x="33" y="1588" on="0"/>
        <pt x="-37" y="1588" on="0"/>
        <pt x="-90" y="1631" on="0"/>
        <pt x="-99" y="1672" on="0"/>
        <pt x="-99" y="1721" on="0"/>
        <pt x="-43" y="1777" on="0"/>
        <pt x="29" y="1777" on="0"/>
        <pt x="54" y="1756" on="1"/>
        <pt x="89" y="1727" on="0"/>
      </contour>
    </TTGlyph>
    <TTGlyph name="Iotagrave" xMin="19" yMin="0" xMax="647" yMax="1779">
      <component glyphName="grave" x="-41" y="-165" flags="0x1004"/>
      <component glyphName="Iota" x="336" y="0" flags="0x1004"/>
    </TTGlyph>
    <TTGlyph name="Iotalenis" xMin="16" yMin="0" xMax="388" yMax="1779">
      <component glyphName="lenis" x="-84" y="0" flags="0x1004"/>
      <component glyphName="Iota" x="77" y="0" flags="0x1004"/>
    </TTGlyph>
    <TTGlyph name="Iotalenisacute" xMin="19" yMin="0" xMax="682" yMax="1781">
      <component glyphName="lenis" x="-81" y="2" flags="0x1004"/>
      <component glyphName="acute" x="202" y="-164" flags="0x1004"/>
      <component glyphName="Iota" x="328" y="0" flags="0x1004"/>
    </TTGlyph>
    <TTGlyph name="Iotalenisgrave" xMin="19" yMin="0" xMax="700" yMax="1780">
      <component glyphName="lenis" x="-81" y="1" flags="0x1004"/>
      <component glyphName="grave" x="220" y="-169" flags="0x1004"/>
      <component glyphName="Iota" x="96" y="0" flags="0x1004"/>
    </TTGlyph>
    <TTGlyph name="Iotalenistilde" xMin="19" yMin="-6" xMax="898" yMax="1779">
      <component glyphName="tilde" x="198" y="918" flags="0x1004"/>
      <component glyphName="lenis" x="-81" y="0" flags="0x1004"/>
      <component glyphName="Iota" x="498" y="-6" flags="0x1004"/>
    </TTGlyph>
    <TTGlyph name="Iotamacron" xMin="-117" yMin="0" xMax="560" yMax="1702">
      <component glyphName="macron" x="-305" y="381" flags="0x1004"/>
      <component glyphName="Iota" x="0" y="0" flags="0x1004"/>
    </TTGlyph>
    <TTGlyph name="Iotatonos" xMin="31" yMin="0" xMax="381" yMax="1778">
      <contour>
        <pt x="224" y="0" on="1"/>
        <pt x="224" y="1456" on="1"/>
        <pt x="381" y="1456" on="1"/>
        <pt x="381" y="0" on="1"/>
      </contour>
      <contour>
        <pt x="79" y="1401" on="1"/>
        <pt x="31" y="1407" on="0"/>
        <pt x="31" y="1454" on="1"/>
        <pt x="39" y="1710" on="1"/>
        <pt x="44" y="1751" on="0"/>
        <pt x="91" y="1778" on="0"/>
        <pt x="118" y="1778" on="0"/>
        <pt x="136" y="1776" on="1"/>
        <pt x="157" y="1774" on="0"/>
        <pt x="188" y="1724" on="0"/>
        <pt x="188" y="1704" on="1"/>
        <pt x="139" y="1443" on="1"/>
        <pt x="130" y="1401" on="0"/>
        <pt x="85" y="1401" on="1"/>
      </contour>
    </TTGlyph>
    <TTGlyph name="Itilde" xMin="-42" yMin="0" xMax="595" yMax="1907">
      <component glyphName="tilde" x="-105" y="1047" flags="0x1004"/>
      <component glyphName="I" x="0" y="0" flags="0x1004"/>
    </TTGlyph>
    <TTGlyph name="J" xMin="113" yMin="-29" xMax="1028" yMax="1456">
      <contour>
        <pt x="113" y="535" on="1"/>
        <pt x="254" y="535" on="1"/>
        <pt x="254" y="343" on="0"/>
        <pt x="373" y="211" on="1"/>
        <pt x="454" y="121" on="0"/>
        <pt x="657" y="121" on="0"/>
        <pt x="728" y="184" on="1"/>
        <pt x="870" y="307" on="0"/>
        <pt x="870" y="535" on="1"/>
        <pt x="870" y="1456" on="1"/>
        <pt x="1028" y="1456" on="1"/>
        <pt x="1028" y="535" on="1"/>
        <pt x="1028" y="289" on="0"/>
        <pt x="770" y="-29" on="0"/>
        <pt x="565" y="-29" on="1"/>
        <pt x="400" y="-29" on="0"/>
        <pt x="284" y="84" on="1"/>
        <pt x="113" y="251" on="0"/>
      </contour>
    </TTGlyph>
    <TTGlyph name="Jcircumflex" xMin="113" yMin="-29" xMax="1291" yMax="1858">
      <component glyphName="circumflex" x="417" y="0" flags="0x1004"/>
      <component glyphName="J" x="0" y="0" flags="0x1004"/>
    </TTGlyph>
    <TTGlyph name="K" xMin="121" yMin="0" xMax="1235" yMax="1456">
      <contour>
        <pt x="121" y="1456" on="1"/>
        <pt x="279" y="1456" on="1"/>
        <pt x="279" y="702" on="1"/>
        <pt x="1026" y="1456" on="1"/>
        <pt x="1219" y="1456" on="1"/>
        <pt x="571" y="803" on="1"/>
        <pt x="1235" y="0" on="1"/>
        <pt x="1028" y="0" on="1"/>
        <pt x="467" y="702" on="1"/>
        <pt x="279" y="516" on="1"/>
        <pt x="279" y="0" on="1"/>
        <pt x="121" y="0" on="1"/>
      </contour>
    </TTGlyph>
    <TTGlyph name="Kabashkircyrillic" xMin="121" yMin="0" xMax="1235" yMax="1456">
      <component glyphName="afii10028" x="0" y="0" flags="0x1004"/>
    </TTGlyph>
    <TTGlyph name="Kadescendercyrillic" xMin="121" yMin="0" xMax="1235" yMax="1456">
      <component glyphName="afii10028" x="0" y="0" flags="0x1004"/>
    </TTGlyph>
    <TTGlyph name="Kahookcyrillic" xMin="121" yMin="0" xMax="1235" yMax="1456">
      <component glyphName="afii10028" x="0" y="0" flags="0x1004"/>
    </TTGlyph>
    <TTGlyph name="Kappa" xMin="121" yMin="0" xMax="1235" yMax="1456">
      <contour>
        <pt x="121" y="1456" on="1"/>
        <pt x="279" y="1456" on="1"/>
        <pt x="279" y="702" on="1"/>
        <pt x="1026" y="1456" on="1"/>
        <pt x="1219" y="1456" on="1"/>
        <pt x="571" y="803" on="1"/>
        <pt x="1235" y="0" on="1"/>
        <pt x="1028" y="0" on="1"/>
        <pt x="467" y="702" on="1"/>
        <pt x="279" y="516" on="1"/>
        <pt x="279" y="0" on="1"/>
        <pt x="121" y="0" on="1"/>
      </contour>
    </TTGlyph>
    <TTGlyph name="Kastrokecyrillic" xMin="121" yMin="0" xMax="1235" yMax="1456">
      <component glyphName="afii10028" x="0" y="0" flags="0x1004"/>
    </TTGlyph>
    <TTGlyph name="Kaverticalstrokecyrillic" xMin="121" yMin="0" xMax="1235" yMax="1456">
      <component glyphName="afii10028" x="0" y="0" flags="0x1004"/>
    </TTGlyph>
    <TTGlyph name="Kcommaaccent" xMin="121" yMin="-446" xMax="1235" yMax="1456">
      <component glyphName="comma" x="326" y="-225" flags="0x1004"/>
      <component glyphName="K" x="0" y="0" flags="0x1004"/>
    </TTGlyph>
    <TTGlyph name="L" xMin="121" yMin="0" xMax="1044" yMax="1456">
      <contour>
        <pt x="121" y="1456" on="1"/>
        <pt x="279" y="1456" on="1"/>
        <pt x="279" y="141" on="1"/>
        <pt x="1044" y="141" on="1"/>
        <pt x="1044" y="0" on="1"/>
        <pt x="121" y="0" on="1"/>
      </contour>
    </TTGlyph>
    <TTGlyph name="Lacute" xMin="119" yMin="0" xMax="1044" yMax="1944">
      <component glyphName="acute" x="59" y="0" flags="0x1004"/>
      <component glyphName="L" x="0" y="0" flags="0x1004"/>
    </TTGlyph>
    <TTGlyph name="Lambda" xMin="123" yMin="0" xMax="1229" yMax="1456">
      <contour>
        <pt x="1065" y="0" on="1"/>
        <pt x="678" y="1288" on="1"/>
        <pt x="293" y="0" on="1"/>
        <pt x="123" y="0" on="1"/>
        <pt x="569" y="1456" on="1"/>
        <pt x="788" y="1456" on="1"/>
        <pt x="1229" y="0" on="1"/>
      </contour>
    </TTGlyph>
    <TTGlyph name="Lcaron" xMin="121" yMin="0" xMax="1044" yMax="1514">
      <contour>
        <pt x="488" y="1428" on="1"/>
        <pt x="488" y="1349" on="0"/>
        <pt x="472" y="1310" on="1"/>
        <pt x="440" y="1236" on="0"/>
        <pt x="418" y="1199" on="1"/>
        <pt x="403" y="1176" on="1"/>
        <pt x="364" y="1200" on="1"/>
        <pt x="414" y="1281" on="0"/>
        <pt x="414" y="1343" on="1"/>
        <pt x="386" y="1343" on="0"/>
        <pt x="366" y="1362" on="1"/>
        <pt x="338" y="1389" on="0"/>
        <pt x="338" y="1463" on="0"/>
        <pt x="383" y="1514" on="0"/>
        <pt x="440" y="1514" on="0"/>
        <pt x="488" y="1470" on="0"/>
        <pt x="488" y="1441" on="1"/>
      </contour>
      <contour>
        <pt x="121" y="1456" on="1"/>
        <pt x="279" y="1456" on="1"/>
        <pt x="279" y="141" on="1"/>
        <pt x="1044" y="141" on="1"/>
        <pt x="1044" y="0" on="1"/>
        <pt x="121" y="0" on="1"/>
      </contour>
    </TTGlyph>
    <TTGlyph name="Lcommaaccent" xMin="121" yMin="-446" xMax="1044" yMax="1456">
      <component glyphName="comma" x="330" y="-225" flags="0x1004"/>
      <component glyphName="L" x="0" y="0" flags="0x1004"/>
    </TTGlyph>
    <TTGlyph name="Ldot" xMin="121" yMin="0" xMax="1044" yMax="1456">
      <component glyphName="periodcentered" x="410" y="0" flags="0x1004"/>
      <component glyphName="L" x="0" y="0" flags="0x1004"/>
    </TTGlyph>
    <TTGlyph name="Lslash" xMin="17" yMin="0" xMax="1044" yMax="1456">
      <contour>
        <pt x="17" y="510" on="1"/>
        <pt x="18" y="712" on="1"/>
        <pt x="121" y="816" on="1"/>
        <pt x="121" y="1456" on="1"/>
        <pt x="279" y="1456" on="1"/>
        <pt x="279" y="976" on="1"/>
        <pt x="404" y="1102" on="1"/>
        <pt x="405" y="894" on="1"/>
        <pt x="279" y="769" on="1"/>
        <pt x="279" y="141" on="1"/>
        <pt x="1044" y="141" on="1"/>
        <pt x="1044" y="0" on="1"/>
        <pt x="121" y="0" on="1"/>
        <pt x="121" y="613" on="1"/>
      </contour>
    </TTGlyph>
    <TTGlyph name="M" xMin="121" yMin="0" xMax="1462" yMax="1456">
      <contour>
        <pt x="121" y="0" on="1"/>
        <pt x="121" y="1456" on="1"/>
        <pt x="336" y="1456" on="1"/>
        <pt x="795" y="209" on="1"/>
        <pt x="1255" y="1456" on="1"/>
        <pt x="1462" y="1456" on="1"/>
        <pt x="1462" y="0" on="1"/>
        <pt x="1309" y="0" on="1"/>
        <pt x="1309" y="1204" on="1"/>
        <pt x="881" y="16" on="1"/>
        <pt x="702" y="16" on="1"/>
        <pt x="274" y="1204" on="1"/>
        <pt x="274" y="0" on="1"/>
      </contour>
    </TTGlyph>
    <TTGlyph name="Mdotaccent" xMin="121" yMin="0" xMax="1462" yMax="1777">
      <component glyphName="dotaccent" x="616" y="0" flags="0x1004"/>
      <component glyphName="M" x="0" y="0" flags="0x1004"/>
    </TTGlyph>
    <TTGlyph name="Mu" xMin="121" yMin="0" xMax="1462" yMax="1456">
      <contour>
        <pt x="121" y="0" on="1"/>
        <pt x="121" y="1456" on="1"/>
        <pt x="336" y="1456" on="1"/>
        <pt x="795" y="209" on="1"/>
        <pt x="1255" y="1456" on="1"/>
        <pt x="1462" y="1456" on="1"/>
        <pt x="1462" y="0" on="1"/>
        <pt x="1309" y="0" on="1"/>
        <pt x="1309" y="1204" on="1"/>
        <pt x="881" y="16" on="1"/>
        <pt x="702" y="16" on="1"/>
        <pt x="274" y="1204" on="1"/>
        <pt x="274" y="0" on="1"/>
      </contour>
    </TTGlyph>
    <TTGlyph name="N" xMin="121" yMin="0" xMax="1171" yMax="1456">
      <contour>
        <pt x="121" y="0" on="1"/>
        <pt x="121" y="1456" on="1"/>
        <pt x="274" y="1456" on="1"/>
        <pt x="1014" y="295" on="1"/>
        <pt x="1014" y="1456" on="1"/>
        <pt x="1171" y="1456" on="1"/>
        <pt x="1171" y="0" on="1"/>
        <pt x="1026" y="0" on="1"/>
        <pt x="279" y="1190" on="1"/>
        <pt x="279" y="0" on="1"/>
      </contour>
    </TTGlyph>
    <TTGlyph name="Nacute" xMin="121" yMin="0" xMax="1171" yMax="1944">
      <component glyphName="acute" x="452" y="0" flags="0x1004"/>
      <component glyphName="N" x="0" y="0" flags="0x1004"/>
    </TTGlyph>
    <TTGlyph name="Ncaron" xMin="121" yMin="0" xMax="1171" yMax="1858">
      <component glyphName="caron" x="116" y="0" flags="0x1004"/>
      <component glyphName="N" x="0" y="0" flags="0x1004"/>
    </TTGlyph>
    <TTGlyph name="Ncommaaccent" xMin="121" yMin="-449" xMax="1171" yMax="1456">
      <component glyphName="comma" x="374" y="-228" flags="0x1004"/>
      <component glyphName="N" x="0" y="0" flags="0x1004"/>
    </TTGlyph>
    <TTGlyph name="Ntilde" xMin="131" yMin="0" xMax="1181" yMax="1845">
      <component glyphName="asciitilde" x="299" y="985" flags="0x1004"/>
      <component glyphName="N" x="10" y="0" flags="0x1004"/>
    </TTGlyph>
    <TTGlyph name="Nu" xMin="121" yMin="0" xMax="1171" yMax="1456">
      <contour>
        <pt x="121" y="0" on="1"/>
        <pt x="121" y="1456" on="1"/>
        <pt x="274" y="1456" on="1"/>
        <pt x="1014" y="295" on="1"/>
        <pt x="1014" y="1456" on="1"/>
        <pt x="1171" y="1456" on="1"/>
        <pt x="1171" y="0" on="1"/>
        <pt x="1026" y="0" on="1"/>
        <pt x="279" y="1190" on="1"/>
        <pt x="279" y="0" on="1"/>
      </contour>
    </TTGlyph>
    <TTGlyph name="O" xMin="92" yMin="-29" xMax="1262" yMax="1495">
      <contour>
        <pt x="1071" y="476" on="0"/>
        <pt x="1096" y="640" on="0"/>
        <pt x="1096" y="843" on="0"/>
        <pt x="1055" y="1035" on="0"/>
        <pt x="994" y="1173" on="0"/>
        <pt x="947" y="1231" on="1"/>
        <pt x="847" y="1354" on="0"/>
        <pt x="676" y="1354" on="1"/>
        <pt x="583" y="1354" on="0"/>
        <pt x="435" y="1274" on="0"/>
        <pt x="343" y="1147" on="0"/>
        <pt x="312" y="1062" on="1"/>
        <pt x="258" y="912" on="0"/>
        <pt x="258" y="614" on="0"/>
        <pt x="297" y="425" on="0"/>
        <pt x="358" y="290" on="0"/>
        <pt x="405" y="234" on="1"/>
        <pt x="505" y="113" on="0"/>
        <pt x="676" y="113" on="1"/>
        <pt x="769" y="113" on="0"/>
        <pt x="917" y="190" on="0"/>
        <pt x="1009" y="312" on="0"/>
      </contour>
      <contour>
        <pt x="224" y="217" on="0"/>
        <pt x="138" y="401" on="0"/>
        <pt x="92" y="614" on="0"/>
        <pt x="92" y="826" on="0"/>
        <pt x="130" y="1032" on="0"/>
        <pt x="220" y="1238" on="0"/>
        <pt x="350" y="1396" on="0"/>
        <pt x="553" y="1495" on="0"/>
        <pt x="797" y="1495" on="0"/>
        <pt x="995" y="1403" on="0"/>
        <pt x="1062" y="1324" on="1"/>
        <pt x="1191" y="1170" on="0"/>
        <pt x="1238" y="950" on="1"/>
        <pt x="1262" y="834" on="0"/>
        <pt x="1262" y="625" on="0"/>
        <pt x="1223" y="423" on="0"/>
        <pt x="1133" y="221" on="0"/>
        <pt x="1002" y="67" on="0"/>
        <pt x="799" y="-29" on="0"/>
        <pt x="556" y="-29" on="0"/>
        <pt x="358" y="61" on="0"/>
      </contour>
    </TTGlyph>
    <TTGlyph name="OE" xMin="92" yMin="-29" xMax="1462" yMax="1495">
      <contour>
        <pt x="702" y="1495" on="1"/>
        <pt x="851" y="1495" on="0"/>
        <pt x="890" y="1456" on="1"/>
        <pt x="1462" y="1456" on="1"/>
        <pt x="1462" y="1315" on="1"/>
        <pt x="1002" y="1315" on="1"/>
        <pt x="1002" y="817" on="1"/>
        <pt x="1419" y="817" on="1"/>
        <pt x="1419" y="676" on="1"/>
        <pt x="1002" y="676" on="1"/>
        <pt x="1002" y="141" on="1"/>
        <pt x="1462" y="141" on="1"/>
        <pt x="1462" y="0" on="1"/>
        <pt x="854" y="0" on="1"/>
        <pt x="770" y="-29" on="0"/>
        <pt x="556" y="-29" on="0"/>
        <pt x="458" y="16" on="1"/>
        <pt x="282" y="96" on="0"/>
        <pt x="92" y="497" on="0"/>
        <pt x="92" y="943" on="0"/>
        <pt x="181" y="1150" on="1"/>
        <pt x="330" y="1495" on="0"/>
      </contour>
      <contour>
        <pt x="844" y="152" on="1"/>
        <pt x="844" y="1315" on="1"/>
        <pt x="840" y="1319" on="0"/>
        <pt x="831" y="1322" on="1"/>
        <pt x="764" y="1354" on="0"/>
        <pt x="582" y="1354" on="0"/>
        <pt x="509" y="1314" on="1"/>
        <pt x="375" y="1241" on="0"/>
        <pt x="312" y="1062" on="1"/>
        <pt x="258" y="911" on="0"/>
        <pt x="258" y="761" on="1"/>
        <pt x="258" y="415" on="0"/>
        <pt x="405" y="234" on="1"/>
        <pt x="503" y="113" on="0"/>
        <pt x="676" y="113" on="1"/>
        <pt x="778" y="113" on="0"/>
        <pt x="843" y="152" on="1"/>
      </contour>
    </TTGlyph>
    <TTGlyph name="Oacute" xMin="92" yMin="-29" xMax="1262" yMax="1944">
      <component glyphName="O" x="0" y="0" flags="0x1004"/>
      <component glyphName="acute" x="516" y="0" flags="0x1004"/>
    </TTGlyph>
    <TTGlyph name="Obarredcyrillic" xMin="92" yMin="-29" xMax="1262" yMax="1495">
      <contour>
        <pt x="181" y="309" on="1"/>
        <pt x="92" y="497" on="0"/>
        <pt x="92" y="722" on="1"/>
        <pt x="92" y="943" on="0"/>
        <pt x="175" y="1135" on="1"/>
        <pt x="271" y="1358" on="0"/>
        <pt x="452" y="1446" on="1"/>
        <pt x="553" y="1495" on="0"/>
        <pt x="798" y="1495" on="0"/>
        <pt x="897" y="1448" on="1"/>
        <pt x="1072" y="1366" on="0"/>
        <pt x="1172" y="1151" on="1"/>
        <pt x="1262" y="959" on="0"/>
        <pt x="1262" y="725" on="1"/>
        <pt x="1262" y="509" on="0"/>
        <pt x="1178" y="322" on="1"/>
        <pt x="1131" y="217" on="0"/>
        <pt x="1001" y="67" on="0"/>
        <pt x="798" y="-29" on="0"/>
        <pt x="677" y="-29" on="1"/>
        <pt x="341" y="-29" on="0"/>
      </contour>
      <contour>
        <pt x="1095" y="669" on="1"/>
        <pt x="259" y="669" on="1"/>
        <pt x="274" y="395" on="0"/>
        <pt x="405" y="234" on="1"/>
        <pt x="503" y="113" on="0"/>
        <pt x="676" y="113" on="1"/>
        <pt x="770" y="113" on="0"/>
        <pt x="918" y="192" on="0"/>
        <pt x="1008" y="311" on="0"/>
        <pt x="1073" y="479" on="0"/>
        <pt x="1092" y="604" on="0"/>
      </contour>
      <contour>
        <pt x="261" y="811" on="1"/>
        <pt x="1093" y="811" on="1"/>
        <pt x="1078" y="981" on="0"/>
        <pt x="995" y="1171" on="0"/>
        <pt x="948" y="1230" on="1"/>
        <pt x="848" y="1354" on="0"/>
        <pt x="676" y="1354" on="1"/>
        <pt x="495" y="1354" on="0"/>
        <pt x="389" y="1210" on="1"/>
        <pt x="280" y="1064" on="0"/>
      </contour>
    </TTGlyph>
    <TTGlyph name="Obarreddieresiscyrillic" xMin="92" yMin="-29" xMax="1262" yMax="1779">
      <contour>
        <pt x="181" y="309" on="1"/>
        <pt x="92" y="497" on="0"/>
        <pt x="92" y="722" on="1"/>
        <pt x="92" y="943" on="0"/>
        <pt x="175" y="1135" on="1"/>
        <pt x="271" y="1358" on="0"/>
        <pt x="452" y="1446" on="1"/>
        <pt x="553" y="1495" on="0"/>
        <pt x="798" y="1495" on="0"/>
        <pt x="897" y="1448" on="1"/>
        <pt x="1072" y="1366" on="0"/>
        <pt x="1172" y="1151" on="1"/>
        <pt x="1262" y="959" on="0"/>
        <pt x="1262" y="725" on="1"/>
        <pt x="1262" y="509" on="0"/>
        <pt x="1178" y="322" on="1"/>
        <pt x="1131" y="217" on="0"/>
        <pt x="1001" y="67" on="0"/>
        <pt x="798" y="-29" on="0"/>
        <pt x="677" y="-29" on="1"/>
        <pt x="341" y="-29" on="0"/>
      </contour>
      <contour>
        <pt x="1095" y="669" on="1"/>
        <pt x="259" y="669" on="1"/>
        <pt x="274" y="395" on="0"/>
        <pt x="405" y="234" on="1"/>
        <pt x="503" y="113" on="0"/>
        <pt x="676" y="113" on="1"/>
        <pt x="770" y="113" on="0"/>
        <pt x="918" y="192" on="0"/>
        <pt x="1008" y="311" on="0"/>
        <pt x="1073" y="479" on="0"/>
        <pt x="1092" y="604" on="0"/>
      </contour>
      <contour>
        <pt x="261" y="811" on="1"/>
        <pt x="1093" y="811" on="1"/>
        <pt x="1078" y="981" on="0"/>
        <pt x="995" y="1171" on="0"/>
        <pt x="948" y="1230" on="1"/>
        <pt x="848" y="1354" on="0"/>
        <pt x="676" y="1354" on="1"/>
        <pt x="495" y="1354" on="0"/>
        <pt x="389" y="1210" on="1"/>
        <pt x="280" y="1064" on="0"/>
      </contour>
      <contour>
        <pt x="820" y="1685" on="1"/>
        <pt x="820" y="1723" on="0"/>
        <pt x="876" y="1779" on="0"/>
        <pt x="948" y="1779" on="0"/>
        <pt x="973" y="1758" on="1"/>
        <pt x="1008" y="1729" on="0"/>
        <pt x="1008" y="1646" on="0"/>
        <pt x="952" y="1590" on="0"/>
        <pt x="882" y="1590" on="0"/>
        <pt x="830" y="1633" on="0"/>
        <pt x="820" y="1682" on="0"/>
      </contour>
      <contour>
        <pt x="537" y="1644" on="0"/>
        <pt x="481" y="1588" on="0"/>
        <pt x="411" y="1588" on="0"/>
        <pt x="358" y="1631" on="0"/>
        <pt x="349" y="1672" on="0"/>
        <pt x="349" y="1721" on="0"/>
        <pt x="405" y="1777" on="0"/>
        <pt x="477" y="1777" on="0"/>
        <pt x="502" y="1756" on="1"/>
        <pt x="537" y="1727" on="0"/>
      </contour>
    </TTGlyph>
    <TTGlyph name="Obreve" xMin="92" yMin="-29" xMax="1262" yMax="1838">
      <component glyphName="breve" x="0" y="0" flags="0x1004"/>
      <component glyphName="O" x="0" y="0" flags="0x1004"/>
    </TTGlyph>
    <TTGlyph name="Ocircumflex" xMin="102" yMin="-29" xMax="1272" yMax="1907">
      <component glyphName="asciicircum" x="209" y="414" flags="0x1004"/>
      <component glyphName="O" x="10" y="0" flags="0x1004"/>
    </TTGlyph>
    <TTGlyph name="Odieresis" xMin="102" yMin="-29" xMax="1272" yMax="1783">
      <component glyphName="dieresis" x="264" y="4" flags="0x1004"/>
      <component glyphName="O" x="10" y="0" flags="0x1004"/>
    </TTGlyph>
    <TTGlyph name="Odieresiscyrillic" xMin="92" yMin="-29" xMax="1262" yMax="1779">
      <component glyphName="O" x="0" y="0" flags="0x1004"/>
      <component glyphName="dieresis" x="258" y="0" flags="0x1004"/>
    </TTGlyph>
    <TTGlyph name="Ograve" xMin="92" yMin="-29" xMax="1262" yMax="1944">
      <component glyphName="O" x="0" y="0" flags="0x1004"/>
      <component glyphName="grave" x="236" y="0" flags="0x1004"/>
    </TTGlyph>
    <TTGlyph name="Ohungarumlaut" xMin="92" yMin="-29" xMax="1262" yMax="1942">
      <component glyphName="hungarumlaut" x="0" y="0" flags="0x1004"/>
      <component glyphName="O" x="0" y="0" flags="0x1004"/>
    </TTGlyph>
    <TTGlyph name="Omacron" xMin="92" yMin="-29" xMax="1262" yMax="1738">
      <component glyphName="macron" x="153" y="417" flags="0x1004"/>
      <component glyphName="O" x="0" y="0" flags="0x1004"/>
    </TTGlyph>
    <TTGlyph name="Omega" xMin="25" yMin="0" xMax="1333" yMax="1495">
      <contour>
        <pt x="818" y="142" on="1"/>
        <pt x="1096" y="290" on="0"/>
        <pt x="1096" y="725" on="1"/>
        <pt x="1096" y="1045" on="0"/>
        <pt x="947" y="1231" on="1"/>
        <pt x="848" y="1354" on="0"/>
        <pt x="676" y="1354" on="1"/>
        <pt x="495" y="1354" on="0"/>
        <pt x="389" y="1210" on="1"/>
        <pt x="258" y="1034" on="0"/>
        <pt x="258" y="725" on="1"/>
        <pt x="258" y="394" on="0"/>
        <pt x="414" y="232" on="1"/>
        <pt x="471" y="174" on="0"/>
        <pt x="540" y="142" on="1"/>
        <pt x="541" y="142" on="1"/>
        <pt x="541" y="0" on="1"/>
        <pt x="25" y="0" on="1"/>
        <pt x="26" y="142" on="1"/>
        <pt x="288" y="142" on="1"/>
        <pt x="162" y="288" on="0"/>
        <pt x="115" y="508" on="1"/>
        <pt x="92" y="617" on="0"/>
        <pt x="92" y="722" on="1"/>
        <pt x="92" y="943" on="0"/>
        <pt x="175" y="1135" on="1"/>
        <pt x="271" y="1358" on="0"/>
        <pt x="452" y="1446" on="1"/>
        <pt x="553" y="1495" on="0"/>
        <pt x="798" y="1495" on="0"/>
        <pt x="897" y="1448" on="1"/>
        <pt x="1072" y="1366" on="0"/>
        <pt x="1172" y="1151" on="1"/>
        <pt x="1262" y="959" on="0"/>
        <pt x="1262" y="725" on="1"/>
        <pt x="1262" y="509" on="0"/>
        <pt x="1178" y="322" on="1"/>
        <pt x="1131" y="216" on="0"/>
        <pt x="1057" y="142" on="1"/>
        <pt x="1333" y="142" on="1"/>
        <pt x="1333" y="0" on="1"/>
        <pt x="818" y="0" on="1"/>
      </contour>
    </TTGlyph>
    <TTGlyph name="Omegaacute" xMin="19" yMin="0" xMax="1333" yMax="1780">
      <component glyphName="acute" x="-41" y="-164" flags="0x1004"/>
      <component glyphName="Omega" x="0" y="0" flags="0x1004"/>
    </TTGlyph>
    <TTGlyph name="Omegaasper" xMin="19" yMin="0" xMax="1333" yMax="1779">
      <component glyphName="asper" x="-81" y="0" flags="0x1004"/>
      <component glyphName="Omega" x="0" y="0" flags="0x1004"/>
    </TTGlyph>
    <TTGlyph name="Omegaasperacute" xMin="19" yMin="0" xMax="1478" yMax="1780">
      <component glyphName="acute" x="191" y="-164" flags="0x1004"/>
      <component glyphName="asper" x="-81" y="0" flags="0x1004"/>
      <component glyphName="Omega" x="145" y="0" flags="0x1004"/>
    </TTGlyph>
    <TTGlyph name="Omegaaspergrave" xMin="19" yMin="8" xMax="1725" yMax="1780">
      <component glyphName="asper" x="-81" y="0" flags="0x1004"/>
      <component glyphName="grave" x="216" y="-164" flags="0x1004"/>
      <component glyphName="Omega" x="392" y="8" flags="0x1004"/>
    </TTGlyph>
    <TTGlyph name="Omegaaspertilde" xMin="19" yMin="0" xMax="1777" yMax="1780">
      <component glyphName="tilde" x="200" y="920" flags="0x1004"/>
      <component glyphName="asper" x="-81" y="0" flags="0x1004"/>
      <component glyphName="Omega" x="444" y="0" flags="0x1004"/>
    </TTGlyph>
    <TTGlyph name="Omegagrave" xMin="19" yMin="0" xMax="1453" yMax="1780">
      <component glyphName="grave" x="-41" y="-164" flags="0x1004"/>
      <component glyphName="Omega" x="120" y="0" flags="0x1004"/>
    </TTGlyph>
    <TTGlyph name="Omegaiotasub" xMin="25" yMin="-396" xMax="1333" yMax="1495">
      <component glyphName="iotasubscript" x="17" y="0" flags="0x1004"/>
      <component glyphName="Omega" x="0" y="0" flags="0x1004"/>
    </TTGlyph>
    <TTGlyph name="Omegaiotasubasper" xMin="19" yMin="-396" xMax="1333" yMax="1779">
      <component glyphName="asper" x="-81" y="0" flags="0x1004"/>
      <component glyphName="iotasubscript" x="0" y="0" flags="0x1004"/>
      <component glyphName="Omega" x="0" y="0" flags="0x1004"/>
    </TTGlyph>
    <TTGlyph name="Omegaiotasubasperacute" xMin="19" yMin="-396" xMax="1531" yMax="1783">
      <component glyphName="asper" x="-81" y="0" flags="0x1004"/>
      <component glyphName="acute" x="213" y="-161" flags="0x1004"/>
      <component glyphName="iotasubscript" x="302" y="0" flags="0x1004"/>
      <component glyphName="Omega" x="198" y="0" flags="0x1004"/>
    </TTGlyph>
    <TTGlyph name="Omegaiotasubaspergrave" xMin="25" yMin="-396" xMax="1333" yMax="1943">
      <component glyphName="iotasubscript" x="0" y="0" flags="0x1004"/>
      <component glyphName="grave" x="292" y="-1" flags="0x1004"/>
      <component glyphName="Omega" x="0" y="0" flags="0x1004"/>
    </TTGlyph>
    <TTGlyph name="Omegaiotasubaspertilde" xMin="309" yMin="-396" xMax="1713" yMax="1779">
      <component glyphName="tilde" x="246" y="919" flags="0x1004"/>
      <component glyphName="iotasubscript" x="393" y="0" flags="0x1004"/>
      <component glyphName="Omega" x="380" y="0" flags="0x1004"/>
    </TTGlyph>
    <TTGlyph name="Omegaiotasublenis" xMin="19" yMin="-396" xMax="1333" yMax="1779">
      <component glyphName="lenis" x="-81" y="0" flags="0x1004"/>
      <component glyphName="iotasubscript" x="0" y="0" flags="0x1004"/>
      <component glyphName="Omega" x="0" y="0" flags="0x1004"/>
    </TTGlyph>
    <TTGlyph name="Omegaiotasublenisacute" xMin="19" yMin="-396" xMax="1533" yMax="1780">
      <component glyphName="acute" x="188" y="-164" flags="0x1004"/>
      <component glyphName="lenis" x="-81" y="0" flags="0x1004"/>
      <component glyphName="iotasubscript" x="0" y="0" flags="0x1004"/>
      <component glyphName="Omega" x="200" y="0" flags="0x1004"/>
    </TTGlyph>
    <TTGlyph name="Omegaiotasublenisgrave" xMin="19" yMin="-396" xMax="1729" yMax="1780">
      <component glyphName="lenis" x="-81" y="0" flags="0x1004"/>
      <component glyphName="iotasubscript" x="414" y="0" flags="0x1004"/>
      <component glyphName="grave" x="204" y="-164" flags="0x1004"/>
      <component glyphName="Omega" x="396" y="0" flags="0x1004"/>
    </TTGlyph>
    <TTGlyph name="Omegaiotasublenistilde" xMin="19" yMin="-396" xMax="1713" yMax="1780">
      <component glyphName="tilde" x="232" y="920" flags="0x1004"/>
      <component glyphName="lenis" x="-81" y="0" flags="0x1004"/>
      <component glyphName="iotasubscript" x="400" y="0" flags="0x1004"/>
      <component glyphName="Omega" x="380" y="0" flags="0x1004"/>
    </TTGlyph>
    <TTGlyph name="Omegalenis" xMin="19" yMin="0" xMax="1333" yMax="1779">
      <component glyphName="lenis" x="-81" y="0" flags="0x1004"/>
      <component glyphName="Omega" x="0" y="0" flags="0x1004"/>
    </TTGlyph>
    <TTGlyph name="Omegalenisacute" xMin="19" yMin="0" xMax="1553" yMax="1780">
      <component glyphName="acute" x="212" y="-164" flags="0x1004"/>
      <component glyphName="lenis" x="-81" y="0" flags="0x1004"/>
      <component glyphName="Omega" x="220" y="0" flags="0x1004"/>
    </TTGlyph>
    <TTGlyph name="Omegalenisgrave" xMin="19" yMin="0" xMax="1717" yMax="1780">
      <component glyphName="lenis" x="-81" y="0" flags="0x1004"/>
      <component glyphName="grave" x="228" y="-164" flags="0x1004"/>
      <component glyphName="Omega" x="384" y="0" flags="0x1004"/>
    </TTGlyph>
    <TTGlyph name="Omegalenistilde" xMin="19" yMin="0" xMax="1757" yMax="1780">
      <component glyphName="tilde" x="200" y="920" flags="0x1004"/>
      <component glyphName="lenis" x="-81" y="0" flags="0x1004"/>
      <component glyphName="Omega" x="424" y="0" flags="0x1004"/>
    </TTGlyph>
    <TTGlyph name="Omegatonos" xMin="25" yMin="0" xMax="1333" yMax="1778">
      <component glyphName="tonos" x="-164" y="2" flags="0x1004"/>
      <component glyphName="Omega" x="0" y="0" flags="0x1004"/>
    </TTGlyph>
    <TTGlyph name="Omicron" xMin="92" yMin="-29" xMax="1262" yMax="1495">
      <contour>
        <pt x="963" y="251" on="1"/>
        <pt x="1096" y="428" on="0"/>
        <pt x="1096" y="740" on="1"/>
        <pt x="1096" y="1045" on="0"/>
        <pt x="947" y="1231" on="1"/>
        <pt x="848" y="1354" on="0"/>
        <pt x="676" y="1354" on="1"/>
        <pt x="495" y="1354" on="0"/>
        <pt x="389" y="1210" on="1"/>
        <pt x="258" y="1034" on="0"/>
        <pt x="258" y="725" on="1"/>
        <pt x="258" y="415" on="0"/>
        <pt x="405" y="234" on="1"/>
        <pt x="503" y="113" on="0"/>
        <pt x="676" y="113" on="1"/>
        <pt x="770" y="113" on="0"/>
        <pt x="918" y="192" on="0"/>
      </contour>
      <contour>
        <pt x="181" y="309" on="1"/>
        <pt x="92" y="497" on="0"/>
        <pt x="92" y="722" on="1"/>
        <pt x="92" y="943" on="0"/>
        <pt x="175" y="1135" on="1"/>
        <pt x="271" y="1358" on="0"/>
        <pt x="452" y="1446" on="1"/>
        <pt x="553" y="1495" on="0"/>
        <pt x="798" y="1495" on="0"/>
        <pt x="897" y="1448" on="1"/>
        <pt x="1072" y="1366" on="0"/>
        <pt x="1172" y="1151" on="1"/>
        <pt x="1262" y="959" on="0"/>
        <pt x="1262" y="725" on="1"/>
        <pt x="1262" y="509" on="0"/>
        <pt x="1178" y="322" on="1"/>
        <pt x="1131" y="217" on="0"/>
        <pt x="1001" y="67" on="0"/>
        <pt x="798" y="-29" on="0"/>
        <pt x="677" y="-29" on="1"/>
        <pt x="341" y="-29" on="0"/>
      </contour>
    </TTGlyph>
    <TTGlyph name="Omicronacute" xMin="19" yMin="-29" xMax="1262" yMax="1779">
      <component glyphName="acute" x="-41" y="-165" flags="0x1004"/>
      <component glyphName="Omicron" x="0" y="0" flags="0x1004"/>
    </TTGlyph>
    <TTGlyph name="Omicronasper" xMin="19" yMin="-29" xMax="1262" yMax="1779">
      <component glyphName="asper" x="-81" y="0" flags="0x1004"/>
      <component glyphName="Omicron" x="0" y="0" flags="0x1004"/>
    </TTGlyph>
    <TTGlyph name="Omicronasperacute" xMin="19" yMin="-29" xMax="1466" yMax="1781">
      <component glyphName="asper" x="-81" y="0" flags="0x1004"/>
      <component glyphName="acute" x="219" y="-163" flags="0x1004"/>
      <component glyphName="Omicron" x="204" y="0" flags="0x1004"/>
    </TTGlyph>
    <TTGlyph name="Omicronaspergrave" xMin="19" yMin="-29" xMax="1638" yMax="1780">
      <component glyphName="asper" x="-81" y="0" flags="0x1004"/>
      <component glyphName="grave" x="211" y="-164" flags="0x1004"/>
      <component glyphName="Omicron" x="376" y="0" flags="0x1004"/>
    </TTGlyph>
    <TTGlyph name="Omicrongrave" xMin="19" yMin="-29" xMax="1398" yMax="1780">
      <component glyphName="grave" x="-41" y="-164" flags="0x1004"/>
      <component glyphName="Omicron" x="136" y="0" flags="0x1004"/>
    </TTGlyph>
    <TTGlyph name="Omicronlenis" xMin="92" yMin="-29" xMax="1262" yMax="1779">
      <component glyphName="lenis" x="-6" y="0" flags="0x1004"/>
      <component glyphName="Omicron" x="0" y="0" flags="0x1004"/>
    </TTGlyph>
    <TTGlyph name="Omicronlenisacute" xMin="100" yMin="-29" xMax="1523" yMax="1780">
      <component glyphName="lenis" x="0" y="0" flags="0x1004"/>
      <component glyphName="acute" x="292" y="-164" flags="0x1004"/>
      <component glyphName="Omicron" x="261" y="0" flags="0x1004"/>
    </TTGlyph>
    <TTGlyph name="Omicronlenisgrave" xMin="100" yMin="-29" xMax="1678" yMax="1780">
      <component glyphName="lenis" x="0" y="0" flags="0x1004"/>
      <component glyphName="grave" x="297" y="-164" flags="0x1004"/>
      <component glyphName="Omicron" x="416" y="0" flags="0x1004"/>
    </TTGlyph>
    <TTGlyph name="Omicrontonos" xMin="58" yMin="-29" xMax="1262" yMax="1778">
      <contour>
        <pt x="963" y="251" on="1"/>
        <pt x="1096" y="428" on="0"/>
        <pt x="1096" y="740" on="1"/>
        <pt x="1096" y="1045" on="0"/>
        <pt x="947" y="1231" on="1"/>
        <pt x="848" y="1354" on="0"/>
        <pt x="676" y="1354" on="1"/>
        <pt x="495" y="1354" on="0"/>
        <pt x="389" y="1210" on="1"/>
        <pt x="258" y="1034" on="0"/>
        <pt x="258" y="725" on="1"/>
        <pt x="258" y="415" on="0"/>
        <pt x="405" y="234" on="1"/>
        <pt x="503" y="113" on="0"/>
        <pt x="676" y="113" on="1"/>
        <pt x="770" y="113" on="0"/>
        <pt x="918" y="192" on="0"/>
      </contour>
      <contour>
        <pt x="181" y="309" on="1"/>
        <pt x="92" y="497" on="0"/>
        <pt x="92" y="722" on="1"/>
        <pt x="92" y="943" on="0"/>
        <pt x="175" y="1135" on="1"/>
        <pt x="271" y="1358" on="0"/>
        <pt x="452" y="1446" on="1"/>
        <pt x="553" y="1495" on="0"/>
        <pt x="798" y="1495" on="0"/>
        <pt x="897" y="1448" on="1"/>
        <pt x="1072" y="1366" on="0"/>
        <pt x="1172" y="1151" on="1"/>
        <pt x="1262" y="959" on="0"/>
        <pt x="1262" y="725" on="1"/>
        <pt x="1262" y="509" on="0"/>
        <pt x="1178" y="322" on="1"/>
        <pt x="1131" y="217" on="0"/>
        <pt x="1001" y="67" on="0"/>
        <pt x="798" y="-29" on="0"/>
        <pt x="677" y="-29" on="1"/>
        <pt x="341" y="-29" on="0"/>
      </contour>
      <contour>
        <pt x="106" y="1401" on="1"/>
        <pt x="58" y="1407" on="0"/>
        <pt x="58" y="1454" on="1"/>
        <pt x="66" y="1710" on="1"/>
        <pt x="71" y="1751" on="0"/>
        <pt x="118" y="1778" on="0"/>
        <pt x="145" y="1778" on="0"/>
        <pt x="163" y="1776" on="1"/>
        <pt x="184" y="1774" on="0"/>
        <pt x="215" y="1724" on="0"/>
        <pt x="215" y="1704" on="1"/>
        <pt x="166" y="1443" on="1"/>
        <pt x="157" y="1401" on="0"/>
        <pt x="112" y="1401" on="1"/>
      </contour>
    </TTGlyph>
    <TTGlyph name="Oslash" xMin="96" yMin="-29" xMax="1214" yMax="1496">
      <contour>
        <pt x="400" y="41" on="1"/>
        <pt x="369" y="-29" on="1"/>
        <pt x="217" y="-29" on="1"/>
        <pt x="291" y="134" on="1"/>
        <pt x="167" y="273" on="0"/>
        <pt x="120" y="500" on="1"/>
        <pt x="96" y="611" on="0"/>
        <pt x="96" y="800" on="0"/>
        <pt x="122" y="968" on="0"/>
        <pt x="176" y="1141" on="0"/>
        <pt x="267" y="1291" on="0"/>
        <pt x="327" y="1350" on="1"/>
        <pt x="456" y="1477" on="0"/>
        <pt x="655" y="1477" on="1"/>
        <pt x="777" y="1477" on="0"/>
        <pt x="874" y="1427" on="1"/>
        <pt x="905" y="1496" on="1"/>
        <pt x="1057" y="1496" on="1"/>
        <pt x="988" y="1345" on="1"/>
        <pt x="1137" y="1200" on="0"/>
        <pt x="1190" y="943" on="1"/>
        <pt x="1214" y="834" on="0"/>
        <pt x="1214" y="636" on="0"/>
        <pt x="1187" y="469" on="0"/>
        <pt x="1134" y="299" on="0"/>
        <pt x="1042" y="152" on="0"/>
        <pt x="982" y="94" on="1"/>
        <pt x="855" y="-29" on="0"/>
        <pt x="655" y="-29" on="1"/>
        <pt x="511" y="-29" on="0"/>
      </contour>
      <contour>
        <pt x="458" y="170" on="1"/>
        <pt x="544" y="111" on="0"/>
        <pt x="744" y="111" on="0"/>
        <pt x="887" y="187" on="0"/>
        <pt x="977" y="309" on="0"/>
        <pt x="1008" y="390" on="1"/>
        <pt x="1063" y="537" on="0"/>
        <pt x="1063" y="686" on="1"/>
        <pt x="1063" y="1034" on="0"/>
        <pt x="926" y="1207" on="1"/>
      </contour>
      <contour>
        <pt x="356" y="279" on="1"/>
        <pt x="816" y="1300" on="1"/>
        <pt x="743" y="1338" on="0"/>
        <pt x="566" y="1338" on="0"/>
        <pt x="423" y="1259" on="0"/>
        <pt x="333" y="1134" on="0"/>
        <pt x="303" y="1050" on="1"/>
        <pt x="248" y="897" on="0"/>
        <pt x="248" y="748" on="1"/>
        <pt x="248" y="442" on="0"/>
      </contour>
    </TTGlyph>
    <TTGlyph name="Otilde" xMin="102" yMin="-29" xMax="1272" yMax="1866">
      <component glyphName="asciitilde" x="307" y="1006" flags="0x1004"/>
      <component glyphName="O" x="10" y="0" flags="0x1004"/>
    </TTGlyph>
    <TTGlyph name="P" xMin="121" yMin="0" xMax="1032" yMax="1456">
      <contour>
        <pt x="279" y="774" on="1"/>
        <pt x="485" y="774" on="1"/>
        <pt x="870" y="774" on="0"/>
        <pt x="870" y="1047" on="1"/>
        <pt x="870" y="1172" on="0"/>
        <pt x="770" y="1248" on="1"/>
        <pt x="682" y="1315" on="0"/>
        <pt x="485" y="1315" on="1"/>
        <pt x="279" y="1315" on="1"/>
      </contour>
      <contour>
        <pt x="121" y="1456" on="1"/>
        <pt x="485" y="1456" on="1"/>
        <pt x="715" y="1456" on="0"/>
        <pt x="992" y="1280" on="0"/>
        <pt x="1024" y="1132" on="1"/>
        <pt x="1032" y="1087" on="0"/>
        <pt x="1032" y="960" on="0"/>
        <pt x="966" y="812" on="0"/>
        <pt x="901" y="754" on="1"/>
        <pt x="761" y="631" on="0"/>
        <pt x="485" y="631" on="1"/>
        <pt x="279" y="631" on="1"/>
        <pt x="279" y="0" on="1"/>
        <pt x="121" y="0" on="1"/>
      </contour>
    </TTGlyph>
    <TTGlyph name="Pdotaccent" xMin="121" yMin="0" xMax="1032" yMax="1777">
      <component glyphName="dotaccent" x="363" y="0" flags="0x1004"/>
      <component glyphName="P" x="0" y="0" flags="0x1004"/>
    </TTGlyph>
    <TTGlyph name="Pemiddlehookcyrillic" xMin="121" yMin="0" xMax="1098" yMax="1456">
      <component glyphName="afii10033" x="0" y="0" flags="0x1004"/>
    </TTGlyph>
    <TTGlyph name="Phi" xMin="95" yMin="0" xMax="1467" yMax="1514">
      <contour>
        <pt x="685" y="1313" on="1"/>
        <pt x="685" y="1514" on="1"/>
        <pt x="864" y="1514" on="1"/>
        <pt x="864" y="1313" on="1"/>
        <pt x="1011" y="1299" on="0"/>
        <pt x="1236" y="1190" on="0"/>
        <pt x="1376" y="1062" on="0"/>
        <pt x="1467" y="856" on="0"/>
        <pt x="1467" y="613" on="0"/>
        <pt x="1383" y="414" on="0"/>
        <pt x="1312" y="348" on="1"/>
        <pt x="1132" y="181" on="0"/>
        <pt x="864" y="153" on="1"/>
        <pt x="864" y="0" on="1"/>
        <pt x="685" y="0" on="1"/>
        <pt x="685" y="153" on="1"/>
        <pt x="548" y="165" on="0"/>
        <pt x="318" y="278" on="0"/>
        <pt x="181" y="409" on="0"/>
        <pt x="95" y="611" on="0"/>
        <pt x="95" y="853" on="0"/>
        <pt x="136" y="953" on="1"/>
        <pt x="208" y="1128" on="0"/>
        <pt x="399" y="1229" on="1"/>
        <pt x="526" y="1296" on="0"/>
      </contour>
      <contour>
        <pt x="685" y="318" on="1"/>
        <pt x="685" y="1148" on="1"/>
        <pt x="459" y="1123" on="0"/>
        <pt x="331" y="1005" on="1"/>
        <pt x="282" y="960" on="0"/>
        <pt x="223" y="818" on="0"/>
        <pt x="223" y="642" on="0"/>
        <pt x="293" y="492" on="0"/>
        <pt x="346" y="448" on="1"/>
        <pt x="479" y="338" on="0"/>
      </contour>
      <contour>
        <pt x="864" y="1148" on="1"/>
        <pt x="864" y="318" on="1"/>
        <pt x="1091" y="340" on="0"/>
        <pt x="1229" y="463" on="1"/>
        <pt x="1340" y="561" on="0"/>
        <pt x="1340" y="734" on="1"/>
        <pt x="1340" y="916" on="0"/>
        <pt x="1211" y="1021" on="1"/>
        <pt x="1085" y="1123" on="0"/>
      </contour>
    </TTGlyph>
    <TTGlyph name="Pi" xMin="110" yMin="0" xMax="1088" yMax="1456">
      <contour>
        <pt x="110" y="1456" on="1"/>
        <pt x="1088" y="1456" on="1"/>
        <pt x="1088" y="0" on="1"/>
        <pt x="930" y="0" on="1"/>
        <pt x="930" y="1305" on="1"/>
        <pt x="268" y="1305" on="1"/>
        <pt x="268" y="0" on="1"/>
        <pt x="110" y="0" on="1"/>
      </contour>
    </TTGlyph>
    <TTGlyph name="Psi" xMin="112" yMin="0" xMax="1282" yMax="1466">
      <contour>
        <pt x="278" y="1466" on="1"/>
        <pt x="278" y="1352" on="0"/>
        <pt x="296" y="1262" on="1"/>
        <pt x="332" y="1088" on="0"/>
        <pt x="425" y="974" on="1"/>
        <pt x="499" y="883" on="0"/>
        <pt x="622" y="861" on="1"/>
        <pt x="622" y="1454" on="1"/>
        <pt x="765" y="1454" on="1"/>
        <pt x="765" y="860" on="1"/>
        <pt x="902" y="884" on="0"/>
        <pt x="983" y="992" on="1"/>
        <pt x="1116" y="1169" on="0"/>
        <pt x="1116" y="1466" on="1"/>
        <pt x="1282" y="1466" on="1"/>
        <pt x="1282" y="1250" on="0"/>
        <pt x="1198" y="1063" on="1"/>
        <pt x="1151" y="958" on="0"/>
        <pt x="1086" y="883" on="1"/>
        <pt x="963" y="741" on="0"/>
        <pt x="765" y="716" on="1"/>
        <pt x="765" y="0" on="1"/>
        <pt x="622" y="0" on="1"/>
        <pt x="622" y="717" on="1"/>
        <pt x="548" y="726" on="0"/>
        <pt x="464" y="764" on="1"/>
        <pt x="302" y="837" on="0"/>
        <pt x="201" y="1050" on="1"/>
        <pt x="112" y="1238" on="0"/>
        <pt x="112" y="1466" on="1"/>
      </contour>
    </TTGlyph>
    <TTGlyph name="Q" xMin="92" yMin="-31" xMax="1288" yMax="1495">
      <contour>
        <pt x="950" y="1230" on="1"/>
        <pt x="848" y="1354" on="0"/>
        <pt x="674" y="1354" on="1"/>
        <pt x="574" y="1354" on="0"/>
        <pt x="412" y="1249" on="0"/>
        <pt x="362" y="1160" on="1"/>
        <pt x="258" y="978" on="0"/>
        <pt x="258" y="725" on="1"/>
        <pt x="258" y="616" on="0"/>
        <pt x="297" y="434" on="0"/>
        <pt x="358" y="298" on="0"/>
        <pt x="406" y="239" on="1"/>
        <pt x="510" y="113" on="0"/>
        <pt x="692" y="113" on="1"/>
        <pt x="746" y="113" on="0"/>
        <pt x="869" y="154" on="0"/>
        <pt x="903" y="188" on="1"/>
        <pt x="715" y="330" on="1"/>
        <pt x="803" y="446" on="1"/>
        <pt x="1001" y="297" on="1"/>
        <pt x="1104" y="441" on="0"/>
        <pt x="1104" y="1045" on="0"/>
      </contour>
      <contour>
        <pt x="194" y="273" on="0"/>
        <pt x="133" y="424" on="0"/>
        <pt x="92" y="614" on="0"/>
        <pt x="92" y="826" on="0"/>
        <pt x="132" y="1032" on="0"/>
        <pt x="223" y="1238" on="0"/>
        <pt x="354" y="1396" on="0"/>
        <pt x="555" y="1495" on="0"/>
        <pt x="774" y="1495" on="0"/>
        <pt x="945" y="1432" on="0"/>
        <pt x="1069" y="1328" on="0"/>
        <pt x="1118" y="1256" on="1"/>
        <pt x="1208" y="1123" on="0"/>
        <pt x="1246" y="943" on="1"/>
        <pt x="1270" y="832" on="0"/>
        <pt x="1270" y="569" on="0"/>
        <pt x="1185" y="289" on="0"/>
        <pt x="1122" y="207" on="1"/>
        <pt x="1288" y="86" on="1"/>
        <pt x="1198" y="-31" on="1"/>
        <pt x="1026" y="96" on="1"/>
        <pt x="950" y="36" on="0"/>
        <pt x="798" y="-29" on="0"/>
        <pt x="588" y="-29" on="0"/>
        <pt x="417" y="31" on="0"/>
        <pt x="292" y="132" on="0"/>
      </contour>
    </TTGlyph>
    <TTGlyph name="R" xMin="121" yMin="0" xMax="1104" yMax="1456">
      <contour>
        <pt x="279" y="774" on="1"/>
        <pt x="485" y="774" on="1"/>
        <pt x="746" y="774" on="0"/>
        <pt x="828" y="899" on="1"/>
        <pt x="870" y="963" on="0"/>
        <pt x="870" y="1047" on="1"/>
        <pt x="870" y="1171" on="0"/>
        <pt x="684" y="1315" on="0"/>
        <pt x="485" y="1315" on="1"/>
        <pt x="279" y="1315" on="1"/>
      </contour>
      <contour>
        <pt x="923" y="0" on="1"/>
        <pt x="494" y="631" on="1"/>
        <pt x="279" y="631" on="1"/>
        <pt x="279" y="0" on="1"/>
        <pt x="121" y="0" on="1"/>
        <pt x="121" y="1456" on="1"/>
        <pt x="485" y="1456" on="1"/>
        <pt x="727" y="1456" on="0"/>
        <pt x="1034" y="1239" on="0"/>
        <pt x="1034" y="1047" on="1"/>
        <pt x="1034" y="898" on="0"/>
        <pt x="836" y="678" on="0"/>
        <pt x="670" y="648" on="1"/>
        <pt x="1104" y="0" on="1"/>
      </contour>
    </TTGlyph>
    <TTGlyph name="Racute" xMin="121" yMin="0" xMax="1104" yMax="1944">
      <component glyphName="acute" x="286" y="0" flags="0x1004"/>
      <component glyphName="R" x="0" y="0" flags="0x1004"/>
    </TTGlyph>
    <TTGlyph name="Rcaron" xMin="121" yMin="0" xMax="1104" yMax="1858">
      <component glyphName="caron" x="0" y="0" flags="0x1004"/>
      <component glyphName="R" x="0" y="0" flags="0x1004"/>
    </TTGlyph>
    <TTGlyph name="Rcommaaccent" xMin="121" yMin="-449" xMax="1104" yMax="1456">
      <component glyphName="comma" x="310" y="-228" flags="0x1004"/>
      <component glyphName="R" x="0" y="0" flags="0x1004"/>
    </TTGlyph>
    <TTGlyph name="Rfraktur" xMin="121" yMin="0" xMax="1104" yMax="1456">
      <contour>
        <pt x="279" y="774" on="1"/>
        <pt x="485" y="774" on="1"/>
        <pt x="808" y="774" on="0"/>
        <pt x="862" y="972" on="1"/>
        <pt x="870" y="1003" on="0"/>
        <pt x="870" y="1047" on="1"/>
        <pt x="870" y="1171" on="0"/>
        <pt x="684" y="1315" on="0"/>
        <pt x="485" y="1315" on="1"/>
        <pt x="279" y="1315" on="1"/>
      </contour>
      <contour>
        <pt x="923" y="0" on="1"/>
        <pt x="494" y="631" on="1"/>
        <pt x="279" y="631" on="1"/>
        <pt x="279" y="0" on="1"/>
        <pt x="121" y="0" on="1"/>
        <pt x="121" y="1456" on="1"/>
        <pt x="485" y="1456" on="1"/>
        <pt x="727" y="1456" on="0"/>
        <pt x="1034" y="1239" on="0"/>
        <pt x="1034" y="1047" on="1"/>
        <pt x="1034" y="898" on="0"/>
        <pt x="835" y="678" on="0"/>
        <pt x="670" y="648" on="1"/>
        <pt x="1104" y="0" on="1"/>
      </contour>
    </TTGlyph>
    <TTGlyph name="Rho" xMin="121" yMin="0" xMax="1032" yMax="1456">
      <contour>
        <pt x="279" y="774" on="1"/>
        <pt x="485" y="774" on="1"/>
        <pt x="870" y="774" on="0"/>
        <pt x="870" y="1047" on="1"/>
        <pt x="870" y="1174" on="0"/>
        <pt x="770" y="1248" on="1"/>
        <pt x="680" y="1315" on="0"/>
        <pt x="485" y="1315" on="1"/>
        <pt x="279" y="1315" on="1"/>
      </contour>
      <contour>
        <pt x="121" y="1456" on="1"/>
        <pt x="485" y="1456" on="1"/>
        <pt x="717" y="1456" on="0"/>
        <pt x="993" y="1279" on="0"/>
        <pt x="1024" y="1132" on="1"/>
        <pt x="1032" y="1084" on="0"/>
        <pt x="1032" y="960" on="0"/>
        <pt x="998" y="886" on="1"/>
        <pt x="926" y="725" on="0"/>
        <pt x="730" y="664" on="1"/>
        <pt x="623" y="631" on="0"/>
        <pt x="485" y="631" on="1"/>
        <pt x="279" y="631" on="1"/>
        <pt x="279" y="0" on="1"/>
        <pt x="121" y="0" on="1"/>
      </contour>
    </TTGlyph>
    <TTGlyph name="Rhoasper" xMin="19" yMin="0" xMax="1167" yMax="1779">
      <component glyphName="asper" x="-81" y="0" flags="0x1004"/>
      <component glyphName="Rho" x="135" y="0" flags="0x1004"/>
    </TTGlyph>
    <TTGlyph name="S" xMin="45" yMin="-29" xMax="1034" yMax="1495">
      <contour>
        <pt x="45" y="327" on="1"/>
        <pt x="215" y="358" on="1"/>
        <pt x="236" y="271" on="0"/>
        <pt x="424" y="113" on="0"/>
        <pt x="680" y="113" on="0"/>
        <pt x="881" y="257" on="0"/>
        <pt x="881" y="371" on="1"/>
        <pt x="881" y="567" on="0"/>
        <pt x="558" y="696" on="1"/>
        <pt x="531" y="707" on="0"/>
        <pt x="448" y="739" on="0"/>
        <pt x="390" y="763" on="0"/>
        <pt x="329" y="793" on="0"/>
        <pt x="246" y="842" on="0"/>
        <pt x="191" y="900" on="0"/>
        <pt x="166" y="938" on="1"/>
        <pt x="114" y="1015" on="0"/>
        <pt x="114" y="1136" on="1"/>
        <pt x="114" y="1300" on="0"/>
        <pt x="358" y="1495" on="0"/>
        <pt x="711" y="1495" on="0"/>
        <pt x="953" y="1325" on="0"/>
        <pt x="994" y="1194" on="1"/>
        <pt x="842" y="1169" on="1"/>
        <pt x="819" y="1241" on="0"/>
        <pt x="651" y="1354" on="0"/>
        <pt x="424" y="1354" on="0"/>
        <pt x="276" y="1230" on="0"/>
        <pt x="276" y="1136" on="1"/>
        <pt x="276" y="1051" on="0"/>
        <pt x="319" y="1002" on="1"/>
        <pt x="367" y="946" on="0"/>
        <pt x="467" y="897" on="0"/>
        <pt x="523" y="873" on="0"/>
        <pt x="621" y="835" on="0"/>
        <pt x="696" y="804" on="0"/>
        <pt x="770" y="766" on="0"/>
        <pt x="867" y="707" on="0"/>
        <pt x="937" y="637" on="0"/>
        <pt x="969" y="592" on="1"/>
        <pt x="1034" y="502" on="0"/>
        <pt x="1034" y="238" on="0"/>
        <pt x="966" y="146" on="1"/>
        <pt x="834" y="-29" on="0"/>
        <pt x="539" y="-29" on="1"/>
        <pt x="348" y="-29" on="0"/>
        <pt x="103" y="167" on="0"/>
      </contour>
    </TTGlyph>
    <TTGlyph name="Sacute" xMin="45" yMin="-29" xMax="1034" yMax="1944">
      <component glyphName="acute" x="364" y="0" flags="0x1004"/>
      <component glyphName="S" x="0" y="0" flags="0x1004"/>
    </TTGlyph>
    <TTGlyph name="Scaron" xMin="45" yMin="-29" xMax="1034" yMax="1858">
      <component glyphName="caron" x="0" y="0" flags="0x1004"/>
      <component glyphName="S" x="0" y="0" flags="0x1004"/>
    </TTGlyph>
    <TTGlyph name="Scedilla" xMin="45" yMin="-419" xMax="1034" yMax="1495">
      <contour>
        <pt x="45" y="327" on="1"/>
        <pt x="215" y="358" on="1"/>
        <pt x="236" y="271" on="0"/>
        <pt x="424" y="113" on="0"/>
        <pt x="679" y="113" on="0"/>
        <pt x="881" y="257" on="0"/>
        <pt x="881" y="371" on="1"/>
        <pt x="881" y="490" on="0"/>
        <pt x="772" y="574" on="1"/>
        <pt x="703" y="629" on="0"/>
        <pt x="654" y="652" on="1"/>
        <pt x="589" y="683" on="0"/>
        <pt x="490" y="723" on="1"/>
        <pt x="434" y="745" on="1"/>
        <pt x="309" y="794" on="0"/>
        <pt x="247" y="846" on="1"/>
        <pt x="183" y="901" on="0"/>
        <pt x="158" y="950" on="1"/>
        <pt x="114" y="1039" on="0"/>
        <pt x="114" y="1136" on="1"/>
        <pt x="114" y="1300" on="0"/>
        <pt x="357" y="1495" on="0"/>
        <pt x="711" y="1495" on="0"/>
        <pt x="954" y="1324" on="0"/>
        <pt x="994" y="1194" on="1"/>
        <pt x="842" y="1169" on="1"/>
        <pt x="820" y="1241" on="0"/>
        <pt x="652" y="1354" on="0"/>
        <pt x="424" y="1354" on="0"/>
        <pt x="276" y="1230" on="0"/>
        <pt x="276" y="1136" on="1"/>
        <pt x="276" y="1029" on="0"/>
        <pt x="347" y="970" on="1"/>
        <pt x="400" y="927" on="0"/>
        <pt x="442" y="909" on="1"/>
        <pt x="507" y="880" on="0"/>
        <pt x="576" y="853" on="1"/>
        <pt x="782" y="772" on="0"/>
        <pt x="868" y="702" on="1"/>
        <pt x="945" y="642" on="0"/>
        <pt x="975" y="585" on="1"/>
        <pt x="1034" y="476" on="0"/>
        <pt x="1034" y="236" on="0"/>
        <pt x="966" y="146" on="1"/>
        <pt x="833" y="-29" on="0"/>
        <pt x="539" y="-29" on="1"/>
        <pt x="350" y="-29" on="0"/>
        <pt x="104" y="166" on="0"/>
      </contour>
      <contour>
        <pt x="553" y="-30" on="1"/>
        <pt x="637" y="-110" on="0"/>
        <pt x="637" y="-202" on="1"/>
        <pt x="637" y="-268" on="0"/>
        <pt x="590" y="-308" on="1"/>
        <pt x="519" y="-367" on="0"/>
        <pt x="428" y="-419" on="1"/>
        <pt x="385" y="-294" on="1"/>
        <pt x="411" y="-274" on="0"/>
        <pt x="418" y="-269" on="0"/>
        <pt x="440" y="-251" on="1"/>
        <pt x="479" y="-218" on="0"/>
        <pt x="479" y="-190" on="1"/>
        <pt x="479" y="-164" on="0"/>
        <pt x="442" y="-110" on="0"/>
        <pt x="424" y="-86" on="1"/>
      </contour>
    </TTGlyph>
    <TTGlyph name="Schwacyrillic" xMin="23" yMin="-29" xMax="1167" yMax="1495">
      <contour>
        <pt x="981" y="591" on="1"/>
        <pt x="198" y="591" on="1"/>
        <pt x="211" y="403" on="0"/>
        <pt x="421" y="131" on="0"/>
        <pt x="590" y="131" on="1"/>
        <pt x="704" y="131" on="0"/>
        <pt x="793" y="201" on="1"/>
        <pt x="961" y="333" on="0"/>
      </contour>
      <contour>
        <pt x="23" y="622" on="1"/>
        <pt x="24" y="677" on="1"/>
        <pt x="24" y="732" on="1"/>
        <pt x="1005" y="732" on="1"/>
        <pt x="1005" y="960" on="0"/>
        <pt x="892" y="1156" on="1"/>
        <pt x="839" y="1247" on="0"/>
        <pt x="672" y="1354" on="0"/>
        <pt x="567" y="1354" on="1"/>
        <pt x="565" y="1354" on="1"/>
        <pt x="459" y="1354" on="0"/>
        <pt x="291" y="1243" on="0"/>
        <pt x="263" y="1153" on="1"/>
        <pt x="114" y="1194" on="1"/>
        <pt x="146" y="1283" on="0"/>
        <pt x="256" y="1398" on="0"/>
        <pt x="305" y="1428" on="1"/>
        <pt x="415" y="1495" on="0"/>
        <pt x="685" y="1495" on="0"/>
        <pt x="784" y="1452" on="1"/>
        <pt x="972" y="1371" on="0"/>
        <pt x="1072" y="1164" on="1"/>
        <pt x="1167" y="970" on="0"/>
        <pt x="1167" y="725" on="1"/>
        <pt x="1167" y="344" on="0"/>
        <pt x="956" y="124" on="1"/>
        <pt x="888" y="53" on="0"/>
        <pt x="684" y="-29" on="0"/>
        <pt x="578" y="-29" on="1"/>
        <pt x="372" y="-29" on="0"/>
        <pt x="256" y="72" on="1"/>
        <pt x="198" y="122" on="0"/>
        <pt x="162" y="174" on="1"/>
        <pt x="71" y="304" on="0"/>
        <pt x="38" y="434" on="1"/>
        <pt x="23" y="492" on="0"/>
      </contour>
    </TTGlyph>
    <TTGlyph name="Schwadieresiscyrillic" xMin="23" yMin="-29" xMax="1167" yMax="1779">
      <component glyphName="dieresis" x="165" y="0" flags="0x1004"/>
      <component glyphName="Schwacyrillic" x="0" y="0" flags="0x1004"/>
    </TTGlyph>
    <TTGlyph name="Scircumflex" xMin="45" yMin="-29" xMax="1034" yMax="1858">
      <component glyphName="circumflex" x="0" y="0" flags="0x1004"/>
      <component glyphName="S" x="0" y="0" flags="0x1004"/>
    </TTGlyph>
    <TTGlyph name="Scommaaccent" xMin="45" yMin="-316" xMax="1034" yMax="1495">
      <contour>
        <pt x="599" y="74" on="1"/>
        <pt x="683" y="-7" on="0"/>
        <pt x="683" y="-190" on="0"/>
        <pt x="542" y="-275" on="1"/>
        <pt x="474" y="-316" on="1"/>
        <pt x="431" y="-191" on="1"/>
        <pt x="525" y="-122" on="0"/>
        <pt x="525" y="-59" on="0"/>
        <pt x="470" y="18" on="1"/>
      </contour>
      <contour>
        <pt x="45" y="327" on="1"/>
        <pt x="215" y="358" on="1"/>
        <pt x="236" y="271" on="0"/>
        <pt x="424" y="113" on="0"/>
        <pt x="680" y="113" on="0"/>
        <pt x="881" y="257" on="0"/>
        <pt x="881" y="371" on="1"/>
        <pt x="881" y="567" on="0"/>
        <pt x="558" y="696" on="1"/>
        <pt x="531" y="707" on="0"/>
        <pt x="448" y="739" on="0"/>
        <pt x="390" y="763" on="0"/>
        <pt x="329" y="793" on="0"/>
        <pt x="246" y="842" on="0"/>
        <pt x="191" y="900" on="0"/>
        <pt x="166" y="938" on="1"/>
        <pt x="114" y="1015" on="0"/>
        <pt x="114" y="1136" on="1"/>
        <pt x="114" y="1300" on="0"/>
        <pt x="358" y="1495" on="0"/>
        <pt x="711" y="1495" on="0"/>
        <pt x="953" y="1325" on="0"/>
        <pt x="994" y="1194" on="1"/>
        <pt x="842" y="1169" on="1"/>
        <pt x="819" y="1241" on="0"/>
        <pt x="651" y="1354" on="0"/>
        <pt x="424" y="1354" on="0"/>
        <pt x="276" y="1230" on="0"/>
        <pt x="276" y="1136" on="1"/>
        <pt x="276" y="1051" on="0"/>
        <pt x="319" y="1002" on="1"/>
        <pt x="367" y="946" on="0"/>
        <pt x="467" y="897" on="0"/>
        <pt x="523" y="873" on="0"/>
        <pt x="621" y="835" on="0"/>
        <pt x="696" y="804" on="0"/>
        <pt x="770" y="766" on="0"/>
        <pt x="867" y="707" on="0"/>
        <pt x="937" y="637" on="0"/>
        <pt x="969" y="592" on="1"/>
        <pt x="1034" y="502" on="0"/>
        <pt x="1034" y="238" on="0"/>
        <pt x="966" y="146" on="1"/>
        <pt x="834" y="-29" on="0"/>
        <pt x="539" y="-29" on="1"/>
        <pt x="348" y="-29" on="0"/>
        <pt x="103" y="167" on="0"/>
      </contour>
    </TTGlyph>
    <TTGlyph name="Sdotaccent" xMin="45" yMin="-29" xMax="1034" yMax="1777">
      <component glyphName="dotaccent" x="411" y="0" flags="0x1004"/>
      <component glyphName="S" x="0" y="0" flags="0x1004"/>
    </TTGlyph>
    <TTGlyph name="Shhacyrillic" xMin="129" yMin="0" xMax="956" yMax="1779">
      <contour>
        <pt x="281" y="0" on="1"/>
        <pt x="129" y="0" on="1"/>
        <pt x="129" y="1779" on="1"/>
        <pt x="281" y="1779" on="1"/>
        <pt x="281" y="892" on="1"/>
        <pt x="310" y="983" on="0"/>
        <pt x="471" y="1102" on="0"/>
        <pt x="570" y="1102" on="1"/>
        <pt x="850" y="1102" on="0"/>
        <pt x="928" y="794" on="1"/>
        <pt x="956" y="682" on="0"/>
        <pt x="956" y="541" on="1"/>
        <pt x="956" y="0" on="1"/>
        <pt x="805" y="0" on="1"/>
        <pt x="805" y="541" on="1"/>
        <pt x="805" y="841" on="0"/>
        <pt x="665" y="932" on="1"/>
        <pt x="614" y="965" on="0"/>
        <pt x="545" y="965" on="1"/>
        <pt x="412" y="965" on="0"/>
        <pt x="344" y="838" on="1"/>
        <pt x="281" y="718" on="0"/>
        <pt x="281" y="540" on="1"/>
      </contour>
    </TTGlyph>
    <TTGlyph name="Sigma" xMin="110" yMin="0" xMax="1088" yMax="1456">
      <contour>
        <pt x="110" y="1456" on="1"/>
        <pt x="1088" y="1456" on="1"/>
        <pt x="1088" y="1305" on="1"/>
        <pt x="310" y="1305" on="1"/>
        <pt x="818" y="734" on="1"/>
        <pt x="309" y="151" on="1"/>
        <pt x="1087" y="151" on="1"/>
        <pt x="1087" y="0" on="1"/>
        <pt x="110" y="0" on="1"/>
        <pt x="110" y="151" on="1"/>
        <pt x="621" y="732" on="1"/>
        <pt x="110" y="1305" on="1"/>
      </contour>
    </TTGlyph>
    <TTGlyph name="T" xMin="88" yMin="0" xMax="1180" yMax="1456">
      <contour>
        <pt x="88" y="1456" on="1"/>
        <pt x="1180" y="1456" on="1"/>
        <pt x="1180" y="1315" on="1"/>
        <pt x="723" y="1315" on="1"/>
        <pt x="723" y="0" on="1"/>
        <pt x="565" y="0" on="1"/>
        <pt x="565" y="1315" on="1"/>
        <pt x="88" y="1315" on="1"/>
      </contour>
    </TTGlyph>
    <TTGlyph name="Tau" xMin="88" yMin="0" xMax="1180" yMax="1456">
      <contour>
        <pt x="88" y="1456" on="1"/>
        <pt x="1180" y="1456" on="1"/>
        <pt x="1180" y="1315" on="1"/>
        <pt x="723" y="1315" on="1"/>
        <pt x="723" y="0" on="1"/>
        <pt x="565" y="0" on="1"/>
        <pt x="565" y="1315" on="1"/>
        <pt x="88" y="1315" on="1"/>
      </contour>
    </TTGlyph>
    <TTGlyph name="Tbar" xMin="88" yMin="0" xMax="1180" yMax="1456">
      <contour>
        <pt x="88" y="1456" on="1"/>
        <pt x="1180" y="1456" on="1"/>
        <pt x="1180" y="1315" on="1"/>
        <pt x="723" y="1315" on="1"/>
        <pt x="723" y="712" on="1"/>
        <pt x="1068" y="712" on="1"/>
        <pt x="1068" y="570" on="1"/>
        <pt x="723" y="570" on="1"/>
        <pt x="723" y="0" on="1"/>
        <pt x="565" y="0" on="1"/>
        <pt x="565" y="570" on="1"/>
        <pt x="241" y="570" on="1"/>
        <pt x="241" y="712" on="1"/>
        <pt x="565" y="712" on="1"/>
        <pt x="565" y="1315" on="1"/>
        <pt x="88" y="1315" on="1"/>
      </contour>
    </TTGlyph>
    <TTGlyph name="Tcaron" xMin="88" yMin="0" xMax="1180" yMax="1858">
      <component glyphName="caron" x="120" y="0" flags="0x1004"/>
      <component glyphName="T" x="0" y="0" flags="0x1004"/>
    </TTGlyph>
    <TTGlyph name="Tcommaaccent" xMin="88" yMin="-316" xMax="1180" yMax="1456">
      <contour>
        <pt x="677" y="74" on="1"/>
        <pt x="761" y="-7" on="0"/>
        <pt x="761" y="-190" on="0"/>
        <pt x="620" y="-275" on="1"/>
        <pt x="552" y="-316" on="1"/>
        <pt x="509" y="-191" on="1"/>
        <pt x="603" y="-122" on="0"/>
        <pt x="603" y="-59" on="0"/>
        <pt x="548" y="18" on="1"/>
      </contour>
      <contour>
        <pt x="88" y="1456" on="1"/>
        <pt x="1180" y="1456" on="1"/>
        <pt x="1180" y="1315" on="1"/>
        <pt x="723" y="1315" on="1"/>
        <pt x="723" y="0" on="1"/>
        <pt x="565" y="0" on="1"/>
        <pt x="565" y="1315" on="1"/>
        <pt x="88" y="1315" on="1"/>
      </contour>
    </TTGlyph>
    <TTGlyph name="Tdotaccent" xMin="88" yMin="0" xMax="1180" yMax="1777">
      <component glyphName="dotaccent" x="472" y="0" flags="0x1004"/>
      <component glyphName="T" x="0" y="0" flags="0x1004"/>
    </TTGlyph>
    <TTGlyph name="Tedescendercyrillic" xMin="88" yMin="0" xMax="1180" yMax="1456">
      <component glyphName="afii10036" x="0" y="0" flags="0x1004"/>
    </TTGlyph>
    <TTGlyph name="Tetsecyrillic" xMin="121" yMin="-208" xMax="1340" yMax="1456">
      <component glyphName="afii10040" x="0" y="0" flags="0x1004"/>
    </TTGlyph>
    <TTGlyph name="Theta" xMin="92" yMin="-29" xMax="1262" yMax="1495">
      <contour>
        <pt x="963" y="251" on="1"/>
        <pt x="1096" y="428" on="0"/>
        <pt x="1096" y="740" on="1"/>
        <pt x="1096" y="1045" on="0"/>
        <pt x="947" y="1231" on="1"/>
        <pt x="848" y="1354" on="0"/>
        <pt x="676" y="1354" on="1"/>
        <pt x="495" y="1354" on="0"/>
        <pt x="389" y="1210" on="1"/>
        <pt x="258" y="1034" on="0"/>
        <pt x="258" y="725" on="1"/>
        <pt x="258" y="415" on="0"/>
        <pt x="405" y="234" on="1"/>
        <pt x="503" y="113" on="0"/>
        <pt x="676" y="113" on="1"/>
        <pt x="770" y="113" on="0"/>
        <pt x="918" y="192" on="0"/>
      </contour>
      <contour>
        <pt x="181" y="309" on="1"/>
        <pt x="92" y="497" on="0"/>
        <pt x="92" y="722" on="1"/>
        <pt x="92" y="943" on="0"/>
        <pt x="175" y="1135" on="1"/>
        <pt x="271" y="1358" on="0"/>
        <pt x="452" y="1446" on="1"/>
        <pt x="553" y="1495" on="0"/>
        <pt x="798" y="1495" on="0"/>
        <pt x="897" y="1448" on="1"/>
        <pt x="1072" y="1366" on="0"/>
        <pt x="1172" y="1151" on="1"/>
        <pt x="1262" y="959" on="0"/>
        <pt x="1262" y="725" on="1"/>
        <pt x="1262" y="509" on="0"/>
        <pt x="1178" y="322" on="1"/>
        <pt x="1131" y="217" on="0"/>
        <pt x="1001" y="67" on="0"/>
        <pt x="798" y="-29" on="0"/>
        <pt x="677" y="-29" on="1"/>
        <pt x="341" y="-29" on="0"/>
      </contour>
      <contour>
        <pt x="390" y="805" on="1"/>
        <pt x="942" y="805" on="1"/>
        <pt x="942" y="663" on="1"/>
        <pt x="390" y="663" on="1"/>
      </contour>
    </TTGlyph>
    <TTGlyph name="Thorn" xMin="145" yMin="0" xMax="1027" yMax="1456">
      <contour>
        <pt x="303" y="477" on="1"/>
        <pt x="727" y="477" on="0"/>
        <pt x="836" y="637" on="1"/>
        <pt x="870" y="686" on="0"/>
        <pt x="870" y="750" on="1"/>
        <pt x="870" y="771" on="0"/>
        <pt x="865" y="794" on="1"/>
        <pt x="819" y="1010" on="0"/>
        <pt x="303" y="1010" on="1"/>
      </contour>
      <contour>
        <pt x="303" y="1150" on="1"/>
        <pt x="1027" y="1150" on="0"/>
        <pt x="1027" y="750" on="1"/>
        <pt x="1027" y="581" on="0"/>
        <pt x="920" y="490" on="1"/>
        <pt x="813" y="398" on="0"/>
        <pt x="654" y="368" on="1"/>
        <pt x="497" y="337" on="0"/>
        <pt x="303" y="337" on="1"/>
        <pt x="303" y="0" on="1"/>
        <pt x="145" y="0" on="1"/>
        <pt x="145" y="1456" on="1"/>
        <pt x="303" y="1456" on="1"/>
      </contour>
    </TTGlyph>
    <TTGlyph name="U" xMin="121" yMin="-29" xMax="1165" yMax="1456">
      <contour>
        <pt x="1004" y="1456" on="1"/>
        <pt x="1165" y="1456" on="1"/>
        <pt x="1165" y="645" on="1"/>
        <pt x="1165" y="328" on="0"/>
        <pt x="889" y="-29" on="0"/>
        <pt x="643" y="-29" on="1"/>
        <pt x="447" y="-29" on="0"/>
        <pt x="318" y="86" on="1"/>
        <pt x="121" y="262" on="0"/>
        <pt x="121" y="645" on="1"/>
        <pt x="121" y="1456" on="1"/>
        <pt x="283" y="1456" on="1"/>
        <pt x="283" y="645" on="1"/>
        <pt x="283" y="328" on="0"/>
        <pt x="429" y="196" on="1"/>
        <pt x="521" y="113" on="0"/>
        <pt x="643" y="113" on="1"/>
        <pt x="796" y="113" on="0"/>
        <pt x="896" y="239" on="1"/>
        <pt x="1004" y="373" on="0"/>
        <pt x="1004" y="645" on="1"/>
      </contour>
    </TTGlyph>
    <TTGlyph name="Uacute" xMin="121" yMin="-29" xMax="1165" yMax="1944">
      <component glyphName="U" x="0" y="0" flags="0x1004"/>
      <component glyphName="acute" x="476" y="0" flags="0x1004"/>
    </TTGlyph>
    <TTGlyph name="Ubreve" xMin="121" yMin="-29" xMax="1165" yMax="1838">
      <component glyphName="breve" x="0" y="0" flags="0x1004"/>
      <component glyphName="U" x="0" y="0" flags="0x1004"/>
    </TTGlyph>
    <TTGlyph name="Ucircumflex" xMin="131" yMin="-29" xMax="1175" yMax="1911">
      <component glyphName="asciicircum" x="164" y="418" flags="0x1004"/>
      <component glyphName="U" x="10" y="0" flags="0x1004"/>
    </TTGlyph>
    <TTGlyph name="Udieresis" xMin="131" yMin="-29" xMax="1175" yMax="1783">
      <component glyphName="dieresis" x="242" y="4" flags="0x1004"/>
      <component glyphName="U" x="10" y="0" flags="0x1004"/>
    </TTGlyph>
    <TTGlyph name="Udieresiscyrillic" xMin="26" yMin="0" xMax="1245" yMax="1779">
      <component glyphName="dieresis" x="317" y="0" flags="0x1004"/>
      <component glyphName="afii10037" x="0" y="0" flags="0x1004"/>
    </TTGlyph>
    <TTGlyph name="Ugrave" xMin="121" yMin="-29" xMax="1165" yMax="1944">
      <component glyphName="U" x="0" y="0" flags="0x1004"/>
      <component glyphName="grave" x="244" y="0" flags="0x1004"/>
    </TTGlyph>
    <TTGlyph name="Uhungarumlaut" xMin="121" yMin="-29" xMax="1165" yMax="1942">
      <component glyphName="hungarumlaut" x="0" y="0" flags="0x1004"/>
      <component glyphName="U" x="0" y="0" flags="0x1004"/>
    </TTGlyph>
    <TTGlyph name="Uhungarumlautcyrillic" xMin="26" yMin="0" xMax="1245" yMax="1942">
      <component glyphName="hungarumlaut" x="0" y="0" flags="0x1004"/>
      <component glyphName="afii10037" x="0" y="0" flags="0x1004"/>
    </TTGlyph>
    <TTGlyph name="Umacron" xMin="121" yMin="-29" xMax="1165" yMax="1730">
      <component glyphName="macron" x="116" y="409" flags="0x1004"/>
      <component glyphName="U" x="0" y="0" flags="0x1004"/>
    </TTGlyph>
    <TTGlyph name="Umacroncyrillic" xMin="26" yMin="0" xMax="1245" yMax="1456">
      <component glyphName="afii10037" x="0" y="0" flags="0x1004"/>
    </TTGlyph>
    <TTGlyph name="Uogonek" xMin="121" yMin="-315" xMax="1165" yMax="1456">
      <component glyphName="ogonek" x="504" y="0" flags="0x1004"/>
      <component glyphName="U" x="0" y="0" flags="0x1004"/>
    </TTGlyph>
    <TTGlyph name="Upsilon" xMin="66" yMin="0" xMax="1114" yMax="1456">
      <contour>
        <pt x="66" y="1456" on="1"/>
        <pt x="234" y="1456" on="1"/>
        <pt x="590" y="856" on="1"/>
        <pt x="946" y="1456" on="1"/>
        <pt x="1114" y="1456" on="1"/>
        <pt x="668" y="748" on="1"/>
        <pt x="668" y="0" on="1"/>
        <pt x="510" y="0" on="1"/>
        <pt x="510" y="748" on="1"/>
      </contour>
    </TTGlyph>
    <TTGlyph name="Upsilon1" xMin="25" yMin="0" xMax="1447" yMax="1456">
      <contour>
        <pt x="1160" y="1298" on="1"/>
        <pt x="814" y="748" on="1"/>
        <pt x="814" y="0" on="1"/>
        <pt x="656" y="0" on="1"/>
        <pt x="656" y="748" on="1"/>
        <pt x="311" y="1298" on="1"/>
        <pt x="283" y="1321" on="0"/>
        <pt x="230" y="1321" on="1"/>
        <pt x="203" y="1318" on="1"/>
        <pt x="181" y="1310" on="1"/>
        <pt x="163" y="1299" on="1"/>
        <pt x="147" y="1286" on="1"/>
        <pt x="132" y="1272" on="1"/>
        <pt x="25" y="1374" on="1"/>
        <pt x="61" y="1408" on="0"/>
        <pt x="74" y="1417" on="1"/>
        <pt x="128" y="1456" on="0"/>
        <pt x="201" y="1456" on="1"/>
        <pt x="212" y="1456" on="1"/>
        <pt x="297" y="1452" on="0"/>
        <pt x="426" y="1370" on="0"/>
        <pt x="462" y="1314" on="1"/>
        <pt x="736" y="856" on="1"/>
        <pt x="1010" y="1314" on="1"/>
        <pt x="1046" y="1370" on="0"/>
        <pt x="1120" y="1418" on="1"/>
        <pt x="1175" y="1452" on="0"/>
        <pt x="1260" y="1456" on="1"/>
        <pt x="1271" y="1456" on="1"/>
        <pt x="1344" y="1456" on="0"/>
        <pt x="1403" y="1414" on="1"/>
        <pt x="1411" y="1408" on="0"/>
        <pt x="1447" y="1374" on="1"/>
        <pt x="1340" y="1272" on="1"/>
        <pt x="1325" y="1286" on="1"/>
        <pt x="1309" y="1299" on="1"/>
        <pt x="1291" y="1310" on="1"/>
        <pt x="1269" y="1318" on="1"/>
        <pt x="1242" y="1321" on="1"/>
        <pt x="1186" y="1321" on="0"/>
      </contour>
    </TTGlyph>
    <TTGlyph name="Upsilonacute" xMin="19" yMin="-5" xMax="1286" yMax="1780">
      <component glyphName="acute" x="-41" y="-164" flags="0x1004"/>
      <component glyphName="Upsilon" x="172" y="-5" flags="0x1004"/>
    </TTGlyph>
    <TTGlyph name="Upsilonasper" xMin="19" yMin="0" xMax="1282" yMax="1779">
      <component glyphName="asper" x="-81" y="0" flags="0x1004"/>
      <component glyphName="Upsilon" x="168" y="0" flags="0x1004"/>
    </TTGlyph>
    <TTGlyph name="Upsilonasperacute" xMin="19" yMin="0" xMax="1630" yMax="1779">
      <component glyphName="asper" x="-81" y="0" flags="0x1004"/>
      <component glyphName="acute" x="241" y="-165" flags="0x1004"/>
      <component glyphName="Upsilon" x="516" y="0" flags="0x1004"/>
    </TTGlyph>
    <TTGlyph name="Upsilonaspergrave" xMin="19" yMin="0" xMax="1778" yMax="1781">
      <component glyphName="asper" x="-81" y="0" flags="0x1004"/>
      <component glyphName="grave" x="213" y="-163" flags="0x1004"/>
      <component glyphName="Upsilon" x="664" y="0" flags="0x1004"/>
    </TTGlyph>
    <TTGlyph name="Upsilonaspertilde" xMin="19" yMin="0" xMax="1659" yMax="1779">
      <component glyphName="asper" x="-81" y="0" flags="0x1004"/>
      <component glyphName="tilde" x="213" y="919" flags="0x1004"/>
      <component glyphName="Upsilon" x="545" y="0" flags="0x1004"/>
    </TTGlyph>
    <TTGlyph name="Upsilonbreve" xMin="66" yMin="0" xMax="1114" yMax="1838">
      <component glyphName="breve" x="-69" y="0" flags="0x1004"/>
      <component glyphName="Upsilon" x="0" y="0" flags="0x1004"/>
    </TTGlyph>
    <TTGlyph name="Upsilondieresis" xMin="66" yMin="0" xMax="1114" yMax="1779">
      <contour>
        <pt x="66" y="1456" on="1"/>
        <pt x="234" y="1456" on="1"/>
        <pt x="590" y="856" on="1"/>
        <pt x="946" y="1456" on="1"/>
        <pt x="1114" y="1456" on="1"/>
        <pt x="668" y="748" on="1"/>
        <pt x="668" y="0" on="1"/>
        <pt x="510" y="0" on="1"/>
        <pt x="510" y="748" on="1"/>
      </contour>
      <contour>
        <pt x="729" y="1685" on="1"/>
        <pt x="729" y="1723" on="0"/>
        <pt x="785" y="1779" on="0"/>
        <pt x="857" y="1779" on="0"/>
        <pt x="882" y="1758" on="1"/>
        <pt x="917" y="1729" on="0"/>
        <pt x="917" y="1646" on="0"/>
        <pt x="861" y="1590" on="0"/>
        <pt x="791" y="1590" on="0"/>
        <pt x="738" y="1633" on="0"/>
        <pt x="729" y="1682" on="0"/>
      </contour>
      <contour>
        <pt x="446" y="1644" on="0"/>
        <pt x="390" y="1588" on="0"/>
        <pt x="320" y="1588" on="0"/>
        <pt x="268" y="1631" on="0"/>
        <pt x="258" y="1672" on="0"/>
        <pt x="258" y="1721" on="0"/>
        <pt x="314" y="1777" on="0"/>
        <pt x="386" y="1777" on="0"/>
        <pt x="411" y="1756" on="1"/>
        <pt x="446" y="1727" on="0"/>
      </contour>
    </TTGlyph>
    <TTGlyph name="Upsilongrave" xMin="19" yMin="0" xMax="1506" yMax="1780">
      <component glyphName="grave" x="-41" y="-164" flags="0x1004"/>
      <component glyphName="Upsilon" x="392" y="0" flags="0x1004"/>
    </TTGlyph>
    <TTGlyph name="Upsilonhooktonos" xMin="54" yMin="0" xMax="1559" yMax="1776">
      <component glyphName="tonos" x="-194" y="0" flags="0x1004"/>
      <component glyphName="Upsilon1" x="112" y="0" flags="0x1004"/>
    </TTGlyph>
    <TTGlyph name="Upsilonmacron" xMin="66" yMin="0" xMax="1114" yMax="1702">
      <component glyphName="macron" x="61" y="381" flags="0x1004"/>
      <component glyphName="Upsilon" x="0" y="0" flags="0x1004"/>
    </TTGlyph>
    <TTGlyph name="Upsilontonos" xMin="41" yMin="0" xMax="1273" yMax="1778">
      <component glyphName="tonos" x="-207" y="2" flags="0x1004"/>
      <component glyphName="Upsilon" x="159" y="0" flags="0x1004"/>
    </TTGlyph>
    <TTGlyph name="Uring" xMin="121" yMin="-29" xMax="1165" yMax="1947">
      <component glyphName="ring" x="132" y="-3" flags="0x1004"/>
      <component glyphName="U" x="0" y="0" flags="0x1004"/>
    </TTGlyph>
    <TTGlyph name="Ustraightcyrillic" xMin="66" yMin="0" xMax="1114" yMax="1456">
      <contour>
        <pt x="66" y="1456" on="1"/>
        <pt x="234" y="1456" on="1"/>
        <pt x="590" y="856" on="1"/>
        <pt x="946" y="1456" on="1"/>
        <pt x="1114" y="1456" on="1"/>
        <pt x="668" y="748" on="1"/>
        <pt x="668" y="0" on="1"/>
        <pt x="510" y="0" on="1"/>
        <pt x="510" y="748" on="1"/>
      </contour>
    </TTGlyph>
    <TTGlyph name="Ustraightstrokecyrillic" xMin="66" yMin="0" xMax="1114" yMax="1456">
      <contour>
        <pt x="66" y="1456" on="1"/>
        <pt x="234" y="1456" on="1"/>
        <pt x="590" y="856" on="1"/>
        <pt x="946" y="1456" on="1"/>
        <pt x="1114" y="1456" on="1"/>
        <pt x="668" y="748" on="1"/>
        <pt x="668" y="0" on="1"/>
        <pt x="510" y="0" on="1"/>
        <pt x="510" y="748" on="1"/>
      </contour>
    </TTGlyph>
    <TTGlyph name="Utilde" xMin="121" yMin="-29" xMax="1165" yMax="1862">
      <component glyphName="tilde" x="261" y="1002" flags="0x1004"/>
      <component glyphName="U" x="0" y="0" flags="0x1004"/>
    </TTGlyph>
    <TTGlyph name="V" xMin="80" yMin="0" xMax="1186" yMax="1456">
      <contour>
        <pt x="1022" y="1456" on="1"/>
        <pt x="1186" y="1456" on="1"/>
        <pt x="745" y="0" on="1"/>
        <pt x="526" y="0" on="1"/>
        <pt x="80" y="1456" on="1"/>
        <pt x="250" y="1456" on="1"/>
        <pt x="635" y="168" on="1"/>
      </contour>
    </TTGlyph>
    <TTGlyph name="W" xMin="84" yMin="0" xMax="1516" yMax="1456">
      <contour>
        <pt x="84" y="1456" on="1"/>
        <pt x="244" y="1456" on="1"/>
        <pt x="428" y="182" on="1"/>
        <pt x="702" y="1419" on="1"/>
        <pt x="897" y="1419" on="1"/>
        <pt x="1171" y="182" on="1"/>
        <pt x="1356" y="1456" on="1"/>
        <pt x="1516" y="1456" on="1"/>
        <pt x="1286" y="0" on="1"/>
        <pt x="1067" y="0" on="1"/>
        <pt x="801" y="1229" on="1"/>
        <pt x="535" y="0" on="1"/>
        <pt x="311" y="0" on="1"/>
      </contour>
    </TTGlyph>
    <TTGlyph name="Wacute" xMin="84" yMin="0" xMax="1516" yMax="1944">
      <component glyphName="acute" x="640" y="0" flags="0x1004"/>
      <component glyphName="W" x="0" y="0" flags="0x1004"/>
    </TTGlyph>
    <TTGlyph name="Wcircumflex" xMin="84" yMin="0" xMax="1516" yMax="1858">
      <component glyphName="circumflex" x="262" y="0" flags="0x1004"/>
      <component glyphName="W" x="0" y="0" flags="0x1004"/>
    </TTGlyph>
    <TTGlyph name="Wdieresis" xMin="84" yMin="0" xMax="1516" yMax="1779">
      <component glyphName="dieresis" x="400" y="0" flags="0x1004"/>
      <component glyphName="W" x="0" y="0" flags="0x1004"/>
    </TTGlyph>
    <TTGlyph name="Wgrave" xMin="84" yMin="0" xMax="1516" yMax="1944">
      <component glyphName="grave" x="396" y="0" flags="0x1004"/>
      <component glyphName="W" x="0" y="0" flags="0x1004"/>
    </TTGlyph>
    <TTGlyph name="X" xMin="74" yMin="0" xMax="1161" yMax="1456">
      <contour>
        <pt x="74" y="1456" on="1"/>
        <pt x="256" y="1456" on="1"/>
        <pt x="618" y="850" on="1"/>
        <pt x="973" y="1456" on="1"/>
        <pt x="1155" y="1456" on="1"/>
        <pt x="702" y="729" on="1"/>
        <pt x="1161" y="0" on="1"/>
        <pt x="971" y="0" on="1"/>
        <pt x="618" y="586" on="1"/>
        <pt x="258" y="0" on="1"/>
        <pt x="80" y="0" on="1"/>
        <pt x="535" y="729" on="1"/>
      </contour>
    </TTGlyph>
    <TTGlyph name="Xi" xMin="110" yMin="0" xMax="1088" yMax="1456">
      <contour>
        <pt x="110" y="0" on="1"/>
        <pt x="110" y="151" on="1"/>
        <pt x="1087" y="151" on="1"/>
        <pt x="1087" y="0" on="1"/>
      </contour>
      <contour>
        <pt x="110" y="1456" on="1"/>
        <pt x="1088" y="1456" on="1"/>
        <pt x="1088" y="1305" on="1"/>
        <pt x="110" y="1305" on="1"/>
      </contour>
      <contour>
        <pt x="288" y="783" on="1"/>
        <pt x="910" y="783" on="1"/>
        <pt x="910" y="641" on="1"/>
        <pt x="288" y="641" on="1"/>
      </contour>
    </TTGlyph>
    <TTGlyph name="Y" xMin="76" yMin="0" xMax="1124" yMax="1456">
      <contour>
        <pt x="76" y="1456" on="1"/>
        <pt x="244" y="1456" on="1"/>
        <pt x="600" y="856" on="1"/>
        <pt x="956" y="1456" on="1"/>
        <pt x="1124" y="1456" on="1"/>
        <pt x="678" y="748" on="1"/>
        <pt x="678" y="0" on="1"/>
        <pt x="520" y="0" on="1"/>
        <pt x="520" y="748" on="1"/>
      </contour>
    </TTGlyph>
    <TTGlyph name="Yacute" xMin="76" yMin="0" xMax="1124" yMax="1944">
      <component glyphName="Y" x="0" y="0" flags="0x1004"/>
      <component glyphName="acute" x="415" y="0" flags="0x1004"/>
    </TTGlyph>
    <TTGlyph name="Ycircumflex" xMin="76" yMin="0" xMax="1124" yMax="1858">
      <component glyphName="circumflex" x="61" y="0" flags="0x1004"/>
      <component glyphName="Y" x="0" y="0" flags="0x1004"/>
    </TTGlyph>
    <TTGlyph name="Ydieresis" xMin="76" yMin="0" xMax="1124" yMax="1779">
      <component glyphName="Y" x="0" y="0" flags="0x1004"/>
      <component glyphName="dieresis" x="185" y="0" flags="0x1004"/>
    </TTGlyph>
    <TTGlyph name="Yerudieresiscyrillic" xMin="121" yMin="0" xMax="1099" yMax="1779">
      <component glyphName="dieresis" x="204" y="0" flags="0x1004"/>
      <component glyphName="afii10045" x="0" y="0" flags="0x1004"/>
    </TTGlyph>
    <TTGlyph name="Ygrave" xMin="76" yMin="0" xMax="1124" yMax="1944">
      <component glyphName="grave" x="184" y="0" flags="0x1004"/>
      <component glyphName="Y" x="0" y="0" flags="0x1004"/>
    </TTGlyph>
    <TTGlyph name="Z" xMin="100" yMin="0" xMax="1245" yMax="1456">
      <contour>
        <pt x="129" y="1456" on="1"/>
        <pt x="1233" y="1456" on="1"/>
        <pt x="369" y="141" on="1"/>
        <pt x="1245" y="141" on="1"/>
        <pt x="1245" y="0" on="1"/>
        <pt x="100" y="0" on="1"/>
        <pt x="973" y="1315" on="1"/>
        <pt x="129" y="1315" on="1"/>
      </contour>
    </TTGlyph>
    <TTGlyph name="Zacute" xMin="100" yMin="0" xMax="1245" yMax="1944">
      <component glyphName="acute" x="473" y="0" flags="0x1004"/>
      <component glyphName="Z" x="0" y="0" flags="0x1004"/>
    </TTGlyph>
    <TTGlyph name="Zcaron" xMin="100" yMin="0" xMax="1245" yMax="1858">
      <component glyphName="caron" x="175" y="0" flags="0x1004"/>
      <component glyphName="Z" x="0" y="0" flags="0x1004"/>
    </TTGlyph>
    <TTGlyph name="Zdotaccent" xMin="100" yMin="0" xMax="1245" yMax="1777">
      <component glyphName="dotaccent" x="513" y="0" flags="0x1004"/>
      <component glyphName="Z" x="0" y="0" flags="0x1004"/>
    </TTGlyph>
    <TTGlyph name="Zedescendercyrillic" xMin="113" yMin="-29" xMax="1036" yMax="1497">
      <component glyphName="afii10025" x="0" y="0" flags="0x1004"/>
    </TTGlyph>
    <TTGlyph name="Zedieresiscyrillic" xMin="113" yMin="-29" xMax="1036" yMax="1779">
      <component glyphName="dieresis" x="144" y="0" flags="0x1004"/>
      <component glyphName="afii10025" x="0" y="0" flags="0x1004"/>
    </TTGlyph>
    <TTGlyph name="Zeta" xMin="100" yMin="0" xMax="1245" yMax="1456">
      <contour>
        <pt x="129" y="1456" on="1"/>
        <pt x="1233" y="1456" on="1"/>
        <pt x="369" y="141" on="1"/>
        <pt x="1245" y="141" on="1"/>
        <pt x="1245" y="0" on="1"/>
        <pt x="100" y="0" on="1"/>
        <pt x="973" y="1315" on="1"/>
        <pt x="129" y="1315" on="1"/>
      </contour>
    </TTGlyph>
    <TTGlyph name="Zhebrevecyrillic" xMin="76" yMin="0" xMax="1390" yMax="1838">
      <component glyphName="breve" x="79" y="0" flags="0x1004"/>
      <component glyphName="afii10024" x="0" y="0" flags="0x1004"/>
    </TTGlyph>
    <TTGlyph name="Zhedescendercyrillic" xMin="76" yMin="0" xMax="1390" yMax="1459">
      <component glyphName="afii10024" x="0" y="0" flags="0x1004"/>
    </TTGlyph>
    <TTGlyph name="Zhedieresiscyrillic" xMin="76" yMin="0" xMax="1390" yMax="1779">
      <component glyphName="dieresis" x="324" y="0" flags="0x1004"/>
      <component glyphName="afii10024" x="0" y="0" flags="0x1004"/>
    </TTGlyph>
    <TTGlyph name="a" xMin="84" yMin="-29" xMax="866" yMax="1090">
      <contour>
        <pt x="727" y="446" on="0"/>
        <pt x="580" y="582" on="0"/>
        <pt x="378" y="582" on="0"/>
        <pt x="238" y="443" on="0"/>
        <pt x="238" y="241" on="0"/>
        <pt x="381" y="106" on="0"/>
        <pt x="585" y="106" on="0"/>
        <pt x="727" y="245" on="0"/>
      </contour>
      <contour>
        <pt x="457" y="717" on="1"/>
        <pt x="561" y="717" on="0"/>
        <pt x="713" y="608" on="0"/>
        <pt x="725" y="559" on="1"/>
        <pt x="725" y="655" on="1"/>
        <pt x="725" y="797" on="0"/>
        <pt x="598" y="954" on="0"/>
        <pt x="481" y="954" on="1"/>
        <pt x="412" y="954" on="0"/>
        <pt x="290" y="911" on="0"/>
        <pt x="256" y="877" on="1"/>
        <pt x="178" y="981" on="1"/>
        <pt x="312" y="1090" on="0"/>
        <pt x="647" y="1090" on="0"/>
        <pt x="866" y="860" on="0"/>
        <pt x="866" y="655" on="1"/>
        <pt x="866" y="0" on="1"/>
        <pt x="727" y="0" on="1"/>
        <pt x="727" y="156" on="1"/>
        <pt x="719" y="108" on="0"/>
        <pt x="559" y="-29" on="0"/>
        <pt x="456" y="-29" on="1"/>
        <pt x="294" y="-29" on="0"/>
        <pt x="84" y="177" on="0"/>
        <pt x="84" y="504" on="0"/>
        <pt x="301" y="717" on="0"/>
      </contour>
    </TTGlyph>
    <TTGlyph name="aacute" xMin="84" yMin="-29" xMax="866" yMax="1597">
      <component glyphName="a" x="0" y="0" flags="0x1004"/>
      <component glyphName="acute" x="335" y="-347" flags="0x1004"/>
    </TTGlyph>
    <TTGlyph name="aacutealt" xMin="90" yMin="-29" xMax="888" yMax="1595">
      <component glyphName="acute" x="394" y="-349" flags="0x1004"/>
      <component glyphName="aalt" x="0" y="0" flags="0x1004"/>
    </TTGlyph>
    <TTGlyph name="aalt" xMin="90" yMin="-29" xMax="888" yMax="1090">
      <contour>
        <pt x="200" y="89" on="1"/>
        <pt x="93" y="202" on="0"/>
        <pt x="91" y="409" on="1"/>
        <pt x="90" y="661" on="1"/>
        <pt x="90" y="661" on="0"/>
        <pt x="90" y="664" on="1"/>
        <pt x="90" y="865" on="0"/>
        <pt x="200" y="981" on="1"/>
        <pt x="333" y="1090" on="0"/>
        <pt x="646" y="1090" on="0"/>
        <pt x="748" y="1003" on="1"/>
        <pt x="748" y="1073" on="1"/>
        <pt x="888" y="1073" on="1"/>
        <pt x="888" y="0" on="1"/>
        <pt x="748" y="0" on="1"/>
        <pt x="748" y="156" on="1"/>
        <pt x="741" y="110" on="0"/>
        <pt x="670" y="46" on="1"/>
        <pt x="637" y="16" on="0"/>
        <pt x="533" y="-29" on="0"/>
        <pt x="478" y="-29" on="1"/>
        <pt x="319" y="-29" on="0"/>
      </contour>
      <contour>
        <pt x="232" y="409" on="1"/>
        <pt x="232" y="106" on="0"/>
        <pt x="510" y="106" on="1"/>
        <pt x="606" y="106" on="0"/>
        <pt x="748" y="245" on="0"/>
        <pt x="748" y="341" on="1"/>
        <pt x="746" y="655" on="1"/>
        <pt x="744" y="800" on="0"/>
        <pt x="620" y="954" on="0"/>
        <pt x="502" y="954" on="1"/>
        <pt x="366" y="954" on="0"/>
        <pt x="294" y="882" on="1"/>
        <pt x="233" y="806" on="0"/>
        <pt x="231" y="661" on="1"/>
      </contour>
    </TTGlyph>
    <TTGlyph name="abreve" xMin="84" yMin="-29" xMax="866" yMax="1491">
      <component glyphName="breve" x="-150" y="-347" flags="0x1004"/>
      <component glyphName="a" x="0" y="0" flags="0x1004"/>
    </TTGlyph>
    <TTGlyph name="abrevealt" xMin="90" yMin="-29" xMax="888" yMax="1436">
      <component glyphName="breve" x="-158" y="-402" flags="0x1004"/>
      <component glyphName="aalt" x="0" y="0" flags="0x1004"/>
    </TTGlyph>
    <TTGlyph name="abrevecyrillic" xMin="106" yMin="-29" xMax="887" yMax="1491">
      <component glyphName="breve" x="-157" y="-347" flags="0x1004"/>
      <component glyphName="afii10065" x="0" y="0" flags="0x1004"/>
    </TTGlyph>
    <TTGlyph name="acircumflex" xMin="94" yMin="-29" xMax="876" yMax="1483">
      <component glyphName="asciicircum" x="14" y="-10" flags="0x1004"/>
      <component glyphName="a" x="10" y="0" flags="0x1004"/>
    </TTGlyph>
    <TTGlyph name="acircumflexalt" xMin="90" yMin="-29" xMax="888" yMax="1514">
      <component glyphName="circumflex" x="-44" y="-344" flags="0x1004"/>
      <component glyphName="aalt" x="0" y="0" flags="0x1004"/>
    </TTGlyph>
    <TTGlyph name="acute" xMin="60" yMin="1582" xMax="480" yMax="1944">
      <contour>
        <pt x="145" y="1591" on="1"/>
        <pt x="133" y="1582" on="0"/>
        <pt x="90" y="1582" on="0"/>
        <pt x="60" y="1622" on="0"/>
        <pt x="60" y="1660" on="0"/>
        <pt x="76" y="1676" on="1"/>
        <pt x="357" y="1926" on="1"/>
        <pt x="379" y="1944" on="0"/>
        <pt x="417" y="1944" on="0"/>
        <pt x="447" y="1936" on="0"/>
        <pt x="480" y="1894" on="0"/>
        <pt x="480" y="1880" on="1"/>
        <pt x="480" y="1836" on="0"/>
        <pt x="450" y="1810" on="1"/>
      </contour>
    </TTGlyph>
    <TTGlyph name="acutecomb" xMin="-968" yMin="1130" xMax="-615" yMax="1558">
      <contour>
        <pt x="-752" y="1525" on="1"/>
        <pt x="-731" y="1558" on="0"/>
        <pt x="-658" y="1558" on="0"/>
        <pt x="-615" y="1505" on="0"/>
        <pt x="-615" y="1459" on="0"/>
        <pt x="-631" y="1437" on="1"/>
        <pt x="-871" y="1146" on="1"/>
        <pt x="-887" y="1130" on="0"/>
        <pt x="-931" y="1130" on="0"/>
        <pt x="-968" y="1161" on="0"/>
        <pt x="-968" y="1194" on="0"/>
        <pt x="-959" y="1212" on="1"/>
      </contour>
    </TTGlyph>
    <TTGlyph name="adieresis" xMin="94" yMin="-29" xMax="876" yMax="1411">
      <component glyphName="dieresis" x="94" y="-368" flags="0x1004"/>
      <component glyphName="a" x="10" y="0" flags="0x1004"/>
    </TTGlyph>
    <TTGlyph name="adieresisalt" xMin="90" yMin="-29" xMax="888" yMax="1453">
      <component glyphName="dieresis" x="98" y="-326" flags="0x1004"/>
      <component glyphName="aalt" x="0" y="0" flags="0x1004"/>
    </TTGlyph>
    <TTGlyph name="adieresiscyrillic" xMin="106" yMin="-29" xMax="887" yMax="1090">
      <component glyphName="afii10065" x="0" y="0" flags="0x1004"/>
    </TTGlyph>
    <TTGlyph name="ae" xMin="84" yMin="-29" xMax="1376" yMax="1094">
      <contour>
        <pt x="613" y="504" on="0"/>
        <pt x="511" y="602" on="0"/>
        <pt x="331" y="602" on="0"/>
        <pt x="236" y="462" on="0"/>
        <pt x="236" y="354" on="1"/>
        <pt x="236" y="305" on="0"/>
        <pt x="244" y="269" on="1"/>
        <pt x="278" y="106" on="0"/>
        <pt x="436" y="106" on="1"/>
        <pt x="528" y="106" on="0"/>
        <pt x="637" y="250" on="0"/>
        <pt x="637" y="354" on="1"/>
        <pt x="637" y="385" on="0"/>
      </contour>
      <contour>
        <pt x="640" y="692" on="1"/>
        <pt x="640" y="954" on="0"/>
        <pt x="440" y="954" on="1"/>
        <pt x="375" y="954" on="0"/>
        <pt x="295" y="916" on="0"/>
        <pt x="256" y="877" on="1"/>
        <pt x="178" y="979" on="1"/>
        <pt x="184" y="984" on="0"/>
        <pt x="222" y="1016" on="0"/>
        <pt x="235" y="1026" on="0"/>
        <pt x="272" y="1052" on="0"/>
        <pt x="293" y="1061" on="0"/>
        <pt x="332" y="1078" on="0"/>
        <pt x="349" y="1081" on="1"/>
        <pt x="400" y="1090" on="0"/>
        <pt x="440" y="1090" on="1"/>
        <pt x="534" y="1090" on="0"/>
        <pt x="667" y="1001" on="0"/>
        <pt x="721" y="910" on="1"/>
        <pt x="779" y="1005" on="0"/>
        <pt x="901" y="1094" on="0"/>
        <pt x="1001" y="1094" on="1"/>
        <pt x="1145" y="1094" on="0"/>
        <pt x="1322" y="914" on="0"/>
        <pt x="1355" y="756" on="1"/>
        <pt x="1376" y="662" on="0"/>
        <pt x="1376" y="537" on="1"/>
        <pt x="1373" y="469" on="1"/>
        <pt x="783" y="469" on="1"/>
        <pt x="783" y="277" on="0"/>
        <pt x="866" y="169" on="1"/>
        <pt x="915" y="106" on="0"/>
        <pt x="1001" y="106" on="1"/>
        <pt x="1066" y="106" on="0"/>
        <pt x="1093" y="135" on="1"/>
        <pt x="1126" y="172" on="0"/>
        <pt x="1159" y="234" on="0"/>
        <pt x="1161" y="237" on="0"/>
        <pt x="1164" y="243" on="1"/>
        <pt x="1297" y="188" on="1"/>
        <pt x="1241" y="78" on="0"/>
        <pt x="1110" y="-29" on="0"/>
        <pt x="1001" y="-29" on="1"/>
        <pt x="919" y="-29" on="0"/>
        <pt x="845" y="13" on="0"/>
        <pt x="809" y="38" on="0"/>
        <pt x="787" y="66" on="1"/>
        <pt x="757" y="105" on="0"/>
        <pt x="719" y="164" on="1"/>
        <pt x="715" y="157" on="0"/>
        <pt x="692" y="115" on="0"/>
        <pt x="683" y="100" on="0"/>
        <pt x="659" y="63" on="0"/>
        <pt x="644" y="47" on="0"/>
        <pt x="616" y="18" on="0"/>
        <pt x="591" y="5" on="0"/>
        <pt x="554" y="-14" on="0"/>
        <pt x="534" y="-18" on="1"/>
        <pt x="481" y="-29" on="0"/>
        <pt x="436" y="-29" on="1"/>
        <pt x="300" y="-29" on="0"/>
        <pt x="121" y="124" on="0"/>
        <pt x="94" y="251" on="1"/>
        <pt x="84" y="306" on="0"/>
        <pt x="84" y="354" on="1"/>
        <pt x="84" y="517" on="0"/>
        <pt x="284" y="737" on="0"/>
        <pt x="436" y="737" on="1"/>
        <pt x="523" y="737" on="0"/>
        <pt x="605" y="686" on="0"/>
        <pt x="641" y="633" on="1"/>
      </contour>
      <contour>
        <pt x="1221" y="604" on="1"/>
        <pt x="1191" y="958" on="0"/>
        <pt x="1001" y="958" on="1"/>
        <pt x="943" y="958" on="0"/>
        <pt x="855" y="892" on="0"/>
        <pt x="832" y="838" on="1"/>
        <pt x="785" y="730" on="0"/>
        <pt x="783" y="604" on="1"/>
      </contour>
    </TTGlyph>
    <TTGlyph name="afii10017" xMin="72" yMin="0" xMax="1247" yMax="1456">
      <contour>
        <pt x="659" y="1214" on="1"/>
        <pt x="455" y="621" on="1"/>
        <pt x="870" y="621" on="1"/>
      </contour>
      <contour>
        <pt x="907" y="485" on="1"/>
        <pt x="410" y="485" on="1"/>
        <pt x="248" y="0" on="1"/>
        <pt x="72" y="0" on="1"/>
        <pt x="596" y="1456" on="1"/>
        <pt x="723" y="1456" on="1"/>
        <pt x="1247" y="0" on="1"/>
        <pt x="1067" y="0" on="1"/>
      </contour>
    </TTGlyph>
    <TTGlyph name="afii10018" xMin="94" yMin="0" xMax="1004" yMax="1456">
      <contour>
        <pt x="94" y="0" on="1"/>
        <pt x="94" y="1456" on="1"/>
        <pt x="930" y="1456" on="1"/>
        <pt x="930" y="1315" on="1"/>
        <pt x="252" y="1315" on="1"/>
        <pt x="252" y="825" on="1"/>
        <pt x="458" y="825" on="1"/>
        <pt x="856" y="825" on="0"/>
        <pt x="972" y="570" on="1"/>
        <pt x="1004" y="499" on="0"/>
        <pt x="1004" y="372" on="0"/>
        <pt x="996" y="324" on="1"/>
        <pt x="965" y="177" on="0"/>
        <pt x="689" y="0" on="0"/>
        <pt x="458" y="0" on="1"/>
      </contour>
      <contour>
        <pt x="252" y="682" on="1"/>
        <pt x="252" y="141" on="1"/>
        <pt x="458" y="141" on="1"/>
        <pt x="789" y="141" on="0"/>
        <pt x="836" y="349" on="1"/>
        <pt x="842" y="374" on="0"/>
        <pt x="842" y="409" on="1"/>
        <pt x="842" y="682" on="0"/>
        <pt x="458" y="682" on="1"/>
      </contour>
    </TTGlyph>
    <TTGlyph name="afii10019" xMin="67" yMin="0" xMax="1031" yMax="1456">
      <contour>
        <pt x="225" y="705" on="1"/>
        <pt x="225" y="141" on="1"/>
        <pt x="544" y="141" on="1"/>
        <pt x="742" y="141" on="0"/>
        <pt x="828" y="266" on="1"/>
        <pt x="876" y="335" on="0"/>
        <pt x="876" y="430" on="1"/>
        <pt x="876" y="467" on="0"/>
        <pt x="869" y="494" on="1"/>
        <pt x="850" y="588" on="0"/>
        <pt x="687" y="705" on="0"/>
        <pt x="544" y="705" on="1"/>
      </contour>
      <contour>
        <pt x="462" y="1315" on="1"/>
        <pt x="225" y="1317" on="1"/>
        <pt x="225" y="844" on="1"/>
        <pt x="462" y="844" on="1"/>
        <pt x="688" y="844" on="0"/>
        <pt x="762" y="958" on="1"/>
        <pt x="796" y="1012" on="0"/>
        <pt x="796" y="1059" on="1"/>
        <pt x="796" y="1141" on="0"/>
        <pt x="745" y="1226" on="0"/>
        <pt x="710" y="1254" on="1"/>
        <pt x="633" y="1315" on="0"/>
      </contour>
      <contour>
        <pt x="67" y="1456" on="1"/>
        <pt x="462" y="1456" on="1"/>
        <pt x="784" y="1456" on="0"/>
        <pt x="904" y="1264" on="1"/>
        <pt x="956" y="1180" on="0"/>
        <pt x="956" y="962" on="0"/>
        <pt x="788" y="782" on="0"/>
        <pt x="702" y="782" on="1"/>
        <pt x="898" y="782" on="0"/>
        <pt x="990" y="594" on="1"/>
        <pt x="1031" y="508" on="0"/>
        <pt x="1031" y="447" on="1"/>
        <pt x="1031" y="168" on="0"/>
        <pt x="832" y="60" on="1"/>
        <pt x="721" y="0" on="0"/>
        <pt x="544" y="0" on="1"/>
        <pt x="67" y="0" on="1"/>
      </contour>
    </TTGlyph>
    <TTGlyph name="afii10020" xMin="92" yMin="0" xMax="1006" yMax="1456">
      <contour>
        <pt x="92" y="1456" on="1"/>
        <pt x="1006" y="1456" on="1"/>
        <pt x="1006" y="1315" on="1"/>
        <pt x="250" y="1315" on="1"/>
        <pt x="250" y="0" on="1"/>
        <pt x="92" y="0" on="1"/>
      </contour>
    </TTGlyph>
    <TTGlyph name="afii10021" xMin="79" yMin="-214" xMax="1231" yMax="1450">
      <contour>
        <pt x="626" y="1309" on="1"/>
        <pt x="472" y="283" on="1"/>
        <pt x="462" y="212" on="0"/>
        <pt x="442" y="142" on="0"/>
        <pt x="418" y="136" on="1"/>
        <pt x="831" y="136" on="1"/>
        <pt x="831" y="1309" on="1"/>
      </contour>
      <contour>
        <pt x="79" y="136" on="1"/>
        <pt x="218" y="136" on="1"/>
        <pt x="305" y="136" on="0"/>
        <pt x="320" y="252" on="1"/>
        <pt x="472" y="1450" on="1"/>
        <pt x="988" y="1449" on="1"/>
        <pt x="989" y="136" on="1"/>
        <pt x="1231" y="136" on="1"/>
        <pt x="1231" y="-214" on="1"/>
        <pt x="1089" y="-214" on="1"/>
        <pt x="1089" y="-1" on="1"/>
        <pt x="221" y="-1" on="1"/>
        <pt x="221" y="-214" on="1"/>
        <pt x="79" y="-214" on="1"/>
      </contour>
    </TTGlyph>
    <TTGlyph name="afii10022" xMin="88" yMin="0" xMax="1010" yMax="1456">
      <contour>
        <pt x="88" y="1456" on="1"/>
        <pt x="1010" y="1456" on="1"/>
        <pt x="1010" y="1315" on="1"/>
        <pt x="246" y="1315" on="1"/>
        <pt x="246" y="817" on="1"/>
        <pt x="966" y="817" on="1"/>
        <pt x="966" y="676" on="1"/>
        <pt x="246" y="676" on="1"/>
        <pt x="246" y="141" on="1"/>
        <pt x="1010" y="141" on="1"/>
        <pt x="1010" y="0" on="1"/>
        <pt x="88" y="0" on="1"/>
      </contour>
    </TTGlyph>
    <TTGlyph name="afii10023" xMin="56" yMin="0" xMax="978" yMax="1779">
      <component glyphName="dieresis" x="170" y="0" flags="0x1004"/>
      <component glyphName="afii10022" x="-32" y="0" flags="0x1004"/>
    </TTGlyph>
    <TTGlyph name="afii10024" xMin="76" yMin="0" xMax="1390" yMax="1459">
      <contour>
        <pt x="254" y="0" on="1"/>
        <pt x="76" y="0" on="1"/>
        <pt x="496" y="669" on="1"/>
        <pt x="496" y="811" on="1"/>
        <pt x="76" y="1459" on="1"/>
        <pt x="258" y="1459" on="1"/>
        <pt x="654" y="842" on="1"/>
        <pt x="654" y="1456" on="1"/>
        <pt x="811" y="1456" on="1"/>
        <pt x="811" y="842" on="1"/>
        <pt x="1208" y="1459" on="1"/>
        <pt x="1390" y="1459" on="1"/>
        <pt x="970" y="811" on="1"/>
        <pt x="970" y="669" on="1"/>
        <pt x="1390" y="0" on="1"/>
        <pt x="1212" y="0" on="1"/>
        <pt x="811" y="631" on="1"/>
        <pt x="811" y="0" on="1"/>
        <pt x="654" y="0" on="1"/>
        <pt x="654" y="631" on="1"/>
      </contour>
    </TTGlyph>
    <TTGlyph name="afii10025" xMin="113" yMin="-29" xMax="1036" yMax="1497">
      <contour>
        <pt x="113" y="252" on="1"/>
        <pt x="268" y="299" on="1"/>
        <pt x="305" y="218" on="0"/>
        <pt x="464" y="113" on="0"/>
        <pt x="547" y="113" on="1"/>
        <pt x="687" y="113" on="0"/>
        <pt x="879" y="284" on="0"/>
        <pt x="879" y="424" on="1"/>
        <pt x="879" y="495" on="0"/>
        <pt x="850" y="556" on="1"/>
        <pt x="797" y="667" on="0"/>
        <pt x="670" y="711" on="1"/>
        <pt x="612" y="731" on="0"/>
        <pt x="551" y="731" on="1"/>
        <pt x="473" y="731" on="1"/>
        <pt x="473" y="856" on="1"/>
        <pt x="571" y="856" on="1"/>
        <pt x="668" y="856" on="0"/>
        <pt x="811" y="1002" on="0"/>
        <pt x="811" y="1217" on="0"/>
        <pt x="664" y="1358" on="0"/>
        <pt x="569" y="1358" on="1"/>
        <pt x="563" y="1358" on="1"/>
        <pt x="482" y="1358" on="0"/>
        <pt x="362" y="1274" on="0"/>
        <pt x="330" y="1200" on="1"/>
        <pt x="193" y="1264" on="1"/>
        <pt x="245" y="1368" on="0"/>
        <pt x="446" y="1497" on="0"/>
        <pt x="558" y="1497" on="1"/>
        <pt x="789" y="1497" on="0"/>
        <pt x="910" y="1314" on="1"/>
        <pt x="969" y="1225" on="0"/>
        <pt x="969" y="1034" on="0"/>
        <pt x="936" y="963" on="1"/>
        <pt x="879" y="841" on="0"/>
        <pt x="786" y="795" on="1"/>
        <pt x="863" y="774" on="0"/>
        <pt x="946" y="674" on="1"/>
        <pt x="984" y="629" on="0"/>
        <pt x="1036" y="494" on="0"/>
        <pt x="1036" y="424" on="1"/>
        <pt x="1036" y="229" on="0"/>
        <pt x="754" y="-29" on="0"/>
        <pt x="547" y="-29" on="1"/>
        <pt x="423" y="-29" on="0"/>
        <pt x="169" y="124" on="0"/>
      </contour>
    </TTGlyph>
    <TTGlyph name="afii10026" xMin="121" yMin="0" xMax="1171" yMax="1456">
      <contour>
        <pt x="121" y="1456" on="1"/>
        <pt x="279" y="1456" on="1"/>
        <pt x="279" y="266" on="1"/>
        <pt x="1026" y="1456" on="1"/>
        <pt x="1171" y="1456" on="1"/>
        <pt x="1171" y="0" on="1"/>
        <pt x="1014" y="0" on="1"/>
        <pt x="1014" y="1161" on="1"/>
        <pt x="274" y="0" on="1"/>
        <pt x="121" y="0" on="1"/>
      </contour>
    </TTGlyph>
    <TTGlyph name="afii10027" xMin="121" yMin="0" xMax="1171" yMax="1880">
      <contour>
        <pt x="646" y="1690" on="1"/>
        <pt x="701" y="1693" on="0"/>
        <pt x="736" y="1716" on="1"/>
        <pt x="795" y="1758" on="0"/>
        <pt x="864" y="1880" on="1"/>
        <pt x="944" y="1880" on="1"/>
        <pt x="944" y="1880" on="0"/>
        <pt x="944" y="1870" on="1"/>
        <pt x="944" y="1802" on="0"/>
        <pt x="878" y="1691" on="1"/>
        <pt x="843" y="1634" on="0"/>
        <pt x="707" y="1556" on="0"/>
        <pt x="575" y="1556" on="0"/>
        <pt x="439" y="1634" on="0"/>
        <pt x="404" y="1691" on="1"/>
        <pt x="338" y="1802" on="0"/>
        <pt x="338" y="1870" on="1"/>
        <pt x="338" y="1880" on="1"/>
        <pt x="419" y="1880" on="1"/>
        <pt x="468" y="1768" on="0"/>
        <pt x="546" y="1716" on="1"/>
        <pt x="584" y="1692" on="0"/>
      </contour>
      <contour>
        <pt x="121" y="1456" on="1"/>
        <pt x="279" y="1456" on="1"/>
        <pt x="279" y="266" on="1"/>
        <pt x="1026" y="1456" on="1"/>
        <pt x="1171" y="1456" on="1"/>
        <pt x="1171" y="0" on="1"/>
        <pt x="1014" y="0" on="1"/>
        <pt x="1014" y="1161" on="1"/>
        <pt x="274" y="0" on="1"/>
        <pt x="121" y="0" on="1"/>
      </contour>
    </TTGlyph>
    <TTGlyph name="afii10028" xMin="121" yMin="0" xMax="1235" yMax="1456">
      <contour>
        <pt x="121" y="1456" on="1"/>
        <pt x="279" y="1456" on="1"/>
        <pt x="279" y="702" on="1"/>
        <pt x="1026" y="1456" on="1"/>
        <pt x="1219" y="1456" on="1"/>
        <pt x="571" y="803" on="1"/>
        <pt x="1235" y="0" on="1"/>
        <pt x="1028" y="0" on="1"/>
        <pt x="467" y="702" on="1"/>
        <pt x="279" y="516" on="1"/>
        <pt x="279" y="0" on="1"/>
        <pt x="121" y="0" on="1"/>
      </contour>
    </TTGlyph>
    <TTGlyph name="afii10029" xMin="84" yMin="0" xMax="1060" yMax="1456">
      <contour>
        <pt x="541" y="1456" on="1"/>
        <pt x="1060" y="1456" on="1"/>
        <pt x="1060" y="0" on="1"/>
        <pt x="902" y="0" on="1"/>
        <pt x="902" y="1315" on="1"/>
        <pt x="694" y="1315" on="1"/>
        <pt x="543" y="289" on="1"/>
        <pt x="530" y="197" on="0"/>
        <pt x="498" y="124" on="0"/>
        <pt x="462" y="90" on="1"/>
        <pt x="363" y="0" on="0"/>
        <pt x="258" y="0" on="1"/>
        <pt x="188" y="0" on="0"/>
        <pt x="128" y="42" on="1"/>
        <pt x="120" y="48" on="0"/>
        <pt x="84" y="82" on="1"/>
        <pt x="191" y="184" on="1"/>
        <pt x="206" y="170" on="1"/>
        <pt x="222" y="158" on="1"/>
        <pt x="240" y="146" on="1"/>
        <pt x="262" y="138" on="1"/>
        <pt x="289" y="135" on="1"/>
        <pt x="376" y="135" on="0"/>
        <pt x="391" y="258" on="1"/>
      </contour>
    </TTGlyph>
    <TTGlyph name="afii10030" xMin="121" yMin="0" xMax="1462" yMax="1456">
      <contour>
        <pt x="121" y="0" on="1"/>
        <pt x="121" y="1456" on="1"/>
        <pt x="336" y="1456" on="1"/>
        <pt x="795" y="209" on="1"/>
        <pt x="1255" y="1456" on="1"/>
        <pt x="1462" y="1456" on="1"/>
        <pt x="1462" y="0" on="1"/>
        <pt x="1309" y="0" on="1"/>
        <pt x="1309" y="1204" on="1"/>
        <pt x="881" y="16" on="1"/>
        <pt x="702" y="16" on="1"/>
        <pt x="274" y="1204" on="1"/>
        <pt x="274" y="0" on="1"/>
      </contour>
    </TTGlyph>
    <TTGlyph name="afii10031" xMin="121" yMin="0" xMax="1098" yMax="1456">
      <contour>
        <pt x="121" y="1456" on="1"/>
        <pt x="279" y="1456" on="1"/>
        <pt x="279" y="815" on="1"/>
        <pt x="940" y="815" on="1"/>
        <pt x="940" y="1456" on="1"/>
        <pt x="1098" y="1456" on="1"/>
        <pt x="1098" y="0" on="1"/>
        <pt x="940" y="0" on="1"/>
        <pt x="940" y="674" on="1"/>
        <pt x="279" y="674" on="1"/>
        <pt x="279" y="0" on="1"/>
        <pt x="121" y="0" on="1"/>
      </contour>
    </TTGlyph>
    <TTGlyph name="afii10032" xMin="92" yMin="-29" xMax="1262" yMax="1495">
      <contour>
        <pt x="963" y="251" on="1"/>
        <pt x="1096" y="428" on="0"/>
        <pt x="1096" y="740" on="1"/>
        <pt x="1096" y="1045" on="0"/>
        <pt x="947" y="1231" on="1"/>
        <pt x="848" y="1354" on="0"/>
        <pt x="676" y="1354" on="1"/>
        <pt x="495" y="1354" on="0"/>
        <pt x="389" y="1210" on="1"/>
        <pt x="258" y="1034" on="0"/>
        <pt x="258" y="725" on="1"/>
        <pt x="258" y="415" on="0"/>
        <pt x="405" y="234" on="1"/>
        <pt x="503" y="113" on="0"/>
        <pt x="676" y="113" on="1"/>
        <pt x="770" y="113" on="0"/>
        <pt x="918" y="192" on="0"/>
      </contour>
      <contour>
        <pt x="181" y="309" on="1"/>
        <pt x="92" y="497" on="0"/>
        <pt x="92" y="722" on="1"/>
        <pt x="92" y="943" on="0"/>
        <pt x="175" y="1135" on="1"/>
        <pt x="271" y="1358" on="0"/>
        <pt x="452" y="1446" on="1"/>
        <pt x="553" y="1495" on="0"/>
        <pt x="798" y="1495" on="0"/>
        <pt x="897" y="1448" on="1"/>
        <pt x="1072" y="1366" on="0"/>
        <pt x="1172" y="1151" on="1"/>
        <pt x="1262" y="959" on="0"/>
        <pt x="1262" y="725" on="1"/>
        <pt x="1262" y="509" on="0"/>
        <pt x="1178" y="322" on="1"/>
        <pt x="1131" y="217" on="0"/>
        <pt x="1001" y="67" on="0"/>
        <pt x="798" y="-29" on="0"/>
        <pt x="677" y="-29" on="1"/>
        <pt x="341" y="-29" on="0"/>
      </contour>
    </TTGlyph>
    <TTGlyph name="afii10033" xMin="121" yMin="0" xMax="1098" yMax="1456">
      <contour>
        <pt x="121" y="1456" on="1"/>
        <pt x="1098" y="1456" on="1"/>
        <pt x="1098" y="0" on="1"/>
        <pt x="940" y="0" on="1"/>
        <pt x="940" y="1315" on="1"/>
        <pt x="279" y="1315" on="1"/>
        <pt x="279" y="0" on="1"/>
        <pt x="121" y="0" on="1"/>
      </contour>
    </TTGlyph>
    <TTGlyph name="afii10034" xMin="121" yMin="0" xMax="1032" yMax="1456">
      <contour>
        <pt x="279" y="774" on="1"/>
        <pt x="485" y="774" on="1"/>
        <pt x="870" y="774" on="0"/>
        <pt x="870" y="1047" on="1"/>
        <pt x="870" y="1174" on="0"/>
        <pt x="770" y="1248" on="1"/>
        <pt x="680" y="1315" on="0"/>
        <pt x="485" y="1315" on="1"/>
        <pt x="279" y="1315" on="1"/>
      </contour>
      <contour>
        <pt x="121" y="1456" on="1"/>
        <pt x="485" y="1456" on="1"/>
        <pt x="717" y="1456" on="0"/>
        <pt x="993" y="1279" on="0"/>
        <pt x="1024" y="1132" on="1"/>
        <pt x="1032" y="1084" on="0"/>
        <pt x="1032" y="960" on="0"/>
        <pt x="998" y="886" on="1"/>
        <pt x="926" y="725" on="0"/>
        <pt x="730" y="664" on="1"/>
        <pt x="623" y="631" on="0"/>
        <pt x="485" y="631" on="1"/>
        <pt x="279" y="631" on="1"/>
        <pt x="279" y="0" on="1"/>
        <pt x="121" y="0" on="1"/>
      </contour>
    </TTGlyph>
    <TTGlyph name="afii10035" xMin="100" yMin="-29" xMax="1167" yMax="1495">
      <contour>
        <pt x="1167" y="293" on="1"/>
        <pt x="1119" y="165" on="0"/>
        <pt x="1011" y="72" on="1"/>
        <pt x="895" y="-29" on="0"/>
        <pt x="700" y="-29" on="1"/>
        <pt x="583" y="-29" on="0"/>
        <pt x="482" y="12" on="1"/>
        <pt x="297" y="86" on="0"/>
        <pt x="194" y="292" on="1"/>
        <pt x="100" y="482" on="0"/>
        <pt x="100" y="725" on="1"/>
        <pt x="100" y="970" on="0"/>
        <pt x="194" y="1164" on="1"/>
        <pt x="294" y="1371" on="0"/>
        <pt x="483" y="1452" on="1"/>
        <pt x="582" y="1495" on="0"/>
        <pt x="678" y="1495" on="1"/>
        <pt x="983" y="1495" on="0"/>
        <pt x="1114" y="1276" on="1"/>
        <pt x="1138" y="1235" on="0"/>
        <pt x="1153" y="1194" on="1"/>
        <pt x="1004" y="1153" on="1"/>
        <pt x="976" y="1242" on="0"/>
        <pt x="807" y="1354" on="0"/>
        <pt x="702" y="1354" on="1"/>
        <pt x="700" y="1354" on="1"/>
        <pt x="596" y="1354" on="0"/>
        <pt x="511" y="1299" on="1"/>
        <pt x="356" y="1199" on="0"/>
        <pt x="294" y="955" on="1"/>
        <pt x="266" y="846" on="0"/>
        <pt x="266" y="726" on="1"/>
        <pt x="266" y="480" on="0"/>
        <pt x="380" y="298" on="1"/>
        <pt x="433" y="215" on="0"/>
        <pt x="600" y="111" on="0"/>
        <pt x="807" y="111" on="0"/>
        <pt x="988" y="242" on="0"/>
        <pt x="1020" y="334" on="1"/>
      </contour>
    </TTGlyph>
    <TTGlyph name="afii10036" xMin="88" yMin="0" xMax="1180" yMax="1456">
      <contour>
        <pt x="88" y="1456" on="1"/>
        <pt x="1180" y="1456" on="1"/>
        <pt x="1180" y="1315" on="1"/>
        <pt x="723" y="1315" on="1"/>
        <pt x="723" y="0" on="1"/>
        <pt x="565" y="0" on="1"/>
        <pt x="565" y="1315" on="1"/>
        <pt x="88" y="1315" on="1"/>
      </contour>
    </TTGlyph>
    <TTGlyph name="afii10037" xMin="26" yMin="0" xMax="1245" yMax="1456">
      <contour>
        <pt x="198" y="1456" on="1"/>
        <pt x="366" y="1456" on="1"/>
        <pt x="722" y="856" on="1"/>
        <pt x="1078" y="1456" on="1"/>
        <pt x="1245" y="1456" on="1"/>
        <pt x="468" y="142" on="1"/>
        <pt x="383" y="8" on="0"/>
        <pt x="213" y="0" on="1"/>
        <pt x="202" y="0" on="1"/>
        <pt x="130" y="0" on="0"/>
        <pt x="70" y="42" on="1"/>
        <pt x="62" y="48" on="0"/>
        <pt x="26" y="82" on="1"/>
        <pt x="133" y="184" on="1"/>
        <pt x="148" y="170" on="1"/>
        <pt x="164" y="158" on="1"/>
        <pt x="182" y="146" on="1"/>
        <pt x="204" y="138" on="1"/>
        <pt x="231" y="135" on="1"/>
        <pt x="282" y="135" on="0"/>
        <pt x="304" y="159" on="1"/>
        <pt x="642" y="748" on="1"/>
      </contour>
    </TTGlyph>
    <TTGlyph name="afii10038" xMin="95" yMin="0" xMax="1467" yMax="1514">
      <contour>
        <pt x="685" y="1313" on="1"/>
        <pt x="685" y="1514" on="1"/>
        <pt x="864" y="1514" on="1"/>
        <pt x="864" y="1313" on="1"/>
        <pt x="1011" y="1299" on="0"/>
        <pt x="1236" y="1190" on="0"/>
        <pt x="1376" y="1062" on="0"/>
        <pt x="1467" y="856" on="0"/>
        <pt x="1467" y="613" on="0"/>
        <pt x="1383" y="414" on="0"/>
        <pt x="1312" y="348" on="1"/>
        <pt x="1132" y="181" on="0"/>
        <pt x="864" y="153" on="1"/>
        <pt x="864" y="0" on="1"/>
        <pt x="685" y="0" on="1"/>
        <pt x="685" y="153" on="1"/>
        <pt x="548" y="165" on="0"/>
        <pt x="318" y="278" on="0"/>
        <pt x="181" y="409" on="0"/>
        <pt x="95" y="611" on="0"/>
        <pt x="95" y="853" on="0"/>
        <pt x="136" y="953" on="1"/>
        <pt x="208" y="1128" on="0"/>
        <pt x="399" y="1229" on="1"/>
        <pt x="526" y="1296" on="0"/>
      </contour>
      <contour>
        <pt x="685" y="318" on="1"/>
        <pt x="685" y="1148" on="1"/>
        <pt x="459" y="1123" on="0"/>
        <pt x="331" y="1005" on="1"/>
        <pt x="282" y="960" on="0"/>
        <pt x="223" y="818" on="0"/>
        <pt x="223" y="642" on="0"/>
        <pt x="293" y="492" on="0"/>
        <pt x="346" y="448" on="1"/>
        <pt x="479" y="338" on="0"/>
      </contour>
      <contour>
        <pt x="864" y="1148" on="1"/>
        <pt x="864" y="318" on="1"/>
        <pt x="1091" y="340" on="0"/>
        <pt x="1229" y="463" on="1"/>
        <pt x="1340" y="561" on="0"/>
        <pt x="1340" y="734" on="1"/>
        <pt x="1340" y="916" on="0"/>
        <pt x="1211" y="1021" on="1"/>
        <pt x="1085" y="1123" on="0"/>
      </contour>
    </TTGlyph>
    <TTGlyph name="afii10039" xMin="74" yMin="0" xMax="1161" yMax="1456">
      <contour>
        <pt x="74" y="1456" on="1"/>
        <pt x="256" y="1456" on="1"/>
        <pt x="618" y="850" on="1"/>
        <pt x="973" y="1456" on="1"/>
        <pt x="1155" y="1456" on="1"/>
        <pt x="702" y="729" on="1"/>
        <pt x="1161" y="0" on="1"/>
        <pt x="971" y="0" on="1"/>
        <pt x="618" y="586" on="1"/>
        <pt x="258" y="0" on="1"/>
        <pt x="80" y="0" on="1"/>
        <pt x="535" y="729" on="1"/>
      </contour>
    </TTGlyph>
    <TTGlyph name="afii10040" xMin="121" yMin="-208" xMax="1340" yMax="1456">
      <contour>
        <pt x="1340" y="142" on="1"/>
        <pt x="1340" y="-208" on="1"/>
        <pt x="1198" y="-208" on="1"/>
        <pt x="1198" y="0" on="1"/>
        <pt x="121" y="0" on="1"/>
        <pt x="121" y="1456" on="1"/>
        <pt x="279" y="1456" on="1"/>
        <pt x="279" y="141" on="1"/>
        <pt x="940" y="141" on="1"/>
        <pt x="940" y="1456" on="1"/>
        <pt x="1098" y="1456" on="1"/>
        <pt x="1098" y="142" on="1"/>
      </contour>
    </TTGlyph>
    <TTGlyph name="afii10041" xMin="98" yMin="0" xMax="926" yMax="1456">
      <contour>
        <pt x="774" y="1456" on="1"/>
        <pt x="926" y="1456" on="1"/>
        <pt x="926" y="0" on="1"/>
        <pt x="774" y="0" on="1"/>
        <pt x="774" y="780" on="1"/>
        <pt x="745" y="690" on="0"/>
        <pt x="583" y="570" on="0"/>
        <pt x="484" y="570" on="1"/>
        <pt x="203" y="570" on="0"/>
        <pt x="126" y="878" on="1"/>
        <pt x="98" y="990" on="0"/>
        <pt x="98" y="1131" on="1"/>
        <pt x="98" y="1456" on="1"/>
        <pt x="249" y="1456" on="1"/>
        <pt x="249" y="1131" on="1"/>
        <pt x="249" y="832" on="0"/>
        <pt x="390" y="740" on="1"/>
        <pt x="441" y="707" on="0"/>
        <pt x="510" y="707" on="1"/>
        <pt x="704" y="707" on="0"/>
        <pt x="758" y="969" on="1"/>
        <pt x="774" y="1049" on="0"/>
        <pt x="774" y="1132" on="1"/>
      </contour>
    </TTGlyph>
    <TTGlyph name="afii10042" xMin="121" yMin="0" xMax="1460" yMax="1456">
      <contour>
        <pt x="1460" y="1456" on="1"/>
        <pt x="1460" y="0" on="1"/>
        <pt x="121" y="0" on="1"/>
        <pt x="121" y="1456" on="1"/>
        <pt x="279" y="1456" on="1"/>
        <pt x="279" y="141" on="1"/>
        <pt x="711" y="141" on="1"/>
        <pt x="711" y="1456" on="1"/>
        <pt x="870" y="1456" on="1"/>
        <pt x="870" y="142" on="1"/>
        <pt x="1302" y="141" on="1"/>
        <pt x="1302" y="1456" on="1"/>
      </contour>
    </TTGlyph>
    <TTGlyph name="afii10043" xMin="121" yMin="-208" xMax="1702" yMax="1456">
      <contour>
        <pt x="1702" y="142" on="1"/>
        <pt x="1702" y="-208" on="1"/>
        <pt x="1560" y="-208" on="1"/>
        <pt x="1560" y="0" on="1"/>
        <pt x="121" y="0" on="1"/>
        <pt x="121" y="1456" on="1"/>
        <pt x="279" y="1456" on="1"/>
        <pt x="279" y="141" on="1"/>
        <pt x="711" y="141" on="1"/>
        <pt x="711" y="1456" on="1"/>
        <pt x="870" y="1456" on="1"/>
        <pt x="870" y="142" on="1"/>
        <pt x="1302" y="141" on="1"/>
        <pt x="1302" y="1456" on="1"/>
        <pt x="1460" y="1456" on="1"/>
        <pt x="1460" y="142" on="1"/>
      </contour>
    </TTGlyph>
    <TTGlyph name="afii10044" xMin="40" yMin="0" xMax="1171" yMax="1456">
      <contour>
        <pt x="260" y="0" on="1"/>
        <pt x="260" y="1314" on="1"/>
        <pt x="40" y="1314" on="1"/>
        <pt x="40" y="1456" on="1"/>
        <pt x="418" y="1456" on="1"/>
        <pt x="418" y="825" on="1"/>
        <pt x="624" y="825" on="1"/>
        <pt x="1022" y="825" on="0"/>
        <pt x="1138" y="570" on="1"/>
        <pt x="1171" y="497" on="0"/>
        <pt x="1171" y="372" on="0"/>
        <pt x="1163" y="324" on="1"/>
        <pt x="1132" y="178" on="0"/>
        <pt x="855" y="0" on="0"/>
        <pt x="624" y="0" on="1"/>
      </contour>
      <contour>
        <pt x="418" y="682" on="1"/>
        <pt x="418" y="141" on="1"/>
        <pt x="624" y="141" on="1"/>
        <pt x="885" y="141" on="0"/>
        <pt x="972" y="274" on="1"/>
        <pt x="1009" y="330" on="0"/>
        <pt x="1009" y="409" on="1"/>
        <pt x="1009" y="682" on="0"/>
        <pt x="624" y="682" on="1"/>
      </contour>
    </TTGlyph>
    <TTGlyph name="afii10045" xMin="121" yMin="0" xMax="1099" yMax="1456">
      <contour>
        <pt x="942" y="0" on="1"/>
        <pt x="942" y="1456" on="1"/>
        <pt x="1099" y="1456" on="1"/>
        <pt x="1099" y="0" on="1"/>
      </contour>
      <contour>
        <pt x="279" y="682" on="1"/>
        <pt x="279" y="141" on="1"/>
        <pt x="303" y="141" on="1"/>
        <pt x="565" y="141" on="0"/>
        <pt x="651" y="274" on="1"/>
        <pt x="688" y="330" on="0"/>
        <pt x="688" y="409" on="1"/>
        <pt x="688" y="682" on="0"/>
        <pt x="303" y="682" on="1"/>
      </contour>
      <contour>
        <pt x="121" y="0" on="1"/>
        <pt x="121" y="1456" on="1"/>
        <pt x="279" y="1456" on="1"/>
        <pt x="279" y="825" on="1"/>
        <pt x="303" y="825" on="1"/>
        <pt x="701" y="825" on="0"/>
        <pt x="817" y="570" on="1"/>
        <pt x="850" y="497" on="0"/>
        <pt x="850" y="366" on="0"/>
        <pt x="842" y="324" on="1"/>
        <pt x="812" y="177" on="0"/>
        <pt x="535" y="0" on="0"/>
        <pt x="303" y="0" on="1"/>
      </contour>
    </TTGlyph>
    <TTGlyph name="afii10046" xMin="121" yMin="0" xMax="1032" yMax="1456">
      <contour>
        <pt x="279" y="682" on="1"/>
        <pt x="279" y="141" on="1"/>
        <pt x="485" y="141" on="1"/>
        <pt x="747" y="141" on="0"/>
        <pt x="833" y="274" on="1"/>
        <pt x="870" y="330" on="0"/>
        <pt x="870" y="409" on="1"/>
        <pt x="870" y="682" on="0"/>
        <pt x="485" y="682" on="1"/>
      </contour>
      <contour>
        <pt x="121" y="0" on="1"/>
        <pt x="121" y="1456" on="1"/>
        <pt x="279" y="1456" on="1"/>
        <pt x="279" y="825" on="1"/>
        <pt x="485" y="825" on="1"/>
        <pt x="883" y="825" on="0"/>
        <pt x="999" y="570" on="1"/>
        <pt x="1032" y="497" on="0"/>
        <pt x="1032" y="372" on="0"/>
        <pt x="1024" y="324" on="1"/>
        <pt x="993" y="177" on="0"/>
        <pt x="717" y="0" on="0"/>
        <pt x="485" y="0" on="1"/>
      </contour>
    </TTGlyph>
    <TTGlyph name="afii10047" xMin="100" yMin="-29" xMax="1167" yMax="1495">
      <contour>
        <pt x="100" y="293" on="1"/>
        <pt x="247" y="334" on="1"/>
        <pt x="279" y="242" on="0"/>
        <pt x="460" y="111" on="0"/>
        <pt x="666" y="111" on="0"/>
        <pt x="750" y="162" on="1"/>
        <pt x="908" y="260" on="0"/>
        <pt x="971" y="494" on="1"/>
        <pt x="992" y="569" on="0"/>
        <pt x="998" y="648" on="1"/>
        <pt x="399" y="648" on="1"/>
        <pt x="399" y="790" on="1"/>
        <pt x="999" y="790" on="1"/>
        <pt x="985" y="996" on="0"/>
        <pt x="892" y="1156" on="1"/>
        <pt x="839" y="1247" on="0"/>
        <pt x="672" y="1354" on="0"/>
        <pt x="567" y="1354" on="1"/>
        <pt x="565" y="1354" on="1"/>
        <pt x="459" y="1354" on="0"/>
        <pt x="291" y="1243" on="0"/>
        <pt x="263" y="1153" on="1"/>
        <pt x="114" y="1194" on="1"/>
        <pt x="146" y="1283" on="0"/>
        <pt x="256" y="1398" on="0"/>
        <pt x="305" y="1428" on="1"/>
        <pt x="415" y="1495" on="0"/>
        <pt x="685" y="1495" on="0"/>
        <pt x="784" y="1452" on="1"/>
        <pt x="972" y="1371" on="0"/>
        <pt x="1072" y="1164" on="1"/>
        <pt x="1167" y="970" on="0"/>
        <pt x="1167" y="725" on="1"/>
        <pt x="1167" y="344" on="0"/>
        <pt x="956" y="124" on="1"/>
        <pt x="888" y="53" on="0"/>
        <pt x="684" y="-29" on="0"/>
        <pt x="578" y="-29" on="1"/>
        <pt x="372" y="-29" on="0"/>
        <pt x="256" y="72" on="1"/>
        <pt x="148" y="165" on="0"/>
      </contour>
    </TTGlyph>
    <TTGlyph name="afii10048" xMin="125" yMin="-22" xMax="1429" yMax="1514">
      <contour>
        <pt x="125" y="0" on="1"/>
        <pt x="125" y="1514" on="1"/>
        <pt x="282" y="1514" on="1"/>
        <pt x="282" y="817" on="1"/>
        <pt x="379" y="817" on="1"/>
        <pt x="384" y="895" on="0"/>
        <pt x="409" y="1046" on="0"/>
        <pt x="491" y="1255" on="0"/>
        <pt x="607" y="1414" on="0"/>
        <pt x="792" y="1514" on="0"/>
        <pt x="902" y="1514" on="1"/>
        <pt x="1202" y="1514" on="0"/>
        <pt x="1348" y="1170" on="1"/>
        <pt x="1396" y="1056" on="0"/>
        <pt x="1407" y="969" on="1"/>
        <pt x="1429" y="868" on="0"/>
        <pt x="1429" y="750" on="1"/>
        <pt x="1429" y="518" on="0"/>
        <pt x="1353" y="329" on="1"/>
        <pt x="1312" y="226" on="0"/>
        <pt x="1195" y="74" on="0"/>
        <pt x="1013" y="-22" on="0"/>
        <pt x="902" y="-22" on="1"/>
        <pt x="598" y="-22" on="0"/>
        <pt x="456" y="316" on="1"/>
        <pt x="387" y="480" on="0"/>
        <pt x="377" y="676" on="1"/>
        <pt x="282" y="676" on="1"/>
        <pt x="282" y="0" on="1"/>
      </contour>
      <contour>
        <pt x="1160" y="258" on="1"/>
        <pt x="1280" y="432" on="0"/>
        <pt x="1280" y="755" on="1"/>
        <pt x="1280" y="1062" on="0"/>
        <pt x="1146" y="1250" on="1"/>
        <pt x="1107" y="1305" on="0"/>
        <pt x="979" y="1373" on="0"/>
        <pt x="816" y="1373" on="0"/>
        <pt x="750" y="1332" on="1"/>
        <pt x="632" y="1260" on="0"/>
        <pt x="574" y="1082" on="1"/>
        <pt x="566" y="1059" on="0"/>
        <pt x="536" y="914" on="1"/>
        <pt x="525" y="810" on="0"/>
        <pt x="525" y="716" on="1"/>
        <pt x="525" y="420" on="0"/>
        <pt x="658" y="240" on="1"/>
        <pt x="699" y="184" on="0"/>
        <pt x="827" y="120" on="0"/>
        <pt x="988" y="120" on="0"/>
        <pt x="1119" y="197" on="0"/>
      </contour>
    </TTGlyph>
    <TTGlyph name="afii10049" xMin="121" yMin="0" xMax="1104" yMax="1456">
      <contour>
        <pt x="946" y="774" on="1"/>
        <pt x="946" y="1315" on="1"/>
        <pt x="740" y="1315" on="1"/>
        <pt x="541" y="1315" on="0"/>
        <pt x="355" y="1171" on="0"/>
        <pt x="355" y="1047" on="1"/>
        <pt x="355" y="907" on="0"/>
        <pt x="463" y="834" on="1"/>
        <pt x="553" y="774" on="0"/>
        <pt x="740" y="774" on="1"/>
      </contour>
      <contour>
        <pt x="302" y="0" on="1"/>
        <pt x="121" y="0" on="1"/>
        <pt x="555" y="648" on="1"/>
        <pt x="390" y="678" on="0"/>
        <pt x="290" y="788" on="1"/>
        <pt x="191" y="898" on="0"/>
        <pt x="191" y="1047" on="1"/>
        <pt x="191" y="1240" on="0"/>
        <pt x="497" y="1456" on="0"/>
        <pt x="740" y="1456" on="1"/>
        <pt x="1104" y="1456" on="1"/>
        <pt x="1104" y="0" on="1"/>
        <pt x="946" y="0" on="1"/>
        <pt x="946" y="631" on="1"/>
        <pt x="731" y="631" on="1"/>
      </contour>
    </TTGlyph>
    <TTGlyph name="afii10051" xMin="18" yMin="0" xMax="1131" yMax="1456">
      <contour>
        <pt x="455" y="0" on="1"/>
        <pt x="303" y="0" on="1"/>
        <pt x="303" y="1314" on="1"/>
        <pt x="18" y="1314" on="1"/>
        <pt x="18" y="1456" on="1"/>
        <pt x="756" y="1456" on="1"/>
        <pt x="756" y="1314" on="1"/>
        <pt x="455" y="1314" on="1"/>
        <pt x="455" y="892" on="1"/>
        <pt x="484" y="983" on="0"/>
        <pt x="645" y="1102" on="0"/>
        <pt x="744" y="1102" on="1"/>
        <pt x="1122" y="1102" on="0"/>
        <pt x="1130" y="541" on="1"/>
        <pt x="1131" y="289" on="1"/>
        <pt x="1131" y="165" on="0"/>
        <pt x="1051" y="92" on="1"/>
        <pt x="951" y="0" on="0"/>
        <pt x="846" y="0" on="1"/>
        <pt x="776" y="0" on="0"/>
        <pt x="716" y="42" on="1"/>
        <pt x="708" y="48" on="0"/>
        <pt x="672" y="82" on="1"/>
        <pt x="779" y="184" on="1"/>
        <pt x="794" y="170" on="1"/>
        <pt x="810" y="158" on="1"/>
        <pt x="828" y="146" on="1"/>
        <pt x="850" y="138" on="1"/>
        <pt x="877" y="135" on="1"/>
        <pt x="979" y="135" on="0"/>
        <pt x="979" y="258" on="1"/>
        <pt x="979" y="541" on="1"/>
        <pt x="979" y="841" on="0"/>
        <pt x="839" y="932" on="1"/>
        <pt x="788" y="965" on="0"/>
        <pt x="719" y="965" on="1"/>
        <pt x="586" y="965" on="0"/>
        <pt x="518" y="838" on="1"/>
        <pt x="455" y="718" on="0"/>
        <pt x="455" y="540" on="1"/>
      </contour>
    </TTGlyph>
    <TTGlyph name="afii10052" xMin="63" yMin="0" xMax="977" yMax="1944">
      <component glyphName="acute" x="316" y="0" flags="0x1004"/>
      <component glyphName="afii10020" x="-29" y="0" flags="0x1004"/>
    </TTGlyph>
    <TTGlyph name="afii10053" xMin="56" yMin="-29" xMax="1122" yMax="1495">
      <contour>
        <pt x="1122" y="293" on="1"/>
        <pt x="1074" y="165" on="0"/>
        <pt x="966" y="72" on="1"/>
        <pt x="850" y="-29" on="0"/>
        <pt x="656" y="-29" on="1"/>
        <pt x="538" y="-29" on="0"/>
        <pt x="437" y="12" on="1"/>
        <pt x="252" y="86" on="0"/>
        <pt x="149" y="292" on="1"/>
        <pt x="56" y="476" on="0"/>
        <pt x="56" y="725" on="1"/>
        <pt x="56" y="972" on="0"/>
        <pt x="150" y="1164" on="1"/>
        <pt x="251" y="1371" on="0"/>
        <pt x="438" y="1452" on="1"/>
        <pt x="537" y="1495" on="0"/>
        <pt x="634" y="1495" on="1"/>
        <pt x="937" y="1495" on="0"/>
        <pt x="1069" y="1276" on="1"/>
        <pt x="1093" y="1235" on="0"/>
        <pt x="1108" y="1194" on="1"/>
        <pt x="960" y="1153" on="1"/>
        <pt x="932" y="1242" on="0"/>
        <pt x="763" y="1354" on="0"/>
        <pt x="658" y="1354" on="1"/>
        <pt x="656" y="1354" on="1"/>
        <pt x="551" y="1354" on="0"/>
        <pt x="466" y="1300" on="1"/>
        <pt x="312" y="1200" on="0"/>
        <pt x="250" y="955" on="1"/>
        <pt x="230" y="879" on="0"/>
        <pt x="224" y="790" on="1"/>
        <pt x="824" y="790" on="1"/>
        <pt x="824" y="648" on="1"/>
        <pt x="225" y="648" on="1"/>
        <pt x="240" y="451" on="0"/>
        <pt x="336" y="298" on="1"/>
        <pt x="389" y="215" on="0"/>
        <pt x="556" y="111" on="0"/>
        <pt x="762" y="111" on="0"/>
        <pt x="945" y="243" on="0"/>
        <pt x="976" y="334" on="1"/>
      </contour>
    </TTGlyph>
    <TTGlyph name="afii10054" xMin="45" yMin="-29" xMax="1034" yMax="1495">
      <component glyphName="S" x="0" y="0" flags="0x1004"/>
    </TTGlyph>
    <TTGlyph name="afii10055" xMin="154" yMin="0" xMax="311" yMax="1456">
      <component glyphName="I" x="0" y="0" flags="0x1004"/>
    </TTGlyph>
    <TTGlyph name="afii10056" xMin="-96" yMin="0" xMax="563" yMax="1779">
      <component glyphName="dieresis" x="-172" y="0" flags="0x1004"/>
      <component glyphName="I" x="0" y="0" flags="0x1004"/>
    </TTGlyph>
    <TTGlyph name="afii10057" xMin="113" yMin="-29" xMax="1028" yMax="1456">
      <contour>
        <pt x="113" y="535" on="1"/>
        <pt x="254" y="535" on="1"/>
        <pt x="254" y="343" on="0"/>
        <pt x="373" y="211" on="1"/>
        <pt x="454" y="121" on="0"/>
        <pt x="656" y="121" on="0"/>
        <pt x="728" y="184" on="1"/>
        <pt x="870" y="308" on="0"/>
        <pt x="870" y="535" on="1"/>
        <pt x="870" y="1314" on="1"/>
        <pt x="526" y="1314" on="1"/>
        <pt x="526" y="1456" on="1"/>
        <pt x="1028" y="1456" on="1"/>
        <pt x="1028" y="535" on="1"/>
        <pt x="1028" y="289" on="0"/>
        <pt x="770" y="-29" on="0"/>
        <pt x="565" y="-29" on="1"/>
        <pt x="400" y="-29" on="0"/>
        <pt x="166" y="199" on="0"/>
        <pt x="129" y="378" on="1"/>
        <pt x="113" y="446" on="0"/>
      </contour>
    </TTGlyph>
    <TTGlyph name="afii10058" xMin="69" yMin="0" xMax="1529" yMax="1456">
      <contour>
        <pt x="982" y="0" on="1"/>
        <pt x="800" y="0" on="1"/>
        <pt x="800" y="1315" on="1"/>
        <pt x="679" y="1315" on="1"/>
        <pt x="528" y="289" on="1"/>
        <pt x="515" y="197" on="0"/>
        <pt x="483" y="124" on="0"/>
        <pt x="446" y="90" on="1"/>
        <pt x="346" y="0" on="0"/>
        <pt x="243" y="0" on="1"/>
        <pt x="172" y="0" on="0"/>
        <pt x="113" y="42" on="1"/>
        <pt x="105" y="48" on="0"/>
        <pt x="69" y="82" on="1"/>
        <pt x="176" y="184" on="1"/>
        <pt x="191" y="170" on="1"/>
        <pt x="207" y="158" on="1"/>
        <pt x="226" y="146" on="1"/>
        <pt x="248" y="138" on="1"/>
        <pt x="274" y="135" on="1"/>
        <pt x="361" y="135" on="0"/>
        <pt x="376" y="258" on="1"/>
        <pt x="526" y="1456" on="1"/>
        <pt x="958" y="1456" on="1"/>
        <pt x="958" y="825" on="1"/>
        <pt x="982" y="825" on="1"/>
        <pt x="1380" y="825" on="0"/>
        <pt x="1496" y="570" on="1"/>
        <pt x="1529" y="497" on="0"/>
        <pt x="1529" y="366" on="0"/>
        <pt x="1521" y="324" on="1"/>
        <pt x="1491" y="178" on="0"/>
        <pt x="1213" y="0" on="0"/>
      </contour>
      <contour>
        <pt x="958" y="141" on="1"/>
        <pt x="982" y="141" on="1"/>
        <pt x="1243" y="141" on="0"/>
        <pt x="1330" y="274" on="1"/>
        <pt x="1367" y="330" on="0"/>
        <pt x="1367" y="409" on="1"/>
        <pt x="1367" y="682" on="0"/>
        <pt x="982" y="682" on="1"/>
        <pt x="958" y="682" on="1"/>
      </contour>
    </TTGlyph>
    <TTGlyph name="afii10059" xMin="73" yMin="0" xMax="1225" yMax="1456">
      <contour>
        <pt x="496" y="0" on="1"/>
        <pt x="496" y="679" on="1"/>
        <pt x="231" y="679" on="1"/>
        <pt x="231" y="0" on="1"/>
        <pt x="73" y="0" on="1"/>
        <pt x="73" y="1456" on="1"/>
        <pt x="231" y="1456" on="1"/>
        <pt x="231" y="819" on="1"/>
        <pt x="496" y="819" on="1"/>
        <pt x="496" y="1456" on="1"/>
        <pt x="654" y="1456" on="1"/>
        <pt x="654" y="825" on="1"/>
        <pt x="678" y="825" on="1"/>
        <pt x="1076" y="825" on="0"/>
        <pt x="1192" y="570" on="1"/>
        <pt x="1225" y="497" on="0"/>
        <pt x="1225" y="366" on="0"/>
        <pt x="1217" y="324" on="1"/>
        <pt x="1187" y="178" on="0"/>
        <pt x="909" y="0" on="0"/>
        <pt x="678" y="0" on="1"/>
      </contour>
      <contour>
        <pt x="654" y="682" on="1"/>
        <pt x="654" y="141" on="1"/>
        <pt x="678" y="141" on="1"/>
        <pt x="939" y="141" on="0"/>
        <pt x="1026" y="274" on="1"/>
        <pt x="1063" y="330" on="0"/>
        <pt x="1063" y="409" on="1"/>
        <pt x="1063" y="682" on="0"/>
        <pt x="678" y="682" on="1"/>
      </contour>
    </TTGlyph>
    <TTGlyph name="afii10060" xMin="18" yMin="0" xMax="1130" yMax="1456">
      <contour>
        <pt x="455" y="0" on="1"/>
        <pt x="303" y="0" on="1"/>
        <pt x="303" y="1314" on="1"/>
        <pt x="18" y="1314" on="1"/>
        <pt x="18" y="1456" on="1"/>
        <pt x="756" y="1456" on="1"/>
        <pt x="756" y="1314" on="1"/>
        <pt x="455" y="1314" on="1"/>
        <pt x="455" y="892" on="1"/>
        <pt x="484" y="983" on="0"/>
        <pt x="645" y="1102" on="0"/>
        <pt x="744" y="1102" on="1"/>
        <pt x="1024" y="1102" on="0"/>
        <pt x="1102" y="794" on="1"/>
        <pt x="1130" y="682" on="0"/>
        <pt x="1130" y="541" on="1"/>
        <pt x="1130" y="0" on="1"/>
        <pt x="979" y="0" on="1"/>
        <pt x="979" y="541" on="1"/>
        <pt x="979" y="841" on="0"/>
        <pt x="839" y="932" on="1"/>
        <pt x="788" y="965" on="0"/>
        <pt x="719" y="965" on="1"/>
        <pt x="586" y="965" on="0"/>
        <pt x="518" y="838" on="1"/>
        <pt x="455" y="718" on="0"/>
        <pt x="455" y="540" on="1"/>
      </contour>
    </TTGlyph>
    <TTGlyph name="afii10061" xMin="121" yMin="0" xMax="1235" yMax="1944">
      <component glyphName="acute" x="406" y="0" flags="0x1004"/>
      <component glyphName="afii10028" x="0" y="0" flags="0x1004"/>
    </TTGlyph>
    <TTGlyph name="afii10062" xMin="26" yMin="0" xMax="1245" yMax="1779">
      <component glyphName="dieresis" x="312" y="0" flags="0x1004"/>
      <component glyphName="afii10037" x="0" y="0" flags="0x1004"/>
    </TTGlyph>
    <TTGlyph name="afii10065" xMin="106" yMin="-29" xMax="887" yMax="1090">
      <contour>
        <pt x="601" y="582" on="0"/>
        <pt x="402" y="582" on="0"/>
        <pt x="260" y="443" on="0"/>
        <pt x="260" y="241" on="0"/>
        <pt x="404" y="106" on="0"/>
        <pt x="606" y="106" on="0"/>
        <pt x="748" y="245" on="0"/>
        <pt x="748" y="447" on="0"/>
      </contour>
      <contour>
        <pt x="478" y="717" on="1"/>
        <pt x="580" y="717" on="0"/>
        <pt x="734" y="608" on="0"/>
        <pt x="746" y="559" on="1"/>
        <pt x="746" y="655" on="1"/>
        <pt x="746" y="798" on="0"/>
        <pt x="620" y="954" on="0"/>
        <pt x="502" y="954" on="1"/>
        <pt x="436" y="954" on="0"/>
        <pt x="313" y="912" on="0"/>
        <pt x="278" y="877" on="1"/>
        <pt x="200" y="981" on="1"/>
        <pt x="333" y="1090" on="0"/>
        <pt x="669" y="1090" on="0"/>
        <pt x="887" y="860" on="0"/>
        <pt x="887" y="655" on="1"/>
        <pt x="887" y="0" on="1"/>
        <pt x="748" y="0" on="1"/>
        <pt x="748" y="156" on="1"/>
        <pt x="743" y="112" on="0"/>
        <pt x="670" y="46" on="1"/>
        <pt x="637" y="16" on="0"/>
        <pt x="533" y="-29" on="0"/>
        <pt x="478" y="-29" on="1"/>
        <pt x="314" y="-29" on="0"/>
        <pt x="106" y="177" on="0"/>
        <pt x="106" y="503" on="0"/>
        <pt x="214" y="610" on="1"/>
        <pt x="323" y="717" on="0"/>
      </contour>
    </TTGlyph>
    <TTGlyph name="afii10066" xMin="90" yMin="-29" xMax="964" yMax="1507">
      <contour>
        <pt x="364" y="900" on="1"/>
        <pt x="244" y="791" on="0"/>
        <pt x="244" y="550" on="1"/>
        <pt x="244" y="235" on="0"/>
        <pt x="398" y="140" on="1"/>
        <pt x="453" y="106" on="0"/>
        <pt x="527" y="106" on="1"/>
        <pt x="674" y="106" on="0"/>
        <pt x="744" y="234" on="1"/>
        <pt x="810" y="352" on="0"/>
        <pt x="810" y="537" on="1"/>
        <pt x="810" y="791" on="0"/>
        <pt x="690" y="900" on="1"/>
        <pt x="626" y="958" on="0"/>
        <pt x="428" y="958" on="0"/>
      </contour>
      <contour>
        <pt x="243" y="983" on="1"/>
        <pt x="356" y="1094" on="0"/>
        <pt x="666" y="1094" on="0"/>
        <pt x="766" y="1018" on="1"/>
        <pt x="964" y="870" on="0"/>
        <pt x="964" y="537" on="1"/>
        <pt x="964" y="197" on="0"/>
        <pt x="768" y="48" on="1"/>
        <pt x="667" y="-29" on="0"/>
        <pt x="389" y="-29" on="0"/>
        <pt x="288" y="48" on="1"/>
        <pt x="90" y="199" on="0"/>
        <pt x="90" y="537" on="1"/>
        <pt x="91" y="1076" on="1"/>
        <pt x="91" y="1274" on="0"/>
        <pt x="218" y="1394" on="1"/>
        <pt x="337" y="1507" on="0"/>
        <pt x="497" y="1507" on="1"/>
        <pt x="588" y="1507" on="0"/>
        <pt x="746" y="1440" on="0"/>
        <pt x="796" y="1390" on="1"/>
        <pt x="677" y="1312" on="1"/>
        <pt x="597" y="1371" on="0"/>
        <pt x="401" y="1371" on="0"/>
        <pt x="243" y="1225" on="0"/>
        <pt x="243" y="1091" on="1"/>
      </contour>
    </TTGlyph>
    <TTGlyph name="afii10067" xMin="92" yMin="0" xMax="829" yMax="1071">
      <contour>
        <pt x="92" y="0" on="1"/>
        <pt x="92" y="1071" on="1"/>
        <pt x="446" y="1071" on="1"/>
        <pt x="522" y="1071" on="0"/>
        <pt x="671" y="1003" on="0"/>
        <pt x="762" y="880" on="0"/>
        <pt x="762" y="749" on="0"/>
        <pt x="697" y="642" on="0"/>
        <pt x="660" y="619" on="1"/>
        <pt x="586" y="579" on="1"/>
        <pt x="664" y="548" on="1"/>
        <pt x="706" y="529" on="0"/>
        <pt x="746" y="488" on="1"/>
        <pt x="829" y="404" on="0"/>
        <pt x="829" y="318" on="1"/>
        <pt x="829" y="180" on="0"/>
        <pt x="604" y="0" on="0"/>
        <pt x="438" y="0" on="1"/>
      </contour>
      <contour>
        <pt x="212" y="632" on="1"/>
        <pt x="428" y="632" on="1"/>
        <pt x="500" y="632" on="0"/>
        <pt x="604" y="722" on="0"/>
        <pt x="604" y="852" on="0"/>
        <pt x="495" y="939" on="0"/>
        <pt x="426" y="939" on="1"/>
        <pt x="212" y="939" on="1"/>
      </contour>
      <contour>
        <pt x="212" y="513" on="1"/>
        <pt x="212" y="135" on="1"/>
        <pt x="420" y="135" on="1"/>
        <pt x="525" y="135" on="0"/>
        <pt x="672" y="238" on="0"/>
        <pt x="672" y="325" on="1"/>
        <pt x="672" y="407" on="0"/>
        <pt x="576" y="466" on="1"/>
        <pt x="503" y="513" on="0"/>
        <pt x="414" y="513" on="1"/>
      </contour>
    </TTGlyph>
    <TTGlyph name="afii10068" xMin="94" yMin="0" xMax="734" yMax="1074">
      <contour>
        <pt x="734" y="938" on="1"/>
        <pt x="245" y="938" on="1"/>
        <pt x="245" y="0" on="1"/>
        <pt x="94" y="0" on="1"/>
        <pt x="94" y="1074" on="1"/>
        <pt x="734" y="1074" on="1"/>
      </contour>
    </TTGlyph>
    <TTGlyph name="afii10069" xMin="128" yMin="-214" xMax="1104" yMax="1074">
      <contour>
        <pt x="862" y="136" on="1"/>
        <pt x="1104" y="136" on="1"/>
        <pt x="1104" y="-214" on="1"/>
        <pt x="962" y="-214" on="1"/>
        <pt x="962" y="-1" on="1"/>
        <pt x="270" y="-1" on="1"/>
        <pt x="270" y="-214" on="1"/>
        <pt x="128" y="-214" on="1"/>
        <pt x="128" y="136" on="1"/>
        <pt x="261" y="136" on="1"/>
        <pt x="331" y="145" on="0"/>
        <pt x="346" y="258" on="1"/>
        <pt x="454" y="1074" on="1"/>
        <pt x="862" y="1074" on="1"/>
      </contour>
      <contour>
        <pt x="454" y="136" on="1"/>
        <pt x="704" y="136" on="1"/>
        <pt x="704" y="933" on="1"/>
        <pt x="604" y="933" on="1"/>
        <pt x="498" y="289" on="1"/>
        <pt x="482" y="192" on="0"/>
        <pt x="468" y="160" on="0"/>
      </contour>
    </TTGlyph>
</ttFont>
